<svg xmlns="http://www.w3.org/2000/svg" xmlns:xlink="http://www.w3.org/1999/xlink" version="1.1" id="Layer_1" x="0" y="0" width="512" height="512" viewBox="0" enable-background="new 0 0 512 512" xml:space="preserve"><path id="refresh-3-icon" fill="#373737" d="M255.05 94.41c90.82 0 164.44 73.64 164.44 164.46 0 0.01 0-0.01 0 0H462l-69.27 69.32 -69.34-69.32H366.8c0-0.02 0 0.02 0 0 0-61.72-50.03-111.78-111.75-111.78 -30.86 0-58.79 12.51-79.02 32.73l-37.25-37.25C168.53 112.82 209.64 94.41 255.05 94.41zM50 253.13h42.51c0 0.01 0-0.01 0 0 0 90.82 73.63 164.46 164.44 164.46 45.4 0 86.51-18.4 116.27-48.16l-37.25-37.25c-20.22 20.22-48.16 32.73-79.02 32.73 -61.72 0-111.75-50.06-111.75-111.78 0-0.02 0 0.02 0 0h43.41l-69.34-69.32L50 253.13 50 253.13z"/></svg>