<?xml version="1.0" encoding="utf-8"?>
<!-- Generator: Adobe Illustrator 17.0.0, SVG Export Plug-In . SVG Version: 6.00 Build 0)  -->
<!DOCTYPE svg PUBLIC "-//W3C//DTD SVG 1.1//EN" "http://www.w3.org/Graphics/SVG/1.1/DTD/svg11.dtd">
<svg version="1.1" id="Layer_1" xmlns="http://www.w3.org/2000/svg" xmlns:xlink="http://www.w3.org/1999/xlink" x="0px" y="0px"
	 width="100px" height="100px" viewBox="0 0 100 100" enable-background="new 0 0 100 100" xml:space="preserve">
<g id="icon_1_">
	<g>
		<path fill="#E9C91C" d="M50,93.344c-3.549,1.256-7.351,1.976-11.33,1.976c-2.446,0-4.827-0.271-7.126-0.762
			c11.197,7.257,25.716,7.257,36.913,0c-2.3,0.491-4.681,0.762-7.127,0.762C57.351,95.319,53.549,94.6,50,93.344z"/>
		<path fill="#E9C91C" d="M80.649,80.649c-5.227,2.493-10.944,3.575-16.609,3.246c-3.773,4.239-8.581,7.516-14.04,9.449
			c3.549,1.256,7.351,1.976,11.33,1.976c2.446,0,4.827-0.271,7.127-0.762c1.973-1.279,3.848-2.771,5.578-4.501
			C76.848,87.243,79.028,84.046,80.649,80.649z"/>
		<path fill="#E9C91C" d="M83.895,64.04c-3.628,3.23-7.933,5.71-12.701,7.154c-1.444,4.768-3.925,9.072-7.154,12.701
			c5.665,0.329,11.382-0.753,16.609-3.246C83.142,75.422,84.224,69.705,83.895,64.04z"/>
		<path fill="#E9C91C" d="M74.034,58.011c-0.474,0.474-0.981,0.893-1.475,1.333c0.038,0.661,0.1,1.315,0.1,1.985
			c0,3.432-0.519,6.741-1.466,9.864c4.768-1.444,9.073-3.925,12.701-7.154c-0.282-4.849-1.572-9.647-3.922-14.04
			C78.434,52.877,76.461,55.584,74.034,58.011z"/>
		<path fill="#E9C91C" d="M72.559,59.345c0.494-0.44,1.001-0.859,1.475-1.333c2.427-2.427,4.399-5.134,5.939-8.011
			c-1.539-2.878-3.512-5.584-5.939-8.011c-0.474-0.474-0.981-0.893-1.475-1.333c-0.189,3.261-0.831,6.394-1.875,9.345
			C71.729,52.951,72.37,56.083,72.559,59.345z"/>
		<path fill="#E9C91C" d="M67.191,42.88c1.432,2.209,2.6,4.598,3.493,7.121c1.045-2.951,1.686-6.083,1.875-9.345
			c-2.44-2.173-5.108-3.934-7.933-5.281C65.778,37.79,66.641,40.305,67.191,42.88z"/>
	</g>
	<g>
		<path fill="#6AA3D5" d="M50,6.656c3.549-1.256,7.351-1.976,11.33-1.976c2.446,0,4.827,0.271,7.127,0.762
			c-11.197-7.257-25.716-7.257-36.913,0c2.3-0.491,4.68-0.762,7.126-0.762C42.649,4.681,46.451,5.4,50,6.656z"/>
		<path fill="#6AA3D5" d="M19.351,19.351c5.227-2.493,10.944-3.575,16.609-3.246c3.773-4.239,8.581-7.516,14.04-9.449
			C46.451,5.4,42.649,4.681,38.67,4.681c-2.446,0-4.827,0.271-7.126,0.762c-1.973,1.279-3.848,2.771-5.578,4.501
			C23.152,12.757,20.972,15.954,19.351,19.351z"/>
		<path fill="#6AA3D5" d="M35.96,16.105c-5.665-0.329-11.382,0.753-16.609,3.246c-2.493,5.227-3.575,10.944-3.246,16.609
			c3.628-3.23,7.933-5.71,12.701-7.154C30.25,24.038,32.731,19.733,35.96,16.105z"/>
		<path fill="#6AA3D5" d="M25.966,41.989c0.474-0.474,0.981-0.893,1.475-1.333c-0.038-0.661-0.1-1.315-0.1-1.985
			c0-3.432,0.519-6.741,1.466-9.864c-4.768,1.444-9.072,3.925-12.701,7.154c0.282,4.849,1.572,9.647,3.922,14.04
			C21.566,47.122,23.539,44.416,25.966,41.989z"/>
		<path fill="#6AA3D5" d="M27.441,40.656c-0.494,0.44-1.001,0.859-1.475,1.333c-2.427,2.427-4.399,5.134-5.939,8.011
			c1.539,2.877,3.512,5.585,5.939,8.011c0.474,0.474,0.981,0.893,1.475,1.333c0.189-3.261,0.831-6.393,1.875-9.344
			C28.271,47.049,27.63,43.917,27.441,40.656z"/>
		<path fill="#6AA3D5" d="M32.809,57.121c-1.432-2.209-2.6-4.598-3.493-7.121c-1.045,2.951-1.686,6.083-1.875,9.344
			c2.44,2.173,5.108,3.934,7.933,5.282C34.222,62.211,33.359,59.696,32.809,57.121z"/>
	</g>
	<g>
		<path fill="#AE519E" d="M50,93.344c-5.459-1.933-10.267-5.21-14.04-9.449c-5.665,0.329-11.382-0.753-16.609-3.246
			c1.621,3.398,3.801,6.595,6.614,9.408c1.73,1.73,3.605,3.222,5.578,4.501c2.3,0.491,4.68,0.762,7.126,0.762
			C42.649,95.319,46.451,94.6,50,93.344z"/>
		<path fill="#AE519E" d="M35.96,83.895c3.773,4.239,8.581,7.516,14.04,9.449c5.459-1.933,10.267-5.21,14.04-9.449
			c-4.849-0.282-9.647-1.572-14.04-3.922C45.607,82.323,40.81,83.613,35.96,83.895z"/>
		<path fill="#AE519E" d="M61.33,72.66c-0.67,0-1.325-0.062-1.985-0.1c-0.44,0.494-0.859,1.001-1.333,1.475
			c-2.427,2.427-5.134,4.399-8.011,5.939c4.393,2.35,9.19,3.64,14.04,3.922c3.23-3.628,5.71-7.933,7.154-12.701
			C68.071,72.14,64.762,72.66,61.33,72.66z"/>
		<path fill="#AE519E" d="M72.559,59.345c-2.44,2.173-5.108,3.934-7.933,5.281c-1.348,2.825-3.109,5.494-5.282,7.933
			c0.661,0.038,1.315,0.1,1.985,0.1c3.432,0,6.741-0.519,9.864-1.466c0.946-3.123,1.466-6.432,1.466-9.864
			C72.66,60.66,72.598,60.005,72.559,59.345z"/>
		<path fill="#AE519E" d="M67.191,57.121c-0.549,2.575-1.413,5.09-2.565,7.505c2.825-1.348,5.494-3.109,7.933-5.281
			c-0.189-3.261-0.831-6.394-1.875-9.344C69.791,52.523,68.623,54.912,67.191,57.121z"/>
		<path fill="#AE519E" d="M67.191,57.121c1.432-2.209,2.6-4.598,3.493-7.121c-0.893-2.523-2.061-4.911-3.493-7.121
			C68.192,47.573,68.192,52.428,67.191,57.121z"/>
	</g>
	<g>
		<path fill="#C0CA30" d="M50,6.656c5.459,1.933,10.267,5.21,14.04,9.449c5.665-0.329,11.382,0.753,16.609,3.246
			c-1.621-3.398-3.801-6.595-6.614-9.408c-1.73-1.73-3.604-3.222-5.578-4.501c-2.3-0.491-4.681-0.762-7.127-0.762
			C57.351,4.681,53.549,5.4,50,6.656z"/>
		<path fill="#C0CA30" d="M64.04,16.105C60.267,11.867,55.459,8.589,50,6.656c-5.459,1.933-10.267,5.21-14.04,9.449
			c4.849,0.282,9.647,1.572,14.04,3.922C54.393,17.677,59.19,16.387,64.04,16.105z"/>
		<path fill="#C0CA30" d="M38.67,27.34c0.67,0,1.325,0.062,1.985,0.1c0.44-0.494,0.859-1.001,1.333-1.475
			c2.427-2.427,5.134-4.399,8.011-5.939c-4.393-2.35-9.19-3.64-14.04-3.922c-3.23,3.628-5.71,7.933-7.154,12.701
			C31.929,27.86,35.238,27.34,38.67,27.34z"/>
		<path fill="#C0CA30" d="M40.656,27.441c-0.661-0.038-1.315-0.1-1.985-0.1c-3.432,0-6.741,0.519-9.864,1.466
			c-0.946,3.123-1.466,6.432-1.466,9.864c0,0.67,0.062,1.325,0.1,1.985c2.44-2.173,5.108-3.934,7.933-5.282
			C36.722,32.549,38.483,29.88,40.656,27.441z"/>
		<path fill="#C0CA30" d="M32.809,42.879c0.549-2.575,1.412-5.09,2.565-7.505c-2.825,1.348-5.494,3.109-7.933,5.282
			c0.189,3.261,0.831,6.394,1.875,9.344C30.209,47.477,31.377,45.088,32.809,42.879z"/>
		<path fill="#C0CA30" d="M32.809,42.879c-1.432,2.209-2.6,4.598-3.493,7.121c0.893,2.523,2.061,4.912,3.493,7.121
			C31.808,52.428,31.808,47.573,32.809,42.879z"/>
	</g>
</g>
<g id="guide">
	<g>
		<circle fill="none" stroke="#97D8E5" stroke-width="0.5" stroke-miterlimit="10" cx="50" cy="33.981" r="33.981"/>
		<circle fill="none" stroke="#97D8E5" stroke-width="0.5" stroke-miterlimit="10" cx="66.019" cy="50" r="33.981"/>
		<circle fill="none" stroke="#97D8E5" stroke-width="0.5" stroke-miterlimit="10" cx="50" cy="66.019" r="33.981"/>
		<circle fill="none" stroke="#97D8E5" stroke-width="0.5" stroke-miterlimit="10" cx="33.981" cy="50" r="33.981"/>
		<circle fill="none" stroke="#97D8E5" stroke-width="0.5" stroke-miterlimit="10" cx="61.327" cy="38.673" r="33.981"/>
		<circle fill="none" stroke="#97D8E5" stroke-width="0.5" stroke-miterlimit="10" cx="61.327" cy="61.327" r="33.981"/>
		<circle fill="none" stroke="#97D8E5" stroke-width="0.5" stroke-miterlimit="10" cx="38.673" cy="61.327" r="33.981"/>
		<circle fill="none" stroke="#97D8E5" stroke-width="0.5" stroke-miterlimit="10" cx="38.673" cy="38.673" r="33.981"/>
	</g>
</g>
</svg>
