<svg id="Layer_1" data-name="Layer 1" xmlns="http://www.w3.org/2000/svg" xmlns:xlink="http://www.w3.org/1999/xlink" viewBox="0 0 523.6 370.17"><defs><style>.cls-1{fill:#f80000}.cls-2,.cls-7{fill:#fff}.cls-2{stroke:#fff;stroke-width:.75px}.cls-3{fill:url(#linear-gradient)}.cls-4{fill:#926ead}.cls-5{fill:url(#linear-gradient-2)}.cls-6{fill:#e2a54e}.cls-8{fill:#30c3ba}.cls-9{fill:url(#linear-gradient-3)}.cls-10{fill:url(#linear-gradient-4)}.cls-11{fill:#1b75bb}.cls-12{fill:url(#linear-gradient-5)}.cls-13{fill:#aa4042}.cls-14{fill:#d41f06}.cls-15{fill:url(#linear-gradient-6)}.cls-16{fill:url(#linear-gradient-7)}.cls-17{fill:#8cc84b}.cls-18{fill:url(#linear-gradient-8)}.cls-19{fill:#0a3724}.cls-20{fill:url(#linear-gradient-9)}.cls-21{fill:#6f81b9}.cls-22{fill:#777}.cls-23{fill:url(#linear-gradient-10)}.cls-24{fill:url(#linear-gradient-11)}.cls-25{fill:#3882be}.cls-26{fill:url(#linear-gradient-12)}.cls-27{fill:#ff3b00}.cls-28{fill:url(#linear-gradient-13)}.cls-29{fill:#c82334}</style><linearGradient id="linear-gradient" x1="425.29" y1="183.39" x2="425.29" y2="93.39" gradientUnits="userSpaceOnUse"><stop offset="0" stop-color="#654182"/><stop offset="1" stop-color="#80579e"/></linearGradient><linearGradient id="linear-gradient-2" x1="317.89" y1="183.39" x2="317.89" y2="93.39" xlink:href="#linear-gradient"/><linearGradient id="linear-gradient-3" x1="261.8" y1="276.78" x2="261.8" y2="186.78" xlink:href="#linear-gradient"/><linearGradient id="linear-gradient-4" x1="370.2" y1="276.78" x2="370.2" y2="186.78" xlink:href="#linear-gradient"/><linearGradient id="linear-gradient-5" x1="210.48" y1="370.17" x2="210.48" y2="280.17" xlink:href="#linear-gradient"/><linearGradient id="linear-gradient-6" x1="317.89" y1="370.17" x2="317.89" y2="280.17" xlink:href="#linear-gradient"/><linearGradient id="linear-gradient-7" x1="370.2" y1="90" x2="370.2" y2="0" xlink:href="#linear-gradient"/><linearGradient id="linear-gradient-8" x1="478.6" y1="276.78" x2="478.6" y2="186.78" xlink:href="#linear-gradient"/><linearGradient id="linear-gradient-9" x1="210.48" y1="183.39" x2="210.48" y2="93.39" xlink:href="#linear-gradient"/><linearGradient id="linear-gradient-10" x1="153.4" y1="276.78" x2="153.4" y2="186.78" xlink:href="#linear-gradient"/><linearGradient id="linear-gradient-11" x1="103.08" y1="183.39" x2="103.08" y2="93.39" xlink:href="#linear-gradient"/><linearGradient id="linear-gradient-12" x1="103.08" y1="370.17" x2="103.08" y2="280.17" xlink:href="#linear-gradient"/><linearGradient id="linear-gradient-13" x1="45" y1="280.61" x2="45" y2="190.61" xlink:href="#linear-gradient"/></defs><title>Artboard 1</title><path class="cls-1" d="M453.57,166.67a40,40,0,0,0,0-56.56,40,40,0,0,0-68.28,28.28,40,40,0,0,0,68.28,28.28Z"/><path class="cls-2" d="M417.42,152s-2.29,1.33,1.63,1.78a34.35,34.35,0,0,0,12.42-.53,21.58,21.58,0,0,0,3.3,1.61c-11.75,5-26.58-.29-17.36-2.87M416,145.42s-2.57,1.9,1.36,2.31a48.48,48.48,0,0,0,16-.77,7.11,7.11,0,0,0,2.47,1.51c-14.2,4.15-30,.33-19.86-3m12.1-11.14c2.89,3.33-.76,6.33-.76,6.33s7.35-3.79,4-8.54c-3.15-4.43-5.57-6.63,7.52-14.22,0,0-20.54,5.13-10.73,16.43m15.53,22.57s1.7,1.4-1.87,2.48c-6.78,2.05-28.22,2.67-34.17.08-2.14-.93,1.87-2.22,3.14-2.49a8.14,8.14,0,0,1,2.07-.23c-2.38-1.68-15.39,3.29-6.61,4.72,23.95,3.88,43.65-1.75,37.44-4.55m-25.1-18.23s-10.91,2.59-3.86,3.53a81.86,81.86,0,0,0,14.42-.15c4.51-.38,9-1.19,9-1.19a19.07,19.07,0,0,0-2.74,1.47c-11.07,2.91-32.47,1.56-26.31-1.42a20.64,20.64,0,0,1,9.44-2.23m19.56,10.93c11.26-5.85,6.05-11.47,2.42-10.71a8.5,8.5,0,0,0-1.29.35,2.05,2.05,0,0,1,1-.74c7.19-2.53,12.71,7.45-2.32,11.4a.94.94,0,0,0,.23-.29m-6.79-44s6.23,6.24-5.91,15.83c-9.74,7.69-2.22,12.08,0,17.09-5.69-5.13-9.86-9.65-7.06-13.85,4.11-6.17,15.49-9.16,13-19.07m-11.67,59.81c10.81.69,27.4-.38,27.79-5.5,0,0-.76,1.94-8.93,3.48a88.79,88.79,0,0,1-27.34.42s1.38,1.14,8.48,1.6"/><path class="cls-3" d="M425.29,93.39a45,45,0,1,0,45,45A45,45,0,0,0,425.29,93.39Zm0,85a40,40,0,1,1,40-40A40,40,0,0,1,425.29,178.39Z"/><path class="cls-4" d="M425.29,179.39a40,40,0,0,0,40-40c0-.17,0-.33,0-.5a40,40,0,0,1-80,0c0,.17,0,.33,0,.5A40,40,0,0,0,425.29,179.39Z"/><path class="cls-4" d="M425.29,94.39a45,45,0,0,1,45,44.5c0-.17,0-.33,0-.5a45,45,0,0,0-90,0c0,.17,0,.33,0,.5A45,45,0,0,1,425.29,94.39Z"/><path class="cls-5" d="M317.89,93.39a45,45,0,1,0,45,45A45,45,0,0,0,317.89,93.39Zm0,85a40,40,0,1,1,40-40A40,40,0,0,1,317.89,178.39Z"/><path class="cls-6" d="M346.16,166.67a40,40,0,0,0,0-56.56,40,40,0,0,0-68.28,28.28,40,40,0,0,0,68.28,28.28Z"/><path class="cls-7" d="M294.84,124.76a14.44,14.44,0,0,1,10.68-4.21q8.67,0,12.68,5.64a12.15,12.15,0,0,1,2.38,6.36h-7.26a9.64,9.64,0,0,0-1.78-3.7,7.22,7.22,0,0,0-5.75-2.22,7.13,7.13,0,0,0-6.12,3.13q-2.24,3.13-2.24,8.87t2.36,8.59a7.46,7.46,0,0,0,6,2.85,6.85,6.85,0,0,0,5.69-2.45,10.67,10.67,0,0,0,1.8-4h7.21a15.26,15.26,0,0,1-4.77,9.06,14,14,0,0,1-9.83,3.49q-7.41,0-11.66-4.72t-4.24-13Q290,129.6,294.84,124.76Zm39.85,13.63h-4.2v-4.2h-2.8v4.2h-4.2v2.8h4.2v4.2h2.8v-4.2h4.2Zm14,0h-4.2v-4.2h-2.8v4.2h-4.2v2.8h4.2v4.2h2.8v-4.2h4.2Z"/><path class="cls-4" d="M317.89,179.39a40,40,0,0,0,40-40c0-.17,0-.33,0-.5a40,40,0,0,1-80,0c0,.17,0,.33,0,.5A40,40,0,0,0,317.89,179.39Z"/><path class="cls-4" d="M317.89,94.39a45,45,0,0,1,45,44.5c0-.17,0-.33,0-.5a45,45,0,0,0-90,0c0,.17,0,.33,0,.5A45,45,0,0,1,317.89,94.39Z"/><path class="cls-8" d="M290.08,260.06a40,40,0,1,0-28.28,11.72A38.75,38.75,0,0,0,290.08,260.06Z"/><path class="cls-7" d="M277.51,217a15.6,15.6,0,0,0-4.59-2.35l-1.25-3.6-6.66-6.6c-1.69-1.34-2.84-1.47-4.22-1.14l-.2,0-16.4,11.77-9.86,16.28c-.22.76-.27,2.13,1.29,3.69l5.8,5.91,2.63,1,0,.15.06.25.08.34.15.55h0c.72,2.22,2.17,4.89,3.48,5.93l8.67,8.64,20.38-.12,2.45-7.75,7.36-2.4,0-21.16Zm-16-11.59a2.33,2.33,0,0,1,.51-.08c.14,0,.57,0,1.56.77l6.21,6.16.64,1.84H248.6Zm-15.36,35.77,0-23.29,7.29,7.38,23.29,23.33-5,2.29-25.48-9.32Zm29.16,14.33-17.86.11-8.11-8.07a10.25,10.25,0,0,1-2.18-3.27l24.62,9,4.93-2.19Zm9.23-9.55-4.06,1.32,2.11-4.87-8.69-25a10.93,10.93,0,0,1,2.15,1.23l8.5,8.68Z"/><path class="cls-9" d="M261.8,186.78a45,45,0,1,0,45,45A45,45,0,0,0,261.8,186.78Zm0,85a40,40,0,1,1,40-40A40,40,0,0,1,261.8,271.78Z"/><path class="cls-4" d="M261.8,272.78a40,40,0,0,0,40-40c0-.17,0-.33,0-.5a40,40,0,0,1-80,0c0,.17,0,.33,0,.5A40,40,0,0,0,261.8,272.78Z"/><path class="cls-4" d="M261.8,187.78a45,45,0,0,1,45,44.5c0-.17,0-.33,0-.5a45,45,0,0,0-90,0c0,.17,0,.33,0,.5A45,45,0,0,1,261.8,187.78Z"/><path class="cls-10" d="M370.2,186.78a45,45,0,1,0,45,45A45,45,0,0,0,370.2,186.78Zm0,85a40,40,0,1,1,40-40A40,40,0,0,1,370.2,271.78Z"/><path class="cls-4" d="M370.2,272.78a40,40,0,0,0,40-40c0-.17,0-.33,0-.5a40,40,0,0,1-80,0c0,.17,0,.33,0,.5A40,40,0,0,0,370.2,272.78Z"/><path class="cls-4" d="M370.2,187.78a45,45,0,0,1,45,44.5c0-.17,0-.33,0-.5a45,45,0,1,0-90,0c0,.17,0,.33,0,.5A45,45,0,0,1,370.2,187.78Z"/><circle class="cls-11" cx="370.2" cy="231.78" r="40"/><path class="cls-7" d="M395.62,243c-7.69,8.41-21.84,9.32-33,1.68-11.54-7.88-15.76-22-10-32.33a21.76,21.76,0,0,0-3.25,3.76c-7.51,11-3.67,26.7,8.58,35.06s28.27,6.21,35.78-4.79A22,22,0,0,0,395.62,243Z"/><path class="cls-7" d="M397.53,229l-.34.48c-5,6.8-15.71,7.75-24.29,2-8.79-5.85-12-16.45-7.19-23.69A13.15,13.15,0,0,1,368,205.2c-.41.34-.81.7-1.19,1.08a19.52,19.52,0,0,0,2.87,30.16,19.36,19.36,0,0,0,26.9-5.54A13.25,13.25,0,0,0,397.53,229Z"/><path class="cls-7" d="M379.18,223.08c5.06,3.46,11.62,2.84,15.42-1.2a10.73,10.73,0,0,0,1-1.28,10.56,10.56,0,0,0,1.19-2.32,7.72,7.72,0,0,1-.46.76,8,8,0,0,1-2.15,2.12c-3.45,2.32-8.73,2.11-13.1-.87-4.85-3.31-6.93-8.91-5.18-13.19a8,8,0,0,1,.78-1.46,7.89,7.89,0,0,1,.79-1,10.55,10.55,0,0,0-2,2.2l-.07.1C372,212.12,373.66,219.31,379.18,223.08Z"/><path class="cls-12" d="M210.48,280.17a45,45,0,1,0,45,45A45,45,0,0,0,210.48,280.17Zm0,85a40,40,0,1,1,40-40A40,40,0,0,1,210.48,365.17Z"/><path class="cls-4" d="M210.48,366.17a40,40,0,0,0,40-40c0-.17,0-.33,0-.5a40,40,0,0,1-80,0c0,.17,0,.33,0,.5A40,40,0,0,0,210.48,366.17Z"/><path class="cls-4" d="M210.48,281.17a45,45,0,0,1,45,44.5c0-.17,0-.33,0-.5a45,45,0,1,0-90,0c0,.17,0,.33,0,.5A45,45,0,0,1,210.48,281.17Z"/><circle class="cls-13" cx="210.48" cy="325.17" r="40"/><path class="cls-7" d="M220.41,301.17a.87.87,0,0,0-.45.08c-.08.09,0,.51.16.93.28.68.4.77,1.17.84l1.11.11a.41.41,0,0,0,.38-.17,1.58,1.58,0,0,0-.1-.9c-.21-.65-.3-.7-1.39-.83A6.94,6.94,0,0,0,220.41,301.17Zm-8.47,1.58a4.21,4.21,0,0,0-2,1.14c-.14.37,1.28,2.16,1.71,2.16a3.45,3.45,0,0,0,1.12-.55c.45-.3.83-.65.83-.78A4.58,4.58,0,0,0,211.94,302.75Zm19.41,1.45c-.5,0-.06.79.71,1.27.93.58,1.39.71,1.39.39A7,7,0,0,0,231.35,304.2Zm-9.32.07a16.73,16.73,0,0,0-2.54.33,22.83,22.83,0,0,0-6.38,2c-3.81,2.49-7.1,6.16-10.1,11.27-4.27,7.28-6.62,15.77-7.39,26.7l-.13,1.88.08,0h10.68c5.92,0,10.81,0,10.86-.1a17,17,0,0,0-.78-2.74,49.17,49.17,0,0,1-2.59-14.09,27.72,27.72,0,0,1,4.06-14.52c1.34-2,3.41-4,4.1-4.05a3.61,3.61,0,0,0,1.4-.62,10.6,10.6,0,0,1,2.36-1.06,12.93,12.93,0,0,1,8.81,1.12c1.08.51,1.36.57,1.5.34.37-.59.15-1-1-2a19,19,0,0,0-10.84-4.38c-.73-.07-1.27-.12-1.76-.12Zm-19.46,5.85c-.46.09-2,2.08-1.74,2.32a10,10,0,0,0,2.61,1.55,6.82,6.82,0,0,0,.79-1,4.64,4.64,0,0,0,.62-1.09,10.16,10.16,0,0,0-2.2-1.75Zm28.72.35a.56.56,0,0,0-.38.1.56.56,0,0,0-.08.55c.17.44,1.69.36,1.69-.09C232.52,310.74,231.78,310.46,231.28,310.46Zm-6.16.21-.32.05c-.75.18-1.3.46-1.3.67a1.33,1.33,0,0,0,.42.54,1.21,1.21,0,0,1,.41.65c0,.34.16.35,1,.05s.76-.34.35-1.34C225.48,310.82,225.38,310.66,225.12,310.67Zm-5.29,4.05c-.26,0-.89.69-.89,1a4.59,4.59,0,0,0,1.27,1.93c.1,0,.32-.23.51-.51.32-.49.31-.56-.21-1.45A3.42,3.42,0,0,0,219.83,314.72Zm-24.39,6.81c-.28,0-1.17,2.14-1.17,2.81a7.47,7.47,0,0,0,2.92,1.3c.23,0,.47-.39.79-1.36.37-1.12.4-1.42.18-1.62A9.5,9.5,0,0,0,195.44,321.53Zm20.95.08-.15.13a1.29,1.29,0,0,0-.2.55,2,2,0,0,1-.12.56c-.08.21.19.61.78,1.15,1,.93,1.11,1,1.29.51.31-.82.11-1.46-.71-2.26-.43-.42-.66-.61-.82-.63Zm-1.09,8c-.23,0-.3.17-.3.53,0,1.16.21,1.45,1.41,2,1.58.7,1.71.69,1.57-.12-.19-1.1-.23-1.15-1.37-1.8A3.91,3.91,0,0,0,215.3,329.62Zm-24,5.95c-.35,0-1.31,3.11-1.12,3.62.1.27.88.4,2.85.47l1,0,.38-1.66a4,4,0,0,0,.19-1.82A14.85,14.85,0,0,0,191.32,335.57Zm25.5,4.19-.12,0a3,3,0,0,0,.23,1.25c.3.95.44,1.13.92,1.2a13.48,13.48,0,0,0,2.95.06,4.41,4.41,0,0,0-1.18-2A14.49,14.49,0,0,0,216.82,339.75Z"/><path class="cls-14" d="M346.16,353.45a40,40,0,1,0-28.28,11.72A38.75,38.75,0,0,0,346.16,353.45Z"/><path class="cls-7" d="M338,345.28l.05,0,0-.25,2.72-35.6,0,.06c.11-3.87-1.25-7.58-5.83-9.1,2.42.95,2.8,2.82,3.45,5.57l-12.61-1.95,12.42,10.16-.68,1.24-15.57,1,4.73,18.75.05-.05v0l.48.42,8.39,8.7H314.16c.46-.23.91-.48,1.36-.73l0,0A46.69,46.69,0,0,0,325.72,336l.84-.77-18.44-5.93h0l13.76-12.78,3.91-12.42-.08-.06h-.08L333,300h0l-13.25-.06-.18-.13-10.47,3.92c-3.3,3.07-9.7,9.14-9.93,9.25s-3.54,6.38-5.58,10.23l-.18.34-.38.71.05.14c-.45,1.42-.89,4-.89,8.84a41.56,41.56,0,0,0,.44,5.86,13.7,13.7,0,0,0,.46,2.63c.17.8.29,1.27.29,1.27l.13-.07c2,4.6,6.55,4.81,8.89,4.87l0,0L338,345.36v0h0Zm-42.14-13.15h0v0l-1.73,3.17a40.36,40.36,0,0,1-.51-9.63l2.26,6.42Zm6.74,15.47-.06.05-.84-2c-2.1-5.22-5.29-13.09-5.79-13.52v0L308,329.42l.1-.1h0Zm34.81-6.7-2.2-16.39,3.75-7.61Z"/><path class="cls-15" d="M317.89,280.17a45,45,0,1,0,45,45A45,45,0,0,0,317.89,280.17Zm0,85a40,40,0,1,1,40-40A40,40,0,0,1,317.89,365.17Z"/><path class="cls-4" d="M317.89,366.17a40,40,0,0,0,40-40c0-.17,0-.33,0-.5a40,40,0,0,1-80,0c0,.17,0,.33,0,.5A40,40,0,0,0,317.89,366.17Z"/><path class="cls-4" d="M317.89,281.17a45,45,0,0,1,45,44.5c0-.17,0-.33,0-.5a45,45,0,0,0-90,0c0,.17,0,.33,0,.5A45,45,0,0,1,317.89,281.17Z"/><path class="cls-16" d="M370.2,0a45,45,0,1,0,45,45A45,45,0,0,0,370.2,0Zm0,85a40,40,0,1,1,40-40A40,40,0,0,1,370.2,85Z"/><path class="cls-4" d="M370.2,86a40,40,0,0,0,40-40c0-.17,0-.33,0-.5a40,40,0,0,1-80,0c0,.17,0,.33,0,.5A40,40,0,0,0,370.2,86Z"/><path class="cls-4" d="M370.2,1a45,45,0,0,1,45,44.5c0-.17,0-.33,0-.5a45,45,0,0,0-90,0c0,.17,0,.33,0,.5A45,45,0,0,1,370.2,1Z"/><path class="cls-17" d="M398.48,73.28A38.75,38.75,0,0,0,410.2,45a38.75,38.75,0,0,0-11.72-28.28,40,40,0,0,0-56.56,0A38.75,38.75,0,0,0,330.2,45a38.75,38.75,0,0,0,11.72,28.28,40,40,0,0,0,56.56,0Z"/><path class="cls-7" d="M370.19,74.32a4.52,4.52,0,0,1-2.25-.6l-7.17-4.25c-1.07-.6-.55-.81-.19-.93a14.42,14.42,0,0,0,3.24-1.48.55.55,0,0,1,.53,0l5.51,3.27a.7.7,0,0,0,.67,0L392,58a.68.68,0,0,0,.33-.58V32.59A.69.69,0,0,0,392,32L370.53,19.61a.67.67,0,0,0-.66,0L348.39,32a.69.69,0,0,0-.34.59v24.8a.65.65,0,0,0,.34.57l5.89,3.4c3.19,1.59,5.15-.29,5.15-2.17V34.71a.62.62,0,0,1,.62-.62h2.72a.62.62,0,0,1,.62.62V59.19c0,4.26-2.32,6.71-6.36,6.71-1.24,0-2.22,0-4.95-1.34l-5.63-3.25a4.54,4.54,0,0,1-2.25-3.92V32.59a4.53,4.53,0,0,1,2.25-3.92l21.49-12.42a4.71,4.71,0,0,1,4.52,0l21.48,12.42a4.54,4.54,0,0,1,2.26,3.92v24.8a4.54,4.54,0,0,1-2.26,3.92L372.45,73.71a4.51,4.51,0,0,1-2.26.6Zm6.64-17.08c-9.4,0-11.37-4.32-11.37-7.93a.62.62,0,0,1,.62-.62h2.78a.63.63,0,0,1,.62.53c.42,2.83,1.67,4.26,7.36,4.26,4.53,0,6.45-1,6.45-3.43,0-1.38-.55-2.41-7.58-3.1-5.88-.58-9.51-1.88-9.51-6.58,0-4.33,3.65-6.92,9.78-6.92,6.88,0,10.29,2.39,10.72,7.51a.62.62,0,0,1-.62.68h-2.79a.62.62,0,0,1-.6-.49c-.67-3-2.3-3.93-6.71-3.93-4.94,0-5.52,1.72-5.52,3,0,1.56.68,2,7.35,2.9s9.74,2.11,9.74,6.75S383.64,57.23,376.83,57.23Z"/><path class="cls-18" d="M478.6,186.78a45,45,0,1,0,45,45A45,45,0,0,0,478.6,186.78Zm0,85a40,40,0,1,1,40-40A40,40,0,0,1,478.6,271.78Z"/><path class="cls-4" d="M478.6,272.78a40,40,0,0,0,40-40c0-.17,0-.33,0-.5a40,40,0,0,1-80,0c0,.17,0,.33,0,.5A40,40,0,0,0,478.6,272.78Z"/><path class="cls-4" d="M478.6,187.78a45,45,0,0,1,45,44.5c0-.17,0-.33,0-.5a45,45,0,1,0-90,0c0,.17,0,.33,0,.5A45,45,0,0,1,478.6,187.78Z"/><circle class="cls-19" cx="478.6" cy="231.78" r="40"/><path class="cls-7" d="M481.88,208.45h-8.32l-.16,13.85a13.66,13.66,0,0,0-3.75-.45c-9,0-14.83,5.75-14.83,14.6,0,9.19,5.48,14,16,14a55.26,55.26,0,0,0,11.06-1.18Zm-8.48,34.76a19.89,19.89,0,0,1-3,.23c-4.42,0-6.83-2.54-6.83-7.16s2.52-7.44,6.88-7.44a8.48,8.48,0,0,1,2.91.45Zm12.52-4.79c0,7.38-.38,10.19-1.59,12.61s-3,3.91-6.67,5.67l7.82,3.74c3.72-1.87,5.52-3.58,6.89-6.28s2-6.06,2-12.83l0-20.54H486Zm.11-30v8.32h8.32v-8.32Z"/><path class="cls-20" d="M210.48,93.39a45,45,0,1,0,45,45A45,45,0,0,0,210.48,93.39Zm0,85a40,40,0,1,1,40-40A40,40,0,0,1,210.48,178.39Z"/><path class="cls-4" d="M210.48,179.39a40,40,0,0,0,40-40c0-.17,0-.33,0-.5a40,40,0,0,1-80,0c0,.17,0,.33,0,.5A40,40,0,0,0,210.48,179.39Z"/><path class="cls-4" d="M210.48,94.39a45,45,0,0,1,45,44.5c0-.17,0-.33,0-.5a45,45,0,0,0-90,0c0,.17,0,.33,0,.5A45,45,0,0,1,210.48,94.39Z"/><circle class="cls-21" cx="210.48" cy="138.39" r="40"/><path class="cls-7" d="M195.88,130H185.6l-4.45,22.52h5.28l1.11-5.84h5c4.73.28,10-3.61,10-10.29C202.56,132.55,200.33,130.33,195.88,130ZM192,142.56h-3.34l1.39-8.34h3.61c1.95,0,3.34.83,3.34,2.5C196.72,141.45,194.49,142.28,192,142.56Z"/><path class="cls-7" d="M201.5,146.73,206,124.21h5.28L210.12,130h5c4.45.28,6.12,2.5,5.56,5.28l-1.95,11.4h-5.56l1.95-10.29c.28-1.39.28-2.22-1.67-2.22h-4.17l-2.5,12.51Z"/><path class="cls-7" d="M233.14,130H222.85l-4.45,22.52h5.28l1.11-5.84h5c4.73.28,10-3.61,10-10.29C239.81,132.55,237.59,130.33,233.14,130Zm-3.89,12.51h-3.34l1.39-8.34h3.61c1.95,0,3.34.83,3.34,2.5C234,141.45,231.75,142.28,229.25,142.56Z"/><path class="cls-22" d="M181.68,260.06a40,40,0,0,0-28.28-68.28,40,40,0,0,0-28.28,68.28,40,40,0,0,0,56.56,0Z"/><path class="cls-7" d="M148.85,222a13.05,13.05,0,0,0-4.2-4.18,12.22,12.22,0,0,0-6.59-1.64,13.53,13.53,0,0,0-5.61,1.15A13.17,13.17,0,0,0,128,220.6a14.87,14.87,0,0,0-2.91,4.89,17.93,17.93,0,0,0-1,6.22,23.79,23.79,0,0,0,1,6.28,13.69,13.69,0,0,0,2.68,5,12.19,12.19,0,0,0,4.41,3.23,15.29,15.29,0,0,0,6.19,1.15,13.51,13.51,0,0,0,8.41-2.53,10.83,10.83,0,0,0,4.32-7.1h-4.84a5.93,5.93,0,0,1-2.62,3.93,8.47,8.47,0,0,1-5.1,1.44,10.12,10.12,0,0,1-4.2-.81,8.23,8.23,0,0,1-2.94-2.16,8.42,8.42,0,0,1-1.67-3.11,13.78,13.78,0,0,1-.46-4h22.29a21.42,21.42,0,0,0-.49-5.4A16.49,16.49,0,0,0,148.85,222ZM129.24,229a10.18,10.18,0,0,1,.75-3.25,8.64,8.64,0,0,1,1.73-2.68,7.93,7.93,0,0,1,2.62-1.81,8.53,8.53,0,0,1,3.43-.66,8.38,8.38,0,0,1,3.37.66,8.49,8.49,0,0,1,2.65,1.79,8.37,8.37,0,0,1,1.79,2.68,10,10,0,0,1,.78,3.28Zm41.47,1.61,10.69-14.3h-6.13l-7.75,10.87-7.45-10.87h-6.55L164.35,231l-11.65,16.34h6.19l8.65-12.86,8.65,12.86h6.55Z"/><path class="cls-23" d="M153.4,186.78a45,45,0,1,0,45,45A45,45,0,0,0,153.4,186.78Zm0,85a40,40,0,1,1,40-40A40,40,0,0,1,153.4,271.78Z"/><path class="cls-4" d="M153.4,272.78a40,40,0,0,0,40-40c0-.17,0-.33,0-.5a40,40,0,0,1-80,0c0,.17,0,.33,0,.5A40,40,0,0,0,153.4,272.78Z"/><path class="cls-4" d="M153.4,187.78a45,45,0,0,1,45,44.5c0-.17,0-.33,0-.5a45,45,0,0,0-90,0c0,.17,0,.33,0,.5A45,45,0,0,1,153.4,187.78Z"/><path class="cls-24" d="M103.08,93.39a45,45,0,1,0,45,45A45,45,0,0,0,103.08,93.39Zm0,85a40,40,0,1,1,40-40A40,40,0,0,1,103.08,178.39Z"/><path class="cls-4" d="M103.08,179.39a40,40,0,0,0,40-40c0-.17,0-.33,0-.5a40,40,0,0,1-80,0c0,.17,0,.33,0,.5A40,40,0,0,0,103.08,179.39Z"/><path class="cls-4" d="M103.08,94.39a45,45,0,0,1,45,44.5c0-.17,0-.33,0-.5a45,45,0,0,0-90,0c0,.17,0,.33,0,.5A45,45,0,0,1,103.08,94.39Z"/><circle class="cls-25" cx="103.08" cy="138.39" r="40"/><path class="cls-7" d="M108.5,134.66a5.43,5.43,0,0,0,5.43-5.43V120.3s0-3.64-1.81-5.43-7.24-1.81-7.24-1.81h-9s-3.64.93-5.43,3.62-1.81,7.24-1.81,7.24h13.57a.91.91,0,1,1,0,1.81H86.79s-9-.11-9,12.67L85,151.06v-7.35a9,9,0,0,1,9-9ZM94.42,121.09a2.21,2.21,0,1,1,2.21-2.21A2.21,2.21,0,0,1,94.42,121.09Zm26.75,4.64V133a9,9,0,0,1-9,9H97.65a5.43,5.43,0,0,0-5.43,5.43v9s0,3.64,1.81,5.43,5.43,1.81,5.43,1.81h10.86s3.64-.93,5.43-3.62,1.81-7.24,1.81-7.24H104a.91.91,0,0,1,0-1.81h15.38s9,.11,9-12.67Zm-9.44,30a2.21,2.21,0,1,1-2.21,2.21A2.21,2.21,0,0,1,111.73,155.69Z"/><path class="cls-26" d="M103.08,280.17a45,45,0,1,0,45,45A45,45,0,0,0,103.08,280.17Zm0,85a40,40,0,1,1,40-40A40,40,0,0,1,103.08,365.17Z"/><path class="cls-4" d="M103.08,366.17a40,40,0,0,0,40-40c0-.17,0-.33,0-.5a40,40,0,0,1-80,0c0,.17,0,.33,0,.5A40,40,0,0,0,103.08,366.17Z"/><path class="cls-4" d="M103.08,281.17a45,45,0,0,1,45,44.5c0-.17,0-.33,0-.5a45,45,0,0,0-90,0c0,.17,0,.33,0,.5A45,45,0,0,1,103.08,281.17Z"/><circle class="cls-27" cx="103.08" cy="325.17" r="40"/><path class="cls-7" d="M114.05,317.45c.14,3.83-3.62,6.15-6.7,2.45-2.9-3.48.61-8.21,1-12.12.47-4.9-2.91-9.1-6.44-11.94,1.94,3.39-.62,7.88-2.66,10.39s-4.39,4.46-6.58,6.67a57.83,57.83,0,0,0-6.54,7.66c-3.87,5.57-6.23,12.58-4.49,19.54a17.24,17.24,0,0,0,8.77,11.08c2.77,1.82,1.51-.59,1-1.19a9.9,9.9,0,0,1-2.35-6.05c0-4.2,2.46-7.77,5.52-10.11-.37,1.51-.57,2.88.34,4.23a3.56,3.56,0,0,0,3.74,1.53c3.28-.77,3.43-4.67,1.49-6.94s-3.78-4.79-3-8a8.49,8.49,0,0,1,2.47-4.26c-.9,2.57,1.67,5.1,3.36,6.36,2.94,2.19,6.16,3.84,8.86,6.41s4.93,6.34,4.51,10.57a10.64,10.64,0,0,1-3.91,7.13c-.55.39-.28.77.7.72,6.36-2.94,11.87-8.84,12-16.64S120.25,320.92,114.05,317.45Z"/><path class="cls-28" d="M45,190.61a45,45,0,1,0,45,45A45,45,0,0,0,45,190.61Zm0,85a40,40,0,1,1,40-40A40,40,0,0,1,45,275.61Z"/><path class="cls-4" d="M45,276.61a40,40,0,0,0,40-40c0-.17,0-.33,0-.5a40,40,0,0,1-80,0c0,.17,0,.33,0,.5A40,40,0,0,0,45,276.61Z"/><path class="cls-4" d="M45,191.61a45,45,0,0,1,45,44.5c0-.17,0-.33,0-.5a45,45,0,0,0-90,0c0,.17,0,.33,0,.5A45,45,0,0,1,45,191.61Z"/><circle class="cls-29" cx="45" cy="235.61" r="40"/><path class="cls-7" d="M50.7,241.7v.94C51.1,242.76,50.8,242,50.7,241.7ZM45,214.28c-13.14,0-23.8,4.57-23.8,10.2l1.06,11.61c2.23,3,11.61,5.49,22.36,5.49l3.77,0v6.59H44.65c-10.33,0-19.16-5.08-22-8.9l1.82,11.06c1.5,5.63,9,9.28,20.51,9.28h5.66l0-6.79h0v-4.29l15.61,3.94L68.77,224C68.22,218.61,57.81,214.28,45,214.28Zm-22.29,10c3.54,9.42,23.16,7.15,23.16,7.15l2.48,3.26S25.85,235.32,22.73,224.27Zm40.21,22.31-12.25-3V241.7h0l0-6,12.79,2.68Zm1-11.07-14-3.09-7.07-9.56,21.57,5.18C64.24,230.26,64.07,232.37,63.89,235.52Z"/></svg>