<svg version="1.1" id="Layer_1" xmlns="http://www.w3.org/2000/svg" xmlns:xlink="http://www.w3.org/1999/xlink" x="0" y="0" viewBox="0 0 70 56" xml:space="preserve" enable-background="new 0 0 70 56"><style type="text/css">.st0{fill:#fff;stroke:#52306c;stroke-width:1.9048}.st0,.st1,.st2{stroke-linejoin:round}.st1{opacity:.12;enable-background:new;stroke:#000;stroke-width:1.3305}.st2{fill:#f3f3f3;stroke:#52306c;stroke-width:.9524}.st3{fill:#52306c}.st4{fill:none;stroke:#52306c;stroke-width:.9524;stroke-linecap:round;stroke-linejoin:round}</style><path class="st0" d="M33.8,8H13.1C12.4,8,12,8.4,12,9.1l0,0l0,0v38.2c0,0.4,0.4,0.7,0.7,0.7l0,0h30.6c0.4,0,0.7-0.3,0.7-0.7l0,0	V18.2L33.8,8z"/><path class="st1" d="M44,19.1h-9.2c-0.6,0-1.1-0.4-1.1-1.1l0,0l0,0V8.9L44,18.2V19.1L44,19.1z"/><path class="st2" d="M44,18.2h-9.2c-0.6,0-1.1-0.4-1.1-1.1l0,0l0,0V8L44,18.2z"/><circle class="st3" cx="23" cy="25.5" r="1"/><circle class="st3" cx="33" cy="25.5" r="1"/><path class="st4" d="M33,31.9c-2.8,2.8-7.2,2.8-9.9,0"/></svg>