<svg version="1.1" id="Layer_1" xmlns="http://www.w3.org/2000/svg" xmlns:xlink="http://www.w3.org/1999/xlink" x="0" y="0" viewBox="0 0 70 56" xml:space="preserve" enable-background="new 0 0 70 56"><style type="text/css">.st0{fill:#fff;stroke:#52306c;stroke-width:2.1429}.st0,.st1,.st2{stroke-linejoin:round}.st1{opacity:.12;enable-background:new;stroke:#000;stroke-width:1.4968}.st2{fill:#f3f3f3;stroke:#52306c;stroke-width:1.0714}.st3{fill:#52306c}.st4{fill:none;stroke:#52306c;stroke-width:1.0714;stroke-linecap:round;stroke-linejoin:round}</style><path class="st0" d="M34.5,5.5H11.2C10.5,5.5,10,6,10,6.7l0,0l0,0v43c0,0.4,0.4,0.8,0.8,0.8c0,0,0,0,0,0h34.4c0.4,0,0.8-0.3,0.8-0.8	c0,0,0,0,0,0V17L34.5,5.5z"/><path class="st1" d="M46,18H35.7c-0.7,0-1.2-0.5-1.2-1.2v0l0,0V6.5L46,17V18L46,18z"/><path class="st2" d="M46,17H35.7c-0.7,0-1.2-0.5-1.2-1.2v0l0,0V5.5L46,17z"/><circle class="st3" cx="22.4" cy="25.2" r="1.1"/><circle class="st3" cx="33.6" cy="25.2" r="1.1"/><path class="st4" d="M33.6,32.4c-3.1,3.1-8.1,3.1-11.1,0"/></svg>