<svg id="Layer_1" data-name="Layer 1" xmlns="http://www.w3.org/2000/svg" viewBox="0 0 54 54"><defs><style>.cls-1{fill:#8414f2;}.cls-2{fill:#fff;}</style></defs><title>icon-code-snippets</title><path class="cls-1" d="M54,27c0,21-6,27-27,27S0,48,0,27,6,0,27,0,54,6,54,27Z"/><path class="cls-2" d="M17,8a9,9,0,1,0,9,9A9,9,0,0,0,17,8Zm2.86,11.29a0.57,0.57,0,0,1-.57.57H14.71a0.57,0.57,0,0,1-.57-0.57V14.71a0.57,0.57,0,0,1,.57-0.57h4.58a0.57,0.57,0,0,1,.57.57v4.58Z"/><path class="cls-2" d="M37,8a9,9,0,1,0,9,9A9,9,0,0,0,37,8Zm0,12.58a3.27,3.27,0,1,1,3.27-3.27A3.27,3.27,0,0,1,37,20.58Z"/><path class="cls-2" d="M17,28a9,9,0,1,0,9,9A9,9,0,0,0,17,28Zm2.89,11.8H13.7a0.58,0.58,0,0,1-.5-0.88l1.54-2.59,1.56-2.63a0.58,0.58,0,0,1,1,0l1.56,2.63,1.54,2.59A0.58,0.58,0,0,1,19.89,39.8Z"/><path class="cls-2" d="M37,28a9,9,0,1,0,9,9A9,9,0,0,0,37,28Zm3.64,9.4L37.4,40.64a0.57,0.57,0,0,1-.81,0L33.36,37.4a0.57,0.57,0,0,1,0-.81l3.24-3.24a0.57,0.57,0,0,1,.81,0l3.24,3.24A0.57,0.57,0,0,1,40.64,37.4Z"/></svg>