<svg id="Layer_1" data-name="Layer 1" xmlns="http://www.w3.org/2000/svg" viewBox="0 0 54 54"><defs><style>.cls-1{fill:#8414f2;}.cls-2{fill:#fff;}</style></defs><title>icon-runnable</title><path class="cls-1" d="M118,89.75c0,21-6,27-27,27s-27-6-27-27,6-27,27-27S118,68.75,118,89.75Z" transform="translate(-64 -62.75)"/><path class="cls-2" d="M106,80.94c0-1.4-.15-1.94-1.62-1.94h0L79.68,77.4c-1.8-.07-3.68.8-3.68,2.4V100c0,1,1.51,2.64,3.24,2.64l24.67-1.31c1.4-.07,2.09-1.31,2.09-2.71V80.94ZM95.6,91.41l-4.07,3.87a1.41,1.41,0,0,1-2.07,0,1.33,1.33,0,0,1,0-2l3.07-2.87c0,0.33-3.07-2.6-3.07-2.6a1.34,1.34,0,0,1,0-2,1.53,1.53,0,0,1,2.07,0l4.07,3.8A1.12,1.12,0,0,1,95.6,91.41Z" transform="translate(-64 -62.75)"/></svg>