<?xml version="1.0" encoding="utf-8"?>
<!-- Generator: Adobe Illustrator 17.0.0, SVG Export Plug-In . SVG Version: 6.00 Build 0)  -->
<!DOCTYPE svg PUBLIC "-//W3C//DTD SVG 1.1//EN" "http://www.w3.org/Graphics/SVG/1.1/DTD/svg11.dtd">
<svg version="1.1" id="Layer_1" xmlns="http://www.w3.org/2000/svg" xmlns:xlink="http://www.w3.org/1999/xlink" x="0px" y="0px"
	 width="100px" height="100px" viewBox="0 0 100 100" enable-background="new 0 0 100 100" xml:space="preserve">
<path opacity="0.8" fill="#8B8A8A" enable-background="new    " d="M79.2999725,44.8178749L53.5847092,70.5302658
	c-0.944313,0.9471893-2.2513809,1.4999542-3.5929985,1.4999542c-1.3416138,0-2.6429253-0.5527649-3.5526924-1.4999542
	L20.723753,44.8178749c-0.944313-0.9097672-1.3906326-2.2181854-1.4970818-3.5555725
	c-0.1262436-1.5860634-0.2822247-6.8165321,0.6620903-7.7637253l30.1029491,20.4025574l30.1164818-20.4025574
	c0.9097595,0.9471931,0.8189545,6.0324097,0.6543198,7.7637253C80.6355057,42.5978966,80.2097397,43.9081078,79.2999725,44.8178749z
	"/>
<path fill="#D7D7D7" d="M79.2999725,39.5433731L53.5847092,65.2557602c-0.944313,0.947197-2.2513809,1.4999619-3.5929985,1.4999619
	c-1.3416138,0-2.6429253-0.5527649-3.5526924-1.4999619L20.723753,39.5433731
	c-0.944313-0.9097633-1.4970818-2.2139549-1.4970818-3.5555687c0-1.3416176,0.5527687-2.6458054,1.4970818-3.5929985
	l2.9250679-2.9624958c0.9500713-0.9097652,2.2513809-1.462534,3.5929985-1.462534
	c1.3416157,0,2.6486835,0.5527687,3.5584488,1.462534l19.1914425,19.1943226l19.1972008-19.1943226
	c0.9097672-0.9097652,2.2110748-1.462534,3.5526886-1.462534c1.3416214,0,2.6486893,0.5527687,3.5930023,1.462534
	l2.9653702,2.9624958c0.9097672,0.9471931,1.4625397,2.2513809,1.4625397,3.5929985
	C80.7625122,37.3294182,80.2097397,38.6336098,79.2999725,39.5433731z"/>
<g>
</g>
<g>
</g>
<g>
</g>
<g>
</g>
<g>
</g>
<g>
</g>
</svg>
