<?xml version="1.0" encoding="utf-8"?>
<!-- Generator: Adobe Illustrator 17.0.0, SVG Export Plug-In . SVG Version: 6.00 Build 0)  -->
<!DOCTYPE svg PUBLIC "-//W3C//DTD SVG 1.1//EN" "http://www.w3.org/Graphics/SVG/1.1/DTD/svg11.dtd">
<svg version="1.1" id="Layer_1" xmlns="http://www.w3.org/2000/svg" xmlns:xlink="http://www.w3.org/1999/xlink" x="0px" y="0px"
	 width="40px" height="40px" viewBox="0 0 40 40" enable-background="new 0 0 40 40" xml:space="preserve">
<rect x="47.8450012" y="19.8299866" display="none" fill="#2BB673" width="12" height="20"/>
<ellipse display="none" fill="#2BB673" cx="53.8450012" cy="40.1729889" rx="5.8240013" ry="1.6559982"/>
<ellipse display="none" fill="#2BB673" cx="53.8450012" cy="19.5699844" rx="5.8240013" ry="5.519001"/>
<path display="none" fill="#2BB673" d="M56.8450012,4.8319864c0,1.6529999-1.3279953,2.9980001-2.9690018,2.9980001
	c-1.6419983,0-2.9700012-1.3450003-2.9700012-2.9980001c0-1.661,1.3280029-3.0020001,2.9700012-3.0020001
	C55.5169983,1.8299867,56.8450012,3.1709867,56.8450012,4.8319864z"/>
<rect x="50.8450012" y="3.8299866" display="none" fill="#2BB673" width="6" height="12"/>
<path display="none" fill="#231F20" d="M23.8750019,7.5439868c-1.0440006,0-2.0300007-0.296-3.0300007-0.816V9.297987
	c1,0.6269999,1.9619999,0.9940004,3.0300007,0.9940004c1.0429993,0,1.9699993-0.3529997,2.9699993-0.9539995v-2.578001
	C25.8450012,7.2579865,24.8950024,7.5439868,23.8750019,7.5439868z"/>
<path display="none" fill="#231F20" d="M23.8750019,8.7119865c-0.901001,0-2.0300007,0.0089998-3.0300007-0.4619999V7.8739867l0,0
	c0-0.9039998,2.1420002-1.0440001,3.0289993-1.0440001s1.9710007,0.1399999,2.9710007,1.0440001l0,0v0.3759999
	C25.8450012,8.7209864,24.7750015,8.7119865,23.8750019,8.7119865z M21.7340012,8.0139866
	c0.5429993,0.2279997,1.1809998,0.3219995,2.1410007,0.3219995c0.9580002,0,1.5960007-0.0939999,2.1389999-0.3219995
	c-0.3320007-0.5360003-1.0510006-0.8080001-2.1399994-0.8080001S22.0660019,7.4779868,21.7340012,8.0139866z"/>
<path display="none" fill="#231F20" d="M17.8450012,23.5699863c2,1.0760002,3.8110008,1.7390003,6.0030003,1.7390003
	c2.1879997,0,3.9969997-0.6630001,5.9969997-1.7390003v-2.7399998h-0.4659996c0.0030003,0,0.0839996-0.1399994,0.0839996-0.2240009
	c0-1.9109993-1.618-3.5550003-2.618-4.4750004v-5.5609989c-1,0.4980001-1.9500008,0.7840004-2.9699993,0.7840004
	c-1.0440006,0-2.0300007-0.2959995-3.0300007-0.816v5.5939999c-1,0.9190006-2.618,2.5629997-2.618,4.4750004
	c0,0.0830002,0.0809994,0.2240009,0.0839996,0.2240009h-0.4659996V23.5699863z"/>
<path display="none" fill="#231F20" d="M29.8450012,37.6759872v-4.4120026c-2,1.2280045-3.8859997,1.9459991-5.9969997,1.9459991
	c-2.1140003,0-4.0030003-0.7190018-6.0030003-1.9469986v4.3540039v2.284996c2,1.2430038,3.8729992,1.927002,6,1.927002
	c2.1000004,0,4-0.6640015,6-1.8799973V37.6759872z"/>
<rect x="20.8450012" y="9.8299866" display="none" fill="#231F20" width="6" height="3"/>
<rect x="21.8450012" y="1.8299866" display="none" fill="#231F20" width="4" height="6"/>
<rect x="21.8450012" y="6.8299866" display="none" fill="#E6E7E8" width="4" height="1"/>
<rect x="20.9880047" y="5.6389904" display="none" fill="#BCBEC0" width="0.9519997" height="0.9520001"/>
<rect x="25.7490025" y="5.6389904" display="none" fill="#BCBEC0" width="0.9529991" height="0.9520001"/>
<rect x="20.8450012" y="4.8299866" display="none" fill="#BCBEC0" width="1" height="1"/>
<rect x="25.8450012" y="4.8299866" display="none" fill="#BCBEC0" width="1" height="1"/>
<path display="none" fill="#231F20" d="M23.8750019,7.5439868c-1.0440006,0-2.0300007-0.296-3.0300007-0.816V9.297987
	c1,0.6269999,1.9619999,0.9940004,3.0300007,0.9940004c1.0429993,0,1.9699993-0.3529997,2.9699993-0.9539995v-2.578001
	C25.8450012,7.2579865,24.8950024,7.5439868,23.8750019,7.5439868z"/>
<path display="none" fill="#231F20" d="M23.8750019,8.7119865c-0.901001,0-2.0300007,0.0220003-3.0300007-1.1680002V6.5909867l0,0
	c0-2.2870002,2.1420002-2.641,3.0289993-2.641s1.9710007,0.3539999,2.9710007,2.641l0,0v0.9530001
	C25.8450012,8.7339869,24.7750015,8.7119865,23.8750019,8.7119865z M21.7340012,6.9459867
	c0.5429993,0.5760002,1.1809998,0.8140001,2.1410007,0.8140001c0.9580002,0,1.5960007-0.2389998,2.1389999-0.8130002
	c-0.3320007-1.3559999-1.0510006-2.0440001-2.1399994-2.0440001S22.0660019,5.5899868,21.7340012,6.9459867z"/>
<path display="none" fill="#231F20" d="M17.8450012,23.5699863c2,1.0760002,3.8110008,1.7390003,6.0030003,1.7390003
	c2.1879997,0,3.9969997-0.6630001,5.9969997-1.7390003v-2.7399998h-0.4659996c0.0030003,0,0.0839996-0.1399994,0.0839996-0.2240009
	c0-1.9109993-1.618-3.5550003-2.618-4.4750004v-5.5609989c-1,0.4980001-1.9500008,0.7840004-2.9699993,0.7840004
	c-1.0440006,0-2.0300007-0.2959995-3.0300007-0.816v5.5939999c-1,0.9190006-2.618,2.5629997-2.618,4.4750004
	c0,0.0830002,0.0809994,0.2240009,0.0839996,0.2240009h-0.4659996V23.5699863z"/>
<rect x="20.8450012" y="9.8299866" display="none" fill="#231F20" width="6" height="3"/>
<path display="none" fill="#231F20" d="M29.8450012,37.6759872v-4.4120026c-2,1.2280045-3.8859997,1.9459991-5.9969997,1.9459991
	c-2.1140003,0-4.0030003-0.7190018-6.0030003-1.9469986v4.3540039v2.284996c2,1.2430038,3.8729992,1.927002,6,1.927002
	c2.1000004,0,4-0.6640015,6-1.8799973V37.6759872z"/>
<circle display="none" fill="#231F20" cx="9.1080017" cy="8.6719894" r="2.1050005"/>
<circle display="none" fill="#231F20" cx="31.2130013" cy="4.4609833" r="2.105"/>
<circle display="none" fill="#231F20" cx="6.4760017" cy="34.4609833" r="2.632"/>
<path display="none" fill="#231F20" d="M22.7920017,41.3029861c-10.448,0-18.948-8.5-18.948-18.9469986
	c0-10.448,8.5-18.9470005,18.948-18.9470005c10.4469967,0,18.9469967,8.5,18.9469967,18.9470005
	S33.2389984,41.3029861,22.7920017,41.3029861z M22.7920017,5.5139866c-9.2869997,0-16.8419991,7.5559998-16.8419991,16.8419991
	s7.5550003,16.8419971,16.8419991,16.8419971c9.2860012,0,16.8410015-7.5559978,16.8410015-16.8419971
	C39.6340027,13.0689869,32.0780029,5.5139866,22.7920017,5.5139866z"/>
<path display="none" fill="#231F20" d="M32.9500046,38.3239899c0.4819946,0.5329971,1.1719971,0.8740005,1.9469986,0.8740005
	c1.4529953,0,2.6319962-1.1780014,2.6319962-2.6320038c0-0.6269989-0.2289963-1.1940002-0.5950012-1.6459961
	C35.7710037,36.2299881,34.4329987,37.3759842,32.9500046,38.3239899z"/>
<circle display="none" fill="none" stroke="#231F20" stroke-miterlimit="10" cx="14.8970032" cy="17.618988" r="2.1049995"/>
<circle display="none" fill="none" stroke="#231F20" stroke-miterlimit="10" cx="29.3180008" cy="15.3559875" r="1.5789986"/>
<circle display="none" fill="none" stroke="#231F20" stroke-miterlimit="10" cx="19.5279999" cy="31.8819847" r="1.5789986"/>
<path display="none" fill="#231F20" d="M41.5930023,24.6089859c-0.2550049,2.1399994-0.875,4.1669998-1.7860031,6.0279999
	c0.2809982,0.0820007,0.5730057,0.1399994,0.8800049,0.1399994c1.7449951,0,3.1579971-1.4130001,3.1579971-3.157999
	C43.8450012,26.1929874,42.8919983,24.9999866,41.5930023,24.6089859z"/>
<circle display="none" fill="#231F20" cx="22.7280045" cy="2.1049881" r="2.105"/>
<circle display="none" fill="#231F20" cx="41.3359985" cy="14.757988" r="2.105999"/>
<circle display="none" fill="#231F20" cx="2.6310043" cy="18.4799881" r="2.632"/>
<path display="none" fill="#231F20" d="M9.3310022,34.8559875c-7.388-7.3890018-7.388-19.4090023,0-26.7960014
	c7.3879995-7.388,19.4080009-7.388,26.7949982,0c7.3880005,7.3870001,7.3880005,19.4069996,0,26.795002
	S16.7180023,42.2429886,9.3310022,34.8559875z M34.6380005,9.547987c-6.5669975-6.5669999-17.2519989-6.566-23.8179989,0
	s-6.5669999,17.2509995,0,23.8180027c6.566,6.5659943,17.2509995,6.5659943,23.8169994,0
	C41.2040024,26.7989864,41.2040024,16.113987,34.6380005,9.547987z"/>
<path display="none" fill="#231F20" d="M18.6200027,39.9309845c-0.0359993,0.7180023,0.2099991,1.4459991,0.7590008,1.9950027
	c1.0279999,1.0270004,2.6940002,1.0279999,3.7220001,0c0.4430008-0.4430008,0.6830006-1.0060043,0.743-1.5839996
	C22.0960026,40.4459839,20.3380013,40.3099899,18.6200027,39.9309845z"/>
<circle display="none" fill="none" stroke="#231F20" stroke-miterlimit="10" cx="20.4950027" cy="12.5259857" r="2.1050005"/>
<circle display="none" fill="none" stroke="#231F20" stroke-miterlimit="10" cx="32.2919998" cy="21.1229858" r="1.5790005"/>
<circle display="none" fill="none" stroke="#231F20" stroke-miterlimit="10" cx="13.6840019" cy="25.8859863" r="1.5790005"/>
<path display="none" fill="#231F20" d="M34.4300003,36.3439865c-1.6930008,1.3330002-3.5649986,2.3280029-5.5259991,3
	c0.1420002,0.2570038,0.3069992,0.5040054,0.5230007,0.7210007c1.2339993,1.2340012,3.2320023,1.2340012,4.4670029,0
	C34.901001,39.0569839,35.0709991,37.5399857,34.4300003,36.3439865z"/>
<path display="none" fill="#231F20" d="M16.1340027,18.6369858c1.4839993-7.1110001,6.8390007-12.4090004,13.3970013-14.1929998
	c0.9500008-0.3600001,1.934-0.638,2.948-0.8109999c-0.730999-0.2709999-1.4819984-0.5090001-2.2689991-0.674
	c-8.5139999-1.778-16.8579998,3.6819999-18.6369991,12.1960001c-1.3280001,6.3599997,1.3859997,12.6239996,6.3920002,16.1280022
	C15.9580021,27.5469875,15.1980019,23.113987,16.1340027,18.6369858z"/>
<path display="none" fill="#231F20" d="M19.5360012,18.6039867c3.2940006-6.474,9.8479996-10.1870003,16.6449986-10.1920004
	c1.0110016-0.1000004,2.0330048-0.1120005,3.0579987-0.0129995c-0.6349945-0.4530001-1.298996-0.8780003-2.0149994-1.243
	c-7.7499962-3.9440002-17.2339973-0.8559999-21.1779976,6.8970003c-2.9460001,5.7909994-1.9650002,12.5449991,1.9510002,17.2389984
	C17.0360012,27.1599865,17.4630013,22.679987,19.5360012,18.6039867z"/>
<path display="none" fill="#231F20" d="M32.3430023,25.278986c-1.4840012,7.1109982-6.8390026,12.4080029-13.3970013,14.1919994
	c-0.9500008,0.3590012-1.934,0.6389999-2.948,0.8110046c0.7310009,0.2709961,1.4820004,0.5099945,2.2689991,0.673996
	C26.7810001,42.7339859,35.125,37.2739868,36.9039993,28.7609882c1.3280029-6.3600006-1.3860016-12.6240005-6.3919983-16.1289997
	C32.5190048,16.3679867,33.2779999,20.8019867,32.3430023,25.278986z"/>
<path display="none" fill="#231F20" d="M28.9400024,25.3119869c-3.2940006,6.473999-9.8479996,10.1879978-16.6450005,10.1920033
	c-1.0109997,0.0999985-2.033,0.1110001-3.0580006,0.0130005c0.6350002,0.4529953,1.2989998,0.8789978,2.0150003,1.2429962
	c7.749999,3.9430008,17.2330017,0.8550034,21.1779976-6.895998c2.9459991-5.7910004,1.965004-12.5450001-1.9509983-17.2390003
	C31.4400024,16.7569866,31.0140018,21.2349873,28.9400024,25.3119869z"/>
<polygon display="none" fill="#231F20" points="38.8450012,16.8299866 38.8450012,17.8299866 37.9640045,17.8299866 
	22.8450012,26.4789867 7.7260017,17.8299866 6.8450017,17.8299866 6.8450017,16.8299866 5.8450017,16.8299866 5.8450017,18.1039867 
	22.8450012,27.8299866 39.8450012,18.1039867 39.8450012,16.8299866 "/>
<path display="none" fill="#231F20" d="M35.473999,34.8299866H10.2160015c-2.4110003,0-4.3720002-1.9229965-4.3720002-4.2859974
	V19.1149864c0-2.3630009,1.961-4.2859993,4.3720002-4.2859993h25.2569981c2.4100037,0,4.3710022,1.9220009,4.3710022,4.2859993
	v11.4279995C39.8450012,32.9069901,37.8840027,34.8299866,35.473999,34.8299866z M10.2160015,15.8299866
	c-1.875,0-3.3719997,1.448-3.3719997,3.2859993v11.4279995c0,1.8380032,1.4969997,3.2860012,3.3719997,3.2860012h25.2569981
	c1.8740005,0,3.3710022-1.4480057,3.3710022-3.2860012V19.1149864c0-1.8379993-1.4970016-3.2860003-3.3710022-3.2860003H10.2160015
	V15.8299866z"/>
<line display="none" fill="none" stroke="#939598" stroke-width="1.2247" stroke-miterlimit="10" x1="16.8450012" y1="23.8299866" x2="11.8450022" y2="29.8299866"/>
<line display="none" fill="none" stroke="#939598" stroke-width="1.2247" stroke-miterlimit="10" x1="29.8450012" y1="23.8299866" x2="34.8450012" y2="29.8299866"/>
<polygon display="none" fill="#231F20" points="23.8450012,32.1809845 33.4410019,26.5049858 43.038002,20.8299866 
	23.8450012,20.8299866 4.6510019,20.8299866 14.2490015,26.5049858 "/>
<path display="none" fill="#231F20" d="M33.3440018,11.4769869l-9.5479984-5.7729998l-9.4759998,5.7729998l-9.4759998,5.7720003
	v9.0319996v6.7739983v1.6930008c0,2.802002,2.085,5.0810013,4.8870001,5.0810013h28.2259979
	c2.8010025,0,4.887001-2.2789993,4.887001-5.0810013V33.054985v-6.7739983v-9.0319996L33.3440018,11.4769869z
	 M41.8450012,26.2809868v6.7739983v1.6930008c0,2.1790009-1.7080002,4.0810013-3.887001,4.0810013H9.7320023
	c-2.1789999,0-3.8870001-1.9020004-3.8870001-4.0810013V33.054985v-6.7739983v-5.4510002h36V26.2809868z"/>
<line display="none" fill="none" stroke="#939598" stroke-width="1.3828" stroke-miterlimit="10" x1="17.0700016" y1="27.4109859" x2="11.4250021" y2="34.1839828"/>
<line display="none" fill="none" stroke="#939598" stroke-width="1.3828" stroke-miterlimit="10" x1="31.7480011" y1="27.4109859" x2="37.3940048" y2="34.1839828"/>
<g display="none">
	<g display="inline">
		<g>
			<g>
				<defs>
					<polygon id="SVGID_1_" points="23.8450012,32.1809845 33.4410019,26.5049858 43.038002,20.8299866 23.8450012,20.8299866 
						4.6510019,20.8299866 14.2490015,26.5049858 					"/>
				</defs>
				<clipPath id="SVGID_2_">
					<use xlink:href="#SVGID_1_"  overflow="visible"/>
				</clipPath>
				<rect x="12.8450012" y="2.8299866" clip-path="url(#SVGID_2_)" fill="#FFFFFF" width="22" height="36"/>
			</g>
		</g>
	</g>
</g>
<rect x="12.8450012" y="4.8299866" display="none" fill="#FFFFFF" width="22" height="17"/>
<path display="none" fill="#231F20" d="M29.5230026,16.653986l0.0690002-0.0769997h-0.0620003
	c0.0230007-0.1480007,0.0470009-0.2980003,0.0470009-0.4540005c0-1.6260004-1.3180008-2.9429998-2.9440002-2.9429998
	c-1.3190002,0-2.421999,0.8730001-2.7959995,2.0690002c-0.3740005-1.1960001-1.4780006-2.0690002-2.7959995-2.0690002
	c-1.6259995,0-2.9440002,1.3170004-2.9440002,2.9429998c0,3.0310001,5.7709999,6.7709999,5.7709999,6.7709999
	S29.5230026,19.231987,29.5230026,16.653986z"/>
<rect x="11.8450012" y="3.8299866" display="none" fill="#E4E3E3" width="1" height="9"/>
<rect x="12.8450012" y="3.8299866" display="none" fill="#E4E3E3" width="23" height="1"/>
<rect x="34.8450012" y="3.8299866" display="none" fill="#E4E3E3" width="1" height="9"/>
<g>
	<path fill="#A5588E" d="M28.6962376,19.2241516c-0.5270519-0.9851818-1.2023735-1.911932-2.0332375-2.742794
		c-0.1622982-0.1623001-0.3357296-0.3057423-0.5049782-0.4564571c-0.8352394-0.7437935-1.7488613-1.3467178-2.7161522-1.8081303
		c0.3945484,0.8270025,0.6900578,1.6880474,0.8782272,2.5696201c0.4903049,0.7563419,0.890131,1.5741425,1.1959381,2.4378242
		c0.3576736,1.0102806,0.5773106,2.0826607,0.6419868,3.1992512c0.0131283,0.226202,0.0343647,0.4502792,0.0343647,0.679697
		c0,1.1750889-0.1778736,2.3078957-0.5017624,3.3771877c-0.4945526,1.6324463-1.3436928,3.1061325-2.4494076,4.3482761
		c-1.2917595,1.4512272-2.9377842,2.5734158-4.8067913,3.2350941c-1.214922,0.4300728-2.5166578,0.6763535-3.8789492,0.6763535
		c-0.8374271,0-1.6525879-0.0926704-2.4398832-0.2607613c3.8333864,2.484417,8.8044071,2.4843521,12.6377926-0.0000648
		c0.6755791-0.4378586,1.3174381-0.9486923,1.9096146-1.5408707c0.9633026-0.9633007,1.709734-2.0578823,2.2646503-3.2210655
		c0.8535805-1.7894669,1.2240601-3.7468948,1.1113148-5.6863689C29.9423714,22.3706322,29.5009079,20.7281475,28.6962376,19.2241516
		z"/>
	<path fill="#009CC9" d="M13.6672106,5.5207343c-0.6755791,0.4378586-1.3175011,0.9486933-1.9096785,1.5408707
		c-0.9632378,0.9632373-1.7096691,2.0578198-2.2645864,3.2210021c-0.8536444,1.7894669-1.2240601,3.7468958-1.1113787,5.6864347
		c0.09653,1.6602459,0.5380564,3.3027306,1.3427286,4.8067265c0.5270519,0.9851189,1.2023735,1.911932,2.0332365,2.7428589
		c0.1622982,0.1622982,0.3357296,0.3056774,0.5049143,0.4563923c0.8353033,0.7437935,1.7489243,1.3467827,2.7161522,1.8081932
		c-0.3944845-0.8269367-0.6899948-1.6879177-0.8780985-2.5693626c-0.4903069-0.7564049-0.8902607-1.5743332-1.196003-2.4380817
		c-0.3577385-1.0102139-0.5773754-2.0826588-0.6420507-3.1991863c-0.0131283-0.2262001-0.0342999-0.4502792-0.0342999-0.6797619
		c0-1.1750231,0.1778069-2.3078957,0.5017605-3.3771868c0.4944897-1.6324453,1.3436289-3.1061316,2.4494085-4.34834
		c1.2917595-1.4511628,2.9377842-2.573288,4.8067265-3.2349668c1.2149239-0.4301362,2.5166588-0.6763511,3.8789501-0.6763511
		c0.8374901,0,1.6526508,0.0927329,2.4399471,0.2608232C22.4716167,3.0363178,17.5005322,3.0362535,13.6672106,5.5207343z"/>
	<path fill="#E8C21D" d="M26.1580219,22.4234657c-0.0646763-1.1165905-0.2843132-2.1889706-0.6419868-3.1992512
		c-0.3058071-0.8636818-0.7056332-1.6814823-1.1959381-2.4378242c0.3428726,1.6067696,0.3428726,3.2689457,0,4.8757133
		c-0.1881046,0.8815098-0.4836788,1.7425537-0.8782272,2.5695553c-0.4614124,0.9672279-1.0644016,1.8808498-1.8081932,2.7161522
		c-0.1507168,0.1691856-0.2940941,0.342617-0.4563923,0.5049152c-0.830864,0.830862-1.7576771,1.5061207-2.7428589,2.0332355
		c-1.5039978,0.8046074-3.1464176,1.2461338-4.8066635,1.3426647c-1.9396029,0.1127472-3.8969669-0.2576694-5.6863699-1.1113148
		c0.5549173,1.1631832,1.3012848,2.2577648,2.2645864,3.2210655c0.5921774,0.5921783,1.2340994,1.1030769,1.9096146,1.5409355
		c0.7872953,0.1680908,1.6024561,0.2607613,2.4398832,0.2607613c1.3622913,0,2.6640272-0.2462807,3.8789492-0.6763535
		c1.8690071-0.6616783,3.5150318-1.7838669,4.8067913-3.2350941c1.1057148-1.2421436,1.954855-2.7158298,2.4494076-4.3482761
		c0.3238888-1.0692921,0.5017624-2.2020988,0.5017624-3.3771877C26.1923866,22.873745,26.1711502,22.6496677,26.1580219,22.4234657z
		"/>
	<path fill="#9AC93C" d="M28.2145538,7.061605c-0.5921764-0.5921774-1.2340355-1.1029477-1.9096146-1.5408063
		c-0.7872963-0.1680903-1.602457-0.2608232-2.4399471-0.2608232c-1.3622913,0-2.6640263,0.2462149-3.8789501,0.6763511
		c-1.8689423,0.6616788-3.514967,1.7838039-4.8067265,3.2349668c-1.1057796,1.2422085-1.9549189,2.7158947-2.4494085,4.34834
		c-0.3239536,1.0692911-0.5017605,2.2021637-0.5017605,3.3771868c0,0.2294827,0.0211716,0.4535618,0.0342999,0.6797619
		c0.0646753,1.1165276,0.2843122,2.1889725,0.6420507,3.1991863c0.3057423,0.8637486,0.7056961,1.6816769,1.196003,2.4380817
		c-0.3429375-1.6068974-0.3428736-3.2691383,0-4.8760338c0.1881037-0.8815098,0.483614-1.7424908,0.8780985-2.5694923
		c0.4614763-0.9672918,1.0644007-1.8808479,1.8081942-2.7160873c0.15065-0.1692486,0.294157-0.34268,0.4563923-0.5049791
		c0.830862-0.830863,1.75774-1.5061846,2.742857-2.0332365c1.5039978-0.8046064,3.1464825-1.2461338,4.8067284-1.3427277
		c1.9396019-0.1127462,3.8969021,0.2577343,5.6863689,1.1113787C29.9242878,9.1194887,29.1777916,8.0248423,28.2145538,7.061605z"/>
</g>
</svg>
