<?xml version="1.0" encoding="utf-8"?>
<!-- Generator: Adobe Illustrator 17.0.0, SVG Export Plug-In . SVG Version: 6.00 Build 0)  -->
<!DOCTYPE svg PUBLIC "-//W3C//DTD SVG 1.1//EN" "http://www.w3.org/Graphics/SVG/1.1/DTD/svg11.dtd">
<svg version="1.1" id="Layer_1" xmlns="http://www.w3.org/2000/svg" xmlns:xlink="http://www.w3.org/1999/xlink" x="0px" y="0px"
	 width="40px" height="40px" viewBox="0 0 40 40" enable-background="new 0 0 40 40" xml:space="preserve">
<rect x="47.845" y="19.83" display="none" fill="#2BB673" width="12" height="20"/>
<ellipse display="none" fill="#2BB673" cx="53.845" cy="40.173" rx="5.824" ry="1.656"/>
<ellipse display="none" fill="#2BB673" cx="53.845" cy="19.57" rx="5.824" ry="5.519"/>
<path display="none" fill="#2BB673" d="M56.845,4.832c0,1.653-1.328,2.998-2.969,2.998c-1.642,0-2.97-1.345-2.97-2.998
	c0-1.661,1.328-3.002,2.97-3.002C55.517,1.83,56.845,3.171,56.845,4.832z"/>
<rect x="50.845" y="3.83" display="none" fill="#2BB673" width="6" height="12"/>
<path display="none" fill="#231F20" d="M23.875,7.544c-1.044,0-2.03-0.296-3.03-0.816v2.57c1,0.627,1.962,0.994,3.03,0.994
	c1.043,0,1.97-0.353,2.97-0.954V6.76C25.845,7.258,24.895,7.544,23.875,7.544z"/>
<path display="none" fill="#231F20" d="M23.875,8.712c-0.901,0-2.03,0.009-3.03-0.462V7.874l0,0c0-0.904,2.142-1.044,3.029-1.044
	s1.971,0.14,2.971,1.044l0,0V8.25C25.845,8.721,24.775,8.712,23.875,8.712z M21.734,8.014c0.543,0.228,1.181,0.322,2.141,0.322
	c0.958,0,1.596-0.094,2.139-0.322c-0.332-0.536-1.051-0.808-2.14-0.808S22.066,7.478,21.734,8.014z"/>
<path display="none" fill="#231F20" d="M17.845,23.57c2,1.076,3.811,1.739,6.003,1.739c2.188,0,3.997-0.663,5.997-1.739v-2.74
	h-0.466c0.003,0,0.084-0.14,0.084-0.224c0-1.911-1.618-3.555-2.618-4.475V10.57c-1,0.498-1.95,0.784-2.97,0.784
	c-1.044,0-2.03-0.296-3.03-0.816v5.594c-1,0.919-2.618,2.563-2.618,4.475c0,0.083,0.081,0.224,0.084,0.224h-0.466V23.57z"/>
<path display="none" fill="#231F20" d="M29.845,37.676v-4.412c-2,1.228-3.886,1.946-5.997,1.946c-2.114,0-4.003-0.719-6.003-1.947
	v4.354v2.285c2,1.243,3.873,1.927,6,1.927c2.1,0,4-0.664,6-1.88V37.676z"/>
<rect x="20.845" y="9.83" display="none" fill="#231F20" width="6" height="3"/>
<rect x="21.845" y="1.83" display="none" fill="#231F20" width="4" height="6"/>
<rect x="21.845" y="6.83" display="none" fill="#E6E7E8" width="4" height="1"/>
<rect x="20.988" y="5.639" display="none" fill="#BCBEC0" width="0.952" height="0.952"/>
<rect x="25.749" y="5.639" display="none" fill="#BCBEC0" width="0.953" height="0.952"/>
<rect x="20.845" y="4.83" display="none" fill="#BCBEC0" width="1" height="1"/>
<rect x="25.845" y="4.83" display="none" fill="#BCBEC0" width="1" height="1"/>
<path display="none" fill="#231F20" d="M23.875,7.544c-1.044,0-2.03-0.296-3.03-0.816v2.57c1,0.627,1.962,0.994,3.03,0.994
	c1.043,0,1.97-0.353,2.97-0.954V6.76C25.845,7.258,24.895,7.544,23.875,7.544z"/>
<path display="none" fill="#231F20" d="M23.875,8.712c-0.901,0-2.03,0.022-3.03-1.168V6.591l0,0c0-2.287,2.142-2.641,3.029-2.641
	s1.971,0.354,2.971,2.641l0,0v0.953C25.845,8.734,24.775,8.712,23.875,8.712z M21.734,6.946c0.543,0.576,1.181,0.814,2.141,0.814
	c0.958,0,1.596-0.239,2.139-0.813c-0.332-1.356-1.051-2.044-2.14-2.044S22.066,5.59,21.734,6.946z"/>
<path display="none" fill="#231F20" d="M17.845,23.57c2,1.076,3.811,1.739,6.003,1.739c2.188,0,3.997-0.663,5.997-1.739v-2.74
	h-0.466c0.003,0,0.084-0.14,0.084-0.224c0-1.911-1.618-3.555-2.618-4.475V10.57c-1,0.498-1.95,0.784-2.97,0.784
	c-1.044,0-2.03-0.296-3.03-0.816v5.594c-1,0.919-2.618,2.563-2.618,4.475c0,0.083,0.081,0.224,0.084,0.224h-0.466V23.57z"/>
<rect x="20.845" y="9.83" display="none" fill="#231F20" width="6" height="3"/>
<path display="none" fill="#231F20" d="M29.845,37.676v-4.412c-2,1.228-3.886,1.946-5.997,1.946c-2.114,0-4.003-0.719-6.003-1.947
	v4.354v2.285c2,1.243,3.873,1.927,6,1.927c2.1,0,4-0.664,6-1.88V37.676z"/>
<circle display="none" fill="#231F20" cx="9.108" cy="8.672" r="2.105"/>
<circle display="none" fill="#231F20" cx="31.213" cy="4.461" r="2.105"/>
<circle display="none" fill="#231F20" cx="6.476" cy="34.461" r="2.632"/>
<path display="none" fill="#231F20" d="M22.792,41.303c-10.448,0-18.948-8.5-18.948-18.947c0-10.448,8.5-18.947,18.948-18.947
	c10.447,0,18.947,8.5,18.947,18.947S33.239,41.303,22.792,41.303z M22.792,5.514c-9.287,0-16.842,7.556-16.842,16.842
	s7.555,16.842,16.842,16.842c9.286,0,16.841-7.556,16.841-16.842C39.634,13.069,32.078,5.514,22.792,5.514z"/>
<path display="none" fill="#231F20" d="M32.95,38.324c0.482,0.533,1.172,0.874,1.947,0.874c1.453,0,2.632-1.178,2.632-2.632
	c0-0.627-0.229-1.194-0.595-1.646C35.771,36.23,34.433,37.376,32.95,38.324z"/>
<circle display="none" fill="none" stroke="#231F20" stroke-miterlimit="10" cx="14.897" cy="17.619" r="2.105"/>
<circle display="none" fill="none" stroke="#231F20" stroke-miterlimit="10" cx="29.318" cy="15.356" r="1.579"/>
<circle display="none" fill="none" stroke="#231F20" stroke-miterlimit="10" cx="19.528" cy="31.882" r="1.579"/>
<path display="none" fill="#231F20" d="M41.593,24.609c-0.255,2.14-0.875,4.167-1.786,6.028c0.281,0.082,0.573,0.14,0.88,0.14
	c1.745,0,3.158-1.413,3.158-3.158C43.845,26.193,42.892,25,41.593,24.609z"/>
<circle display="none" fill="#231F20" cx="22.728" cy="2.105" r="2.105"/>
<circle display="none" fill="#231F20" cx="41.336" cy="14.758" r="2.106"/>
<circle display="none" fill="#231F20" cx="2.631" cy="18.48" r="2.632"/>
<path display="none" fill="#231F20" d="M9.331,34.856c-7.388-7.389-7.388-19.409,0-26.796c7.388-7.388,19.408-7.388,26.795,0
	c7.388,7.387,7.388,19.407,0,26.795S16.718,42.243,9.331,34.856z M34.638,9.548c-6.567-6.567-17.252-6.566-23.818,0
	s-6.567,17.251,0,23.818c6.566,6.566,17.251,6.566,23.817,0C41.204,26.799,41.204,16.114,34.638,9.548z"/>
<path display="none" fill="#231F20" d="M18.62,39.931c-0.036,0.718,0.21,1.446,0.759,1.995c1.028,1.027,2.694,1.028,3.722,0
	c0.443-0.443,0.683-1.006,0.743-1.584C22.096,40.446,20.338,40.31,18.62,39.931z"/>
<circle display="none" fill="none" stroke="#231F20" stroke-miterlimit="10" cx="20.495" cy="12.526" r="2.105"/>
<circle display="none" fill="none" stroke="#231F20" stroke-miterlimit="10" cx="32.292" cy="21.123" r="1.579"/>
<circle display="none" fill="none" stroke="#231F20" stroke-miterlimit="10" cx="13.684" cy="25.886" r="1.579"/>
<path display="none" fill="#231F20" d="M34.43,36.344c-1.693,1.333-3.565,2.328-5.526,3c0.142,0.257,0.307,0.504,0.523,0.721
	c1.234,1.234,3.232,1.234,4.467,0C34.901,39.057,35.071,37.54,34.43,36.344z"/>
<path display="none" fill="#231F20" d="M16.134,18.637c1.484-7.111,6.839-12.409,13.397-14.193c0.95-0.36,1.934-0.638,2.948-0.811
	c-0.731-0.271-1.482-0.509-2.269-0.674c-8.514-1.778-16.858,3.682-18.637,12.196c-1.328,6.36,1.386,12.624,6.392,16.128
	C15.958,27.547,15.198,23.114,16.134,18.637z"/>
<path display="none" fill="#231F20" d="M19.536,18.604C22.83,12.13,29.384,8.417,36.181,8.412c1.011-0.1,2.033-0.112,3.058-0.013
	c-0.635-0.453-1.299-0.878-2.015-1.243C29.474,3.212,19.99,6.3,16.046,14.053c-2.946,5.791-1.965,12.545,1.951,17.239
	C17.036,27.16,17.463,22.68,19.536,18.604z"/>
<path display="none" fill="#231F20" d="M32.343,25.279c-1.484,7.111-6.839,12.408-13.397,14.192
	c-0.95,0.359-1.934,0.639-2.948,0.811c0.731,0.271,1.482,0.51,2.269,0.674c8.514,1.778,16.858-3.682,18.637-12.195
	c1.328-6.36-1.386-12.624-6.392-16.129C32.519,16.368,33.278,20.802,32.343,25.279z"/>
<path display="none" fill="#231F20" d="M28.94,25.312c-3.294,6.474-9.848,10.188-16.645,10.192c-1.011,0.1-2.033,0.111-3.058,0.013
	c0.635,0.453,1.299,0.879,2.015,1.243c7.75,3.943,17.233,0.855,21.178-6.896c2.946-5.791,1.965-12.545-1.951-17.239
	C31.44,16.757,31.014,21.235,28.94,25.312z"/>
<path display="none" fill="#231F20" d="M16.134,18.637c1.484-7.111,6.839-12.409,13.397-14.193c0.95-0.36,1.934-0.638,2.948-0.811
	c-0.731-0.271-1.482-0.509-2.269-0.674c-8.514-1.778-16.858,3.682-18.637,12.196c-1.328,6.36,1.386,12.624,6.392,16.128
	C15.958,27.547,15.198,23.114,16.134,18.637z"/>
<path display="none" fill="#231F20" d="M19.536,18.604C22.83,12.13,29.384,8.417,36.181,8.412c1.011-0.1,2.033-0.112,3.058-0.013
	c-0.635-0.453-1.299-0.878-2.015-1.243C29.474,3.212,19.99,6.3,16.046,14.053c-2.946,5.791-1.965,12.545,1.951,17.239
	C17.036,27.16,17.463,22.68,19.536,18.604z"/>
<path display="none" fill="#231F20" d="M32.343,25.279c-1.484,7.111-6.839,12.408-13.397,14.192
	c-0.95,0.359-1.934,0.639-2.948,0.811c0.731,0.271,1.482,0.51,2.269,0.674c8.514,1.778,16.858-3.682,18.637-12.195
	c1.328-6.36-1.386-12.624-6.392-16.129C32.519,16.368,33.278,20.802,32.343,25.279z"/>
<path display="none" fill="#231F20" d="M28.94,25.312c-3.294,6.474-9.848,10.188-16.645,10.192c-1.011,0.1-2.033,0.111-3.058,0.013
	c0.635,0.453,1.299,0.879,2.015,1.243c7.75,3.943,17.233,0.855,21.178-6.896c2.946-5.791,1.965-12.545-1.951-17.239
	C31.44,16.757,31.014,21.235,28.94,25.312z"/>
<polygon display="none" fill="#231F20" points="38.845,16.83 38.845,17.83 37.964,17.83 22.845,26.479 7.726,17.83 6.845,17.83 
	6.845,16.83 5.845,16.83 5.845,18.104 22.845,27.83 39.845,18.104 39.845,16.83 "/>
<path display="none" fill="#231F20" d="M35.474,34.83H10.216c-2.411,0-4.372-1.923-4.372-4.286V19.115
	c0-2.363,1.961-4.286,4.372-4.286h25.257c2.41,0,4.371,1.922,4.371,4.286v11.428C39.845,32.907,37.884,34.83,35.474,34.83z
	 M10.216,15.83c-1.875,0-3.372,1.448-3.372,3.286v11.428c0,1.838,1.497,3.286,3.372,3.286h25.257c1.874,0,3.371-1.448,3.371-3.286
	V19.115c0-1.838-1.497-3.286-3.371-3.286H10.216V15.83z"/>
<line display="none" fill="none" stroke="#939598" stroke-width="1.2247" stroke-miterlimit="10" x1="16.845" y1="23.83" x2="11.845" y2="29.83"/>
<line display="none" fill="none" stroke="#939598" stroke-width="1.2247" stroke-miterlimit="10" x1="29.845" y1="23.83" x2="34.845" y2="29.83"/>
<g>
	<polygon fill="#636363" points="34.987,19.11 34.987,19.11 20.37,10.229 5.013,19.11 5.013,19.11 15.004,25.276 24.996,25.276 	"/>
	<polygon fill="#FFA9A9" points="22.864,2.458 10.564,2.458 10.674,25.276 29.234,25.276 29.234,8.286 	"/>
	<polygon fill="#DB9E9E" points="24.996,23.594 15.004,23.594 10.654,20.75 10.629,28.197 29.234,28.197 29.234,20.844 	"/>
	<polygon fill="#B7B7B7" points="5.013,19.11 5.013,34.542 15.004,25.276 	"/>
	<polygon fill="#B7B7B7" points="34.987,19.11 34.987,34.542 24.996,25.276 	"/>
	<polyline fill="#CCCCCC" points="24.996,25.276 15.004,25.276 5.013,34.542 34.987,34.542 24.996,25.276 	"/>
	<path fill="#FFFFFF" d="M24.064,14.539c0,0,0.04-0.275,0.04-0.389c0-1.191-0.965-2.156-2.156-2.156
		c-0.966,0-1.774,0.639-2.048,1.516c-0.274-0.876-1.083-1.516-2.048-1.516c-1.191,0-2.156,0.965-2.156,2.156
		c0,2.22,4.227,4.96,4.227,4.96S24.064,16.427,24.064,14.539z"/>
	<polygon fill="#AF7E7E" points="22.864,2.458 22.864,8.194 29.234,8.286 	"/>
</g>
</svg>
