<?xml version="1.0" encoding="utf-8"?>
<!-- Generator: Adobe Illustrator 17.0.0, SVG Export Plug-In . SVG Version: 6.00 Build 0)  -->
<!DOCTYPE svg PUBLIC "-//W3C//DTD SVG 1.1//EN" "http://www.w3.org/Graphics/SVG/1.1/DTD/svg11.dtd">
<svg version="1.1" id="Layer_1" xmlns="http://www.w3.org/2000/svg" xmlns:xlink="http://www.w3.org/1999/xlink" x="0px" y="0px"
	 width="40px" height="40px" viewBox="0 0 40 40" enable-background="new 0 0 40 40" xml:space="preserve">
<circle opacity="0.8" fill="#99918F" enable-background="new    " cx="25.526" cy="6.974" r="1.579"/>
<circle opacity="0.8" fill="#99918F" enable-background="new    " cx="8.948" cy="10.132" r="1.579"/>
<circle opacity="0.8" fill="#7F7978" enable-background="new    " cx="17.236" cy="34.14" r="1.974"/>
<circle opacity="0.8" fill="#7F7978" enable-background="new    " cx="31.263" cy="27.449" r="2.368"/>
<rect x="47.845" y="19.83" display="none" fill="#2BB673" width="12" height="20"/>
<ellipse display="none" fill="#2BB673" cx="53.845" cy="40.173" rx="5.824" ry="1.656"/>
<ellipse display="none" fill="#2BB673" cx="53.845" cy="19.57" rx="5.824" ry="5.519"/>
<path display="none" fill="#2BB673" d="M56.845,4.832c0,1.653-1.328,2.998-2.969,2.998c-1.642,0-2.97-1.345-2.97-2.998
	c0-1.661,1.328-3.002,2.97-3.002C55.517,1.83,56.845,3.171,56.845,4.832z"/>
<rect x="50.845" y="3.83" display="none" fill="#2BB673" width="6" height="12"/>
<path display="none" fill="#231F20" d="M23.875,7.544c-1.044,0-2.03-0.296-3.03-0.816v2.57c1,0.627,1.962,0.994,3.03,0.994
	c1.043,0,1.97-0.353,2.97-0.954V6.76C25.845,7.258,24.895,7.544,23.875,7.544z"/>
<path display="none" fill="#231F20" d="M23.875,8.712c-0.901,0-2.03,0.009-3.03-0.462V7.874l0,0c0-0.904,2.142-1.044,3.029-1.044
	s1.971,0.14,2.971,1.044l0,0V8.25C25.845,8.721,24.775,8.712,23.875,8.712z M21.734,8.014c0.543,0.228,1.181,0.322,2.141,0.322
	c0.958,0,1.596-0.094,2.139-0.322c-0.332-0.536-1.051-0.808-2.14-0.808S22.066,7.478,21.734,8.014z"/>
<path display="none" fill="#231F20" d="M17.845,23.57c2,1.076,3.811,1.739,6.003,1.739c2.188,0,3.997-0.663,5.997-1.739v-2.74
	h-0.466c0.003,0,0.084-0.14,0.084-0.224c0-1.911-1.618-3.555-2.618-4.475V10.57c-1,0.498-1.95,0.784-2.97,0.784
	c-1.044,0-2.03-0.296-3.03-0.816v5.594c-1,0.919-2.618,2.563-2.618,4.475c0,0.083,0.081,0.224,0.084,0.224h-0.466V23.57z"/>
<path display="none" fill="#231F20" d="M29.845,37.676v-4.412c-2,1.228-3.886,1.946-5.997,1.946c-2.114,0-4.003-0.719-6.003-1.947
	v4.354v2.285c2,1.243,3.873,1.927,6,1.927c2.1,0,4-0.664,6-1.88V37.676z"/>
<rect x="20.845" y="9.83" display="none" fill="#231F20" width="6" height="3"/>
<rect x="21.845" y="1.83" display="none" fill="#231F20" width="4" height="6"/>
<rect x="21.845" y="6.83" display="none" fill="#E6E7E8" width="4" height="1"/>
<rect x="20.988" y="5.639" display="none" fill="#BCBEC0" width="0.952" height="0.952"/>
<rect x="25.749" y="5.639" display="none" fill="#BCBEC0" width="0.953" height="0.952"/>
<rect x="20.845" y="4.83" display="none" fill="#BCBEC0" width="1" height="1"/>
<rect x="25.845" y="4.83" display="none" fill="#BCBEC0" width="1" height="1"/>
<path display="none" fill="#231F20" d="M23.875,7.544c-1.044,0-2.03-0.296-3.03-0.816v2.57c1,0.627,1.962,0.994,3.03,0.994
	c1.043,0,1.97-0.353,2.97-0.954V6.76C25.845,7.258,24.895,7.544,23.875,7.544z"/>
<path display="none" fill="#231F20" d="M23.875,8.712c-0.901,0-2.03,0.022-3.03-1.168V6.591l0,0c0-2.287,2.142-2.641,3.029-2.641
	s1.971,0.354,2.971,2.641l0,0v0.953C25.845,8.734,24.775,8.712,23.875,8.712z M21.734,6.946c0.543,0.576,1.181,0.814,2.141,0.814
	c0.958,0,1.596-0.239,2.139-0.813c-0.332-1.356-1.051-2.044-2.14-2.044S22.066,5.59,21.734,6.946z"/>
<path display="none" fill="#231F20" d="M17.845,23.57c2,1.076,3.811,1.739,6.003,1.739c2.188,0,3.997-0.663,5.997-1.739v-2.74
	h-0.466c0.003,0,0.084-0.14,0.084-0.224c0-1.911-1.618-3.555-2.618-4.475V10.57c-1,0.498-1.95,0.784-2.97,0.784
	c-1.044,0-2.03-0.296-3.03-0.816v5.594c-1,0.919-2.618,2.563-2.618,4.475c0,0.083,0.081,0.224,0.084,0.224h-0.466V23.57z"/>
<rect x="20.845" y="9.83" display="none" fill="#231F20" width="6" height="3"/>
<path display="none" fill="#231F20" d="M29.845,37.676v-4.412c-2,1.228-3.886,1.946-5.997,1.946c-2.114,0-4.003-0.719-6.003-1.947
	v4.354v2.285c2,1.243,3.873,1.927,6,1.927c2.1,0,4-0.664,6-1.88V37.676z"/>
<circle fill="#FDEFBC" cx="19.21" cy="20.395" r="14.5"/>
<path fill="#E8DAAF" d="M19.21,30.596c-7.276,0-13.282-5.365-14.323-12.351c-0.105,0.703-0.177,1.417-0.177,2.15
	c0,8.008,6.492,14.5,14.5,14.5s14.5-6.492,14.5-14.5c0-0.732-0.072-1.446-0.177-2.15C32.493,25.231,26.486,30.596,19.21,30.596z"/>
<circle opacity="0.8" fill="#B7AEAB" enable-background="new    " cx="13.29" cy="16.842" r="1.579"/>
<circle opacity="0.8" fill="#B7AEAB" enable-background="new    " cx="24.105" cy="15.145" r="1.184"/>
<circle opacity="0.8" fill="#B7AEAB" enable-background="new    " cx="14.868" cy="24.398" r="1.184"/>
<circle display="none" fill="#231F20" cx="22.728" cy="2.105" r="2.105"/>
<circle display="none" fill="#231F20" cx="41.336" cy="14.758" r="2.106"/>
<circle display="none" fill="#231F20" cx="2.631" cy="18.48" r="2.632"/>
<path display="none" fill="#231F20" d="M9.331,34.856c-7.388-7.389-7.388-19.409,0-26.796c7.388-7.388,19.408-7.388,26.795,0
	c7.388,7.387,7.388,19.407,0,26.795S16.718,42.243,9.331,34.856z M34.638,9.548c-6.567-6.567-17.252-6.566-23.818,0
	s-6.567,17.251,0,23.818c6.566,6.566,17.251,6.566,23.817,0C41.204,26.799,41.204,16.114,34.638,9.548z"/>
<path display="none" fill="#231F20" d="M18.62,39.931c-0.036,0.718,0.21,1.446,0.759,1.995c1.028,1.027,2.694,1.028,3.722,0
	c0.443-0.443,0.683-1.006,0.743-1.584C22.096,40.446,20.338,40.31,18.62,39.931z"/>
<circle display="none" fill="none" stroke="#231F20" stroke-miterlimit="10" cx="20.495" cy="12.526" r="2.105"/>
<circle display="none" fill="none" stroke="#231F20" stroke-miterlimit="10" cx="32.292" cy="21.123" r="1.579"/>
<circle display="none" fill="none" stroke="#231F20" stroke-miterlimit="10" cx="13.684" cy="25.886" r="1.579"/>
<path display="none" fill="#231F20" d="M34.43,36.344c-1.693,1.333-3.565,2.328-5.526,3c0.142,0.257,0.307,0.504,0.523,0.721
	c1.234,1.234,3.232,1.234,4.467,0C34.901,39.057,35.071,37.54,34.43,36.344z"/>
<path display="none" fill="#231F20" d="M16.134,18.637c1.484-7.111,6.839-12.409,13.397-14.193c0.95-0.36,1.934-0.638,2.948-0.811
	c-0.731-0.271-1.482-0.509-2.269-0.674c-8.514-1.778-16.858,3.682-18.637,12.196c-1.328,6.36,1.386,12.624,6.392,16.128
	C15.958,27.547,15.198,23.114,16.134,18.637z"/>
<path display="none" fill="#231F20" d="M19.536,18.604C22.83,12.13,29.384,8.417,36.181,8.412c1.011-0.1,2.033-0.112,3.058-0.013
	c-0.635-0.453-1.299-0.878-2.015-1.243C29.474,3.212,19.99,6.3,16.046,14.053c-2.946,5.791-1.965,12.545,1.951,17.239
	C17.036,27.16,17.463,22.68,19.536,18.604z"/>
<path display="none" fill="#231F20" d="M32.343,25.279c-1.484,7.111-6.839,12.408-13.397,14.192
	c-0.95,0.359-1.934,0.639-2.948,0.811c0.731,0.271,1.482,0.51,2.269,0.674c8.514,1.778,16.858-3.682,18.637-12.195
	c1.328-6.36-1.386-12.624-6.392-16.129C32.519,16.368,33.278,20.802,32.343,25.279z"/>
<path display="none" fill="#231F20" d="M28.94,25.312c-3.294,6.474-9.848,10.188-16.645,10.192c-1.011,0.1-2.033,0.111-3.058,0.013
	c0.635,0.453,1.299,0.879,2.015,1.243c7.75,3.943,17.233,0.855,21.178-6.896c2.946-5.791,1.965-12.545-1.951-17.239
	C31.44,16.757,31.014,21.235,28.94,25.312z"/>
<path display="none" fill="#231F20" d="M16.134,18.637c1.484-7.111,6.839-12.409,13.397-14.193c0.95-0.36,1.934-0.638,2.948-0.811
	c-0.731-0.271-1.482-0.509-2.269-0.674c-8.514-1.778-16.858,3.682-18.637,12.196c-1.328,6.36,1.386,12.624,6.392,16.128
	C15.958,27.547,15.198,23.114,16.134,18.637z"/>
<path display="none" fill="#231F20" d="M19.536,18.604C22.83,12.13,29.384,8.417,36.181,8.412c1.011-0.1,2.033-0.112,3.058-0.013
	c-0.635-0.453-1.299-0.878-2.015-1.243C29.474,3.212,19.99,6.3,16.046,14.053c-2.946,5.791-1.965,12.545,1.951,17.239
	C17.036,27.16,17.463,22.68,19.536,18.604z"/>
<path display="none" fill="#231F20" d="M32.343,25.279c-1.484,7.111-6.839,12.408-13.397,14.192
	c-0.95,0.359-1.934,0.639-2.948,0.811c0.731,0.271,1.482,0.51,2.269,0.674c8.514,1.778,16.858-3.682,18.637-12.195
	c1.328-6.36-1.386-12.624-6.392-16.129C32.519,16.368,33.278,20.802,32.343,25.279z"/>
<path display="none" fill="#231F20" d="M28.94,25.312c-3.294,6.474-9.848,10.188-16.645,10.192c-1.011,0.1-2.033,0.111-3.058,0.013
	c0.635,0.453,1.299,0.879,2.015,1.243c7.75,3.943,17.233,0.855,21.178-6.896c2.946-5.791,1.965-12.545-1.951-17.239
	C31.44,16.757,31.014,21.235,28.94,25.312z"/>
<polygon display="none" fill="#231F20" points="38.845,16.83 38.845,17.83 37.964,17.83 22.845,26.479 7.726,17.83 6.845,17.83 
	6.845,16.83 5.845,16.83 5.845,18.104 22.845,27.83 39.845,18.104 39.845,16.83 "/>
<path display="none" fill="#231F20" d="M35.474,34.83H10.216c-2.411,0-4.372-1.923-4.372-4.286V19.115
	c0-2.363,1.961-4.286,4.372-4.286h25.257c2.41,0,4.371,1.922,4.371,4.286v11.428C39.845,32.907,37.884,34.83,35.474,34.83z
	 M10.216,15.83c-1.875,0-3.372,1.448-3.372,3.286v11.428c0,1.838,1.497,3.286,3.372,3.286h25.257c1.874,0,3.371-1.448,3.371-3.286
	V19.115c0-1.838-1.497-3.286-3.371-3.286H10.216V15.83z"/>
<line display="none" fill="none" stroke="#939598" stroke-width="1.2247" stroke-miterlimit="10" x1="16.845" y1="23.83" x2="11.845" y2="29.83"/>
<line display="none" fill="none" stroke="#939598" stroke-width="1.2247" stroke-miterlimit="10" x1="29.845" y1="23.83" x2="34.845" y2="29.83"/>
<polygon display="none" fill="#231F20" points="23.845,32.181 33.441,26.505 43.038,20.83 23.845,20.83 4.651,20.83 14.249,26.505 
	"/>
<path display="none" fill="#231F20" d="M33.344,11.477l-9.548-5.773l-9.476,5.773l-9.476,5.772v9.032v6.774v1.693
	c0,2.802,2.085,5.081,4.887,5.081h28.226c2.801,0,4.887-2.279,4.887-5.081v-1.693v-6.774v-9.032L33.344,11.477z M41.845,26.281
	v6.774v1.693c0,2.179-1.708,4.081-3.887,4.081H9.732c-2.179,0-3.887-1.902-3.887-4.081v-1.693v-6.774V20.83h36V26.281z"/>
<line display="none" fill="none" stroke="#939598" stroke-width="1.3828" stroke-miterlimit="10" x1="17.07" y1="27.411" x2="11.425" y2="34.184"/>
<line display="none" fill="none" stroke="#939598" stroke-width="1.3828" stroke-miterlimit="10" x1="31.748" y1="27.411" x2="37.394" y2="34.184"/>
<g display="none">
	<g display="inline">
		<g>
			<defs>
				<polygon id="SVGID_1_" points="23.845,32.181 33.441,26.505 43.038,20.83 23.845,20.83 4.651,20.83 14.249,26.505 				"/>
			</defs>
			<clipPath id="SVGID_2_">
				<use xlink:href="#SVGID_1_"  overflow="visible"/>
			</clipPath>
			<rect x="12.845" y="2.83" clip-path="url(#SVGID_2_)" fill="#FFFFFF" width="22" height="36"/>
		</g>
	</g>
</g>
<rect x="12.845" y="4.83" display="none" fill="#FFFFFF" width="22" height="17"/>
<path display="none" fill="#231F20" d="M29.523,16.654l0.069-0.077H29.53c0.023-0.148,0.047-0.298,0.047-0.454
	c0-1.626-1.318-2.943-2.944-2.943c-1.319,0-2.422,0.873-2.796,2.069c-0.374-1.196-1.478-2.069-2.796-2.069
	c-1.626,0-2.944,1.317-2.944,2.943c0,3.031,5.771,6.771,5.771,6.771S29.523,19.232,29.523,16.654z"/>
<rect x="11.845" y="3.83" display="none" fill="#E4E3E3" width="1" height="9"/>
<rect x="12.845" y="3.83" display="none" fill="#E4E3E3" width="23" height="1"/>
<rect x="34.845" y="3.83" display="none" fill="#E4E3E3" width="1" height="9"/>
</svg>
