<?xml version="1.0" encoding="utf-8"?>
<!-- Generator: Adobe Illustrator 17.0.0, SVG Export Plug-In . SVG Version: 6.00 Build 0)  -->
<!DOCTYPE svg PUBLIC "-//W3C//DTD SVG 1.1//EN" "http://www.w3.org/Graphics/SVG/1.1/DTD/svg11.dtd">
<svg version="1.1" id="Layer_1" xmlns="http://www.w3.org/2000/svg" xmlns:xlink="http://www.w3.org/1999/xlink" x="0px" y="0px"
	 width="40px" height="40px" viewBox="0 0 40 40" enable-background="new 0 0 40 40" xml:space="preserve">
<g>
	<path fill="#ABD6ED" d="M22.466,4.024L22.466,4.024V2.523h-4.932v1.502l0,0c0,16.285-4.62,11.387-4.62,19.07
		c0,1.824,0,7.029,0,7.029c0,4.859,2.175,5.299,4.859,5.299h4.454c2.684,0,4.859-0.44,4.859-5.299c0,0,0-5.179,0-7.029
		C27.086,15.411,22.466,20.309,22.466,4.024z"/>
	<g>
		<path fill="#F8C97F" d="M17.883,0.019l0.098,0.938c0.041-0.013,0.083-0.026,0.129-0.026c0.234,0,0.424,0.19,0.424,0.424
			s-0.19,0.424-0.424,0.424c-0.015,0-0.029-0.007-0.044-0.009l0.315,3.007h3.238l0.042-0.4c-0.261-0.065-0.458-0.291-0.458-0.572
			c0-0.325,0.259-0.586,0.581-0.597l0.334-3.189C22.117,0.019,17.883,0.019,17.883,0.019z"/>
		<path fill="#DCB47C" d="M21.202,3.805c0,0.281,0.197,0.507,0.458,0.572l0.122-1.169C21.461,3.219,21.202,3.48,21.202,3.805z"/>
		<path fill="#DCB47C" d="M18.534,1.355c0-0.234-0.19-0.424-0.424-0.424c-0.046,0-0.087,0.013-0.129,0.026l0.085,0.812
			c0.015,0.002,0.028,0.009,0.044,0.009C18.344,1.779,18.534,1.589,18.534,1.355z"/>
	</g>
	<circle fill="#DCB47C" cx="19.452" cy="3.891" r="0.548"/>
	<circle fill="#DCB47C" cx="21.553" cy="2.302" r="0.22"/>
	<circle fill="#DCB47C" cx="21.202" cy="0.653" r="0.317"/>
	<circle fill="#DCB47C" cx="19.91" cy="1.094" r="0.317"/>
	<circle fill="#DCB47C" cx="20" cy="2.336" r="0.407"/>
	<polygon opacity="0.4" fill="#5B96B4" enable-background="new    " points="18.08,2.523 21.92,2.523 21.684,4.777 18.316,4.777 	
		"/>
	<rect x="12.914" y="21.907" opacity="0.4" fill="#4B7A8C" enable-background="new    " width="14.172" height="1.227"/>
	<rect x="12.914" y="23.134" fill="#977DAA" width="14.172" height="6.941"/>
</g>
</svg>
