<?xml version="1.0" encoding="utf-8"?>
<!-- Generator: Adobe Illustrator 17.0.0, SVG Export Plug-In . SVG Version: 6.00 Build 0)  -->
<!DOCTYPE svg PUBLIC "-//W3C//DTD SVG 1.1//EN" "http://www.w3.org/Graphics/SVG/1.1/DTD/svg11.dtd">
<svg version="1.1" id="Layer_2" xmlns="http://www.w3.org/2000/svg" xmlns:xlink="http://www.w3.org/1999/xlink" x="0px" y="0px"
	 width="960px" height="785px" viewBox="0 0 960 785" enable-background="new 0 0 960 785" xml:space="preserve">
<path fill="#A3A3A3" d="M749.217,760.051l-536.103-1.331c0,0-4.539,11.92,9.363,13.84l-0.076,0
	c2.142,0.612,6.835,11.694,9.386,11.694c2.551,0,492.868,0,495.418,0s7.243-10.814,9.386-11.426l-1.477-0.001
	C753.894,772.81,749.217,760.051,749.217,760.051z"/>
<path fill="#D7D7D7" d="M471.736,715.697l-219.953,1.632c-17.139,2.652-21.832,13.671-27.341,22.648l-10.406,17.139
	c-4.285,6.325,0.408,10.202,8.57,10.814c8.162,0.612,508.477,0.612,516.639,0c8.161-0.612,12.854-4.489,8.57-10.814l-10.406-17.139
	c-5.509-8.978-10.202-19.996-27.341-22.648l-219.953-1.632H471.736z"/>
<path fill="#A3A3A3" d="M471.94,728.211c0,0,2.448,1.36,8.162,1.36s8.162-1.36,8.162-1.36l-4.625-143.099h-8.162L471.94,728.211z"/>
<path d="M927.354,0.747H32.646C14.616,0.747,0,15.363,0,33.393v519.073c0,18.03,14.616,32.646,32.646,32.646h894.708
	c18.03,0,32.646-14.616,32.646-32.646V33.393C960,15.363,945.384,0.747,927.354,0.747z"/>
<polygon opacity="0.8" fill="#8A8A8A" points="484.104,599.5 475.118,599.625 475.241,585.112 483.639,585.112 "/>
</svg>
