<?xml version="1.0" encoding="utf-8"?>
<!-- Generator: Adobe Illustrator 17.0.0, SVG Export Plug-In . SVG Version: 6.00 Build 0)  -->
<!DOCTYPE svg PUBLIC "-//W3C//DTD SVG 1.1//EN" "http://www.w3.org/Graphics/SVG/1.1/DTD/svg11.dtd">
<svg version="1.1" id="Layer_2" xmlns="http://www.w3.org/2000/svg" xmlns:xlink="http://www.w3.org/1999/xlink" x="0px" y="0px"
	 width="960px" height="784px" viewBox="0 0 960 784" enable-background="new 0 0 960 784" xml:space="preserve">
<g>
	<path fill="#A3A3A3" d="M341.7095032,773.8417969l-0.0004883,4.171875c0,0,9.6703796,5.7978516,35.4555969,5.7978516
		c25.7850952,0,180.5960693,0,206.3812866,0s35.4561157-5.7978516,35.4561157-5.7978516v-3.9667969"/>
	<g>
		<g>
			<path fill="#D7D7D7" d="M0,573.8690796v67.1329346c0,12.1347046,9.8368998,21.9707031,21.9706993,21.9707031h916.0585938
				c12.1347656,0,21.9707031-9.8359985,21.9707031-21.9707031v-67.1329346H0z"/>
		</g>
	</g>
	<path d="M938.0292969,0.1885376H21.9707031C9.8369141,0.1885376,0,10.0253906,0,22.1591797v551.7098999h960V22.1591797
		C960,10.0253906,950.1640625,0.1885376,938.0292969,0.1885376z"/>
	<line fill="none" stroke="#000000" stroke-miterlimit="10" x1="0" y1="573.8690796" x2="960" y2="573.8690796"/>
	<g>
		<path d="M473.026886,605.0360718c1.2797241,0,2.8237,0.2647095,4.6323242,0.7940063
			c1.8261719,0.5292969,3.0370789,0.7939453,3.6356812,0.7939453c0.7676086,0,2.0215149-0.2998047,3.7616882-0.8965454
			c1.7403259-0.5975952,3.2520142-0.8955078,4.5293274-0.8955078c2.0995789,0,3.9677734,0.5625,5.6064758,1.6875
			c0.9208984,0.6494141,1.8340149,1.5284424,2.7391968,2.6368408c-1.3661804,1.1610718-2.3651733,2.1932983-2.9960938,3.0985718
			c-1.1424866,1.6367188-1.7147827,3.4462891-1.7147827,5.4258423c0,2.1659546,0.6063843,4.1190796,1.8164062,5.8612671
			c1.2118835,1.7402344,2.5956726,2.8417969,4.1483765,3.2998047c-0.6502991,2.0996094-1.7236023,4.2949219-3.2254944,6.5791016
			c-2.2695923,3.4307251-4.5224915,5.1455078-6.756897,5.1455078c-0.8876953,0-2.1152039-0.2803345-3.6864929-0.8447266
			c-1.5518188-0.5634766-2.8652039-0.8446655-3.9403992-0.8446655s-2.3296204,0.2918701-3.7626953,0.8690796
			c-1.417511,0.5977173-2.5689087,0.8955078-3.4551086,0.8955078c-2.6802063,0-5.3066101-2.2666016-7.8837891-6.8057251
			c-2.5767212-4.4891968-3.8652039-8.8924561-3.8652039-13.2088623c0-4.0108032,0.980896-7.2774048,2.9432983-9.8027954
			C467.532196,606.2988281,470.0243835,605.0360718,473.026886,605.0360718 M489.914093,593.5703125
			c0.0155945,0.1610718,0.023407,0.3203125,0.023407,0.4794922c0,1.0194702-0.2383118,2.1367188-0.7187195,3.3477173
			c-0.476593,1.2128906-1.234375,2.3378906-2.2714844,3.3719482c-0.8916016,0.8780518-1.7774048,1.4678345-2.6534119,1.7705078
			c-0.5594788,0.1748047-1.4042969,0.3116455-2.5361023,0.406311c0.0322266-2.4229126,0.6621094-4.5194702,1.8897095-6.2910156
			c1.2420959-1.7685547,3.2919922-2.9804688,6.1455078-3.6347656L489.914093,593.5703125z"/>
	</g>
	<path fill="#D7D7D7" d="M574.6962891,662.9727173l7.0184937,66.828064
		c4.5772095,14.9521484,21.2081299,27.0057983,29.2940063,35.0917969c8.0869141,8.0869141,10.0703125,9.1542969,5.7977905,10.680603
		c-4.2713623,1.5253906-15.5039062,2.4404907-19.9569702,2.4404907c-4.4541016,0-228.5342102,0-232.9883118,0
		c-4.4535828,0-15.6860046-0.9151001-19.9580078-2.4404907c-1.4784851-0.5282593-2.207489-1.0018921-2.1937866-1.7313843
		c0.0263062-1.375,2.7045898-3.6630859,7.9916992-8.9492188c8.0863953-8.0859985,24.7172852-20.1396484,29.2944031-35.0917969
		l7.0185852-66.828064H574.6962891z"/>
	<polygon fill="#C4C4C4" points="386.0141907,662.9727173 574.6962891,662.9727173 578.5895386,700 382.0830078,700 	"/>
</g>
</svg>
