<?xml version="1.0" encoding="utf-8"?>
<!-- Generator: Adobe Illustrator 17.0.0, SVG Export Plug-In . SVG Version: 6.00 Build 0)  -->
<!DOCTYPE svg PUBLIC "-//W3C//DTD SVG 1.1//EN" "http://www.w3.org/Graphics/SVG/1.1/DTD/svg11.dtd">
<svg version="1.1" id="Layer_1" xmlns="http://www.w3.org/2000/svg" xmlns:xlink="http://www.w3.org/1999/xlink" x="0px" y="0px"
	 width="400px" height="324px" viewBox="0 0 400 324" enable-background="new 0 0 400 324" xml:space="preserve">
<g>
	
		<text transform="matrix(1 0 0 1 22.3479462 7.1545181)" fill="#97D8E5" font-family="'GillSansMTPro-Medium'" font-size="5.2617502">WISH YOU WERE HERE</text>
	<circle fill="none" stroke="#97D8E5" stroke-miterlimit="10" cx="64.444809" cy="28.1285095" r="3.8888876"/>
	<circle fill="none" stroke="#97D8E5" stroke-miterlimit="10" cx="64.444809" cy="28.1285095" r="3.8888876"/>
	<circle fill="none" stroke="#97D8E5" stroke-miterlimit="10" cx="50.0003738" cy="28.1285095" r="3.8888876"/>
	<circle fill="none" stroke="#97D8E5" stroke-miterlimit="10" cx="50.0003738" cy="28.1285095" r="3.8888876"/>
	<circle fill="none" stroke="#97D8E5" stroke-miterlimit="10" cx="78.8892517" cy="28.1111603" r="3.8888876"/>
	<circle fill="none" stroke="#97D8E5" stroke-miterlimit="10" cx="78.8892517" cy="28.1111603" r="3.8888876"/>
	<circle fill="none" stroke="#97D8E5" stroke-miterlimit="10" cx="35.5559311" cy="28.1111603" r="3.8888876"/>
	<circle fill="none" stroke="#97D8E5" stroke-miterlimit="10" cx="35.5559311" cy="28.1111603" r="3.8888876"/>
	<circle fill="none" stroke="#97D8E5" stroke-miterlimit="10" cx="21.111496" cy="28.1111603" r="3.8888876"/>
	<circle fill="none" stroke="#97D8E5" stroke-miterlimit="10" cx="21.111496" cy="28.1111603" r="3.8888876"/>
	<path fill="none" stroke="#97D8E5" stroke-miterlimit="10" d="M0,95.2755356
		c16.3016491-2.5225983,32.9995308-3.8310699,50.0001869-3.8310699c17.0005226,0,33.6982841,1.3084488,49.9998131,3.8310165"/>
	<path fill="none" stroke="#97D8E5" stroke-miterlimit="10" d="M57.7781487,107.1389084
		c-2.6388893,1.5277786-14.0169067,0.6944427-15.2669067,0.2777786c-1.25-0.4166718-0.2777786-4.3055573-0.2777786-6.3888855
		c0-2.0833359-0.2777786-19.3055496-0.5555573-22.0833282c-0.2777748-2.7777786,4.8611107-14.9999962,5-16.6666603
		c0.1388893-1.6666679,0-11.3888855-0.5555573-13.6111069c-0.5555534-2.2222214,0.6944466-3.3333321,0.8333359-4.5833321
		s1.25-1.1111107,2.7777748-1.1111107h0.6835785c1.5277786,0,2.6388893-0.1388893,2.7777786,1.1111107
		s1.3888855,2.3611107,0.8333321,4.5833321c-0.5555573,2.2222214-0.6944427,11.9444389-0.5555573,13.6111069
		c0.1388893,1.6666641,5.2777786,13.8888817,5,16.6666603s-0.5555573,19.9999924-0.5555573,22.0833282
		c0,2.0833282,0.9722252,5.6944427-0.2777748,6.1111069"/>
	<rect x="39.2364883" y="147.3298492" fill="none" stroke="#97D8E5" stroke-miterlimit="10" width="21.527771" height="2.8645947"/>
	<circle fill="none" stroke="#97D8E5" stroke-miterlimit="10" cx="50.0003738" cy="165.3333435" r="8.6111078"/>
	<circle fill="none" stroke="#97D8E5" stroke-miterlimit="10" cx="50.0003738" cy="249.4305115" r="13.6805506"/>
	<path fill="none" stroke="#97D8E5" stroke-miterlimit="10" d="M54.4386063,235.854538c0,0,0.853138-1.9333801,0.853138-2.8664093
		c0-2.9224243-2.3692474-5.2914734-5.2914848-5.2913971c-2.9223595,0.0001373-5.2913284,2.3693085-5.2912598,5.2916718
		c0,1.0986938,0.3769836,2.007309,0.8435669,2.8661346l4.3694992,7.1199646L54.4386063,235.854538z"/>
	
		<rect x="22.0391579" y="268.6733704" fill="none" stroke="#97D8E5" stroke-miterlimit="10" width="55.9224319" height="54.755249"/>
	
		<rect x="28.3337135" y="274.8703308" fill="none" stroke="#97D8E5" stroke-miterlimit="10" width="43.3333206" height="5.5555539"/>
	
		<rect x="28.3337135" y="281.8704529" fill="none" stroke="#97D8E5" stroke-miterlimit="10" width="43.3333206" height="5.5555539"/>
	
		<rect x="28.3337135" y="288.8705444" fill="none" stroke="#97D8E5" stroke-miterlimit="10" width="43.3333206" height="5.5555539"/>
	
		<rect x="28.3337135" y="315.4073486" fill="none" stroke="#97D8E5" stroke-miterlimit="10" width="43.3333206" height="5.5555539"/>
	
		<rect x="28.3337135" y="295.7527771" fill="none" stroke="#97D8E5" stroke-miterlimit="10" width="43.3333206" height="17.3305721"/>
	<line fill="none" stroke="#97D8E5" stroke-miterlimit="10" x1="23.6300106" y1="272.6967163" x2="25.5212135" y2="270.8055115"/>
	<line fill="none" stroke="#97D8E5" stroke-miterlimit="10" x1="25.5212135" y1="272.6967163" x2="23.6300106" y2="270.8055115"/>
	<path fill="none" stroke="#97D8E5" stroke-miterlimit="10" d="M4.4448314,0.3333873
		C21.1114922,14.5000496,38.7612419,17.555603,50.0752487,17.555603"/>
	<path fill="none" stroke="#97D8E5" stroke-miterlimit="10" d="M95.561348,0.3333873
		C78.8946838,14.5000496,61.2449341,17.555603,49.9309273,17.555603"/>
	<line fill="none" stroke="#97D8E5" stroke-miterlimit="10" x1="50.000782" y1="250.0392761" x2="50.000782" y2="183.4003448"/>
	<line fill="none" stroke="#97D8E5" stroke-miterlimit="10" x1="25.0391541" y1="183.4003448" x2="25.0391541" y2="250.0392761"/>
	<line fill="none" stroke="#97D8E5" stroke-miterlimit="10" x1="74.9615936" y1="183.4003448" x2="74.9615936" y2="250.0392761"/>
	<line fill="none" stroke="#97D8E5" stroke-miterlimit="10" x1="0.0003719" y1="204.208252" x2="100.0003738" y2="204.208252"/>
	<line fill="none" stroke="#97D8E5" stroke-miterlimit="10" x1="100.0003738" y1="183.4003296" x2="0.0003719" y2="183.4003296"/>
	<line fill="none" stroke="#97D8E5" stroke-miterlimit="10" x1="0.0003719" y1="250.0392456" x2="100.0003738" y2="250.0392456"/>
	<line fill="none" stroke="#97D8E5" stroke-miterlimit="10" x1="100.0003738" y1="229.2313232" x2="0.0003719" y2="229.2313232"/>
</g>
<circle fill="#97D8E5" cx="269.5" cy="268.6733704" r="5"/>
<line fill="none" stroke="#97D8E5" stroke-miterlimit="10" x1="264.5" y1="268.6733704" x2="77.9615936" y2="268.6733704"/>
</svg>
