<svg version="1.1" id="Layer_8" xmlns="http://www.w3.org/2000/svg" xmlns:xlink="http://www.w3.org/1999/xlink" x="0" y="0" viewBox="0 0 70 56" xml:space="preserve" enable-background="new 0 0 70 56"><style type="text/css">.st0{fill:#f9e4c7;stroke:#f9e4c7;stroke-width:.9147;stroke-linecap:round;stroke-linejoin:round}.st1{fill:none}.st2,.st3{fill:#20c2ef;stroke:#394d54;stroke-width:2.7441;stroke-linejoin:round}.st3{stroke-width:.9147}.st4{opacity:.3;fill:#fff;enable-background:new}.st5,.st6{fill:#0eacd1;stroke:#394d54;stroke-width:.9147;stroke-linejoin:round}.st6{stroke-width:.4573}.st7,.st8{opacity:.12;enable-background:new}.st8{opacity:5e-2}.st9{fill:none;stroke:#f9e4c7;stroke-width:.9147;stroke-linecap:round;stroke-linejoin:round}</style><title>getting-started</title><path class="st0" d="M7.6,22.5l1.5-1.3c1.1-1,2.8-1,3.9,0l1.5,1.3L13.2,21c-1-1.1-1-2.8,0-3.9l1.3-1.5L13,16.9c-1.1,1-2.8,1-3.9,0	l-1.5-1.3l1.3,1.5c1,1.1,1,2.8,0,3.9L7.6,22.5z"/><rect class="st1" width="70" height="56"/><polygon class="st2" points="34,9.7 54.6,19 54.6,42.8 34,53.6 13.4,42.8 13.4,19"/><polygon class="st3" points="54.6,42.8 54.6,19 34,29.3 34,53.6"/><polygon class="st3" points="34,29.3 54.6,19 34,9.7 13.4,19"/><polygon class="st4" points="34,11 15.4,19.5 14.5,19.1 34,10.2 53.5,19.1 52.7,19.5"/><polygon class="st4" points="54.1,19.8 54.1,20.6 34.5,30.4 34.5,29.6"/><polygon class="st5" points="13.4,42.8 13.4,19 34,29.3 34,53.6"/><polygon class="st6" points="48.4,43 50.9,41.7 50.9,24.5 48.4,25.7"/><polygon class="st6" points="43.5,45.5 46,44.2 46,27 43.5,28.2"/><polygon class="st6" points="38.7,48.2 41.1,46.9 41.1,29.7 38.7,31"/><polygon class="st7" points="50.6,24.9 50.6,41.6 50,41.9 50,26 50,26 48.7,26.6 48.7,25.9"/><polygon class="st7" points="45.7,27.3 45.7,44.1 45.1,44.4 45.1,28.5 45.1,28.5 43.8,29.1 43.8,28.4"/><polygon class="st7" points="40.8,30.1 40.8,46.8 40.2,47.1 40.2,31.2 40.2,31.2 38.9,31.8 38.9,31.1"/><polygon class="st8" points="13.9,19.8 33.6,29.6 33.6,30.4 17.5,44.4 13.9,42.5"/><path class="st0" d="M4.9,8.3c0.1-0.9,0.7-1.5,1.6-1.6l1.1-0.1L6.5,6.5C5.6,6.5,4.9,5.8,4.9,4.9L4.8,3.8L4.7,4.9	C4.7,5.8,4,6.5,3.1,6.5L2,6.6l1.1,0.1C4,6.7,4.7,7.4,4.7,8.3l0.1,1.1L4.9,8.3"/><circle class="st9" cx="18" cy="7.9" r="1.4"/><path class="st0" d="M67.7,20.8c-0.6-0.7-0.6-1.6,0-2.3l0.7-0.9l-0.9,0.7C67,19,66,19,65.4,18.4l-0.9-0.7l0.7,0.9	c0.6,0.7,0.6,1.6,0,2.3l-0.7,0.9l0.9-0.7c0.7-0.6,1.6-0.6,2.3,0l0.9,0.7L67.7,20.8"/><path class="st0" d="M44.3,10.4l0.1-1.5c0.1-1.2,1-2.1,2.2-2.2l1.5-0.1l-1.5-0.1c-1.2-0.1-2.1-1-2.2-2.2l-0.1-1.5l-0.1,1.5	c-0.1,1.2-1,2.1-2.2,2.2l-1.5,0.1L42,6.7c1.2,0.1,2.1,1,2.2,2.2L44.3,10.4z"/><circle class="st9" cx="59.1" cy="4.3" r="1.4"/></svg>