<?xml version="1.0" encoding="utf-8"?>
<!-- Generator: Adobe Illustrator 17.0.0, SVG Export Plug-In . SVG Version: 6.00 Build 0)  -->
<!DOCTYPE svg PUBLIC "-//W3C//DTD SVG 1.1//EN" "http://www.w3.org/Graphics/SVG/1.1/DTD/svg11.dtd">
<svg version="1.1" id="Layer_1" xmlns="http://www.w3.org/2000/svg" xmlns:xlink="http://www.w3.org/1999/xlink" x="0px" y="0px"
	 width="210px" height="70px" viewBox="-55 15 210 70" enable-background="new -55 15 210 70" xml:space="preserve">
<g>
	<path opacity="0.8" fill="#8B8A8A" enable-background="new    " d="M9.2999725,44.8178749l-25.7152634,25.7123909
		c-0.944313,0.9471893-2.2513809,1.4999542-3.5929985,1.4999542c-1.3416138,0-2.6429253-0.5527649-3.5526924-1.4999542
		l-25.7152634-25.7123909c-0.944313-0.9097672-1.3906326-2.2181854-1.4970818-3.5555725
		c-0.1262436-1.5860634-0.2822266-6.8165321,0.6620903-7.7637253l30.1029472,20.4025574l30.1164818-20.4025574
		c0.9097595,0.9471931,0.8189545,6.0324097,0.6543198,7.7637253C10.6355057,42.5978966,10.2097397,43.9081078,9.2999725,44.8178749z
		"/>
	<path fill="#D7D7D7" d="M9.2999725,39.5433731l-25.7152634,25.7123871c-0.944313,0.947197-2.2513809,1.4999619-3.5929985,1.4999619
		c-1.3416138,0-2.6429253-0.5527649-3.5526924-1.4999619l-25.7152634-25.7123871
		c-0.944313-0.9097633-1.4970818-2.2139549-1.4970818-3.5555687c0-1.3416176,0.5527687-2.6458054,1.4970818-3.5929985
		l2.9250679-2.9624958c0.9500694-0.9097652,2.2513809-1.462534,3.5929985-1.462534
		c1.3416138,0,2.6486816,0.5527687,3.5584488,1.462534l19.1914406,19.1943226l19.1972008-19.1943226
		c0.9097672-0.9097652,2.2110748-1.462534,3.5526886-1.462534c1.3416216,0,2.6486895,0.5527687,3.5930026,1.462534
		l2.9653697,2.9624958c0.9097672,0.9471931,1.4625397,2.2513809,1.4625397,3.5929985
		C10.7625122,37.3294182,10.2097397,38.6336098,9.2999725,39.5433731z"/>
</g>
<g opacity="0.8" enable-background="new    ">
	<path fill="#8B8A8A" d="M80.7625122,64.0121918c0,1.3416138-0.5527725,2.6458054-1.4625397,3.5930023l-2.9653702,2.9624939
		c-0.944313,0.9097595-2.2513809,1.462532-3.5930023,1.462532c-1.3416138,0-2.6429214-0.5527725-3.5526886-1.462532
		L49.9917107,51.3733635L30.8002682,70.567688c-0.9097652,0.9097595-2.2168331,1.462532-3.5584488,1.462532
		c-1.3416176,0-2.6429272-0.5527725-3.5929985-1.462532l-2.9250679-2.9624939
		c-0.944313-0.947197-1.4970818-2.2513885-1.4970818-3.5930023s-0.3996792-6.3421783,0.5446339-7.2519417L46.4390182,34.744236
		c0.9097672-0.947197,6.2013779-0.947197,7.1456909,0l26.4896469,21.735321
		C80.9841232,57.3893204,80.7625122,62.670578,80.7625122,64.0121918z"/>
</g>
<g>
	<path fill="#D7D7D7" d="M80.7625122,59.0121918c0,1.3416176-0.5527725,2.6458054-1.4625397,3.5929985l-2.9653702,2.9624977
		c-0.944313,0.9097595-2.2513809,1.462532-3.5930023,1.462532c-1.3416138,0-2.6429214-0.5527725-3.5526886-1.462532
		L49.9917107,46.3733635L30.8002682,65.567688c-0.9097652,0.9097595-2.2168331,1.462532-3.5584488,1.462532
		c-1.3416176,0-2.6429272-0.5527725-3.5929985-1.462532l-2.9250679-2.9624977
		c-0.944313-0.9471931-1.4970818-2.2513809-1.4970818-3.5929985c0-1.3416138,0.5527687-2.6458054,1.4970818-3.5555687
		L46.4390182,29.744236c0.9097672-0.947197,2.2110786-1.4999619,3.5526924-1.4999619
		c1.3416176,0,2.6486855,0.5527649,3.5929985,1.4999619l25.7152634,25.7123871
		C80.2097397,56.3663864,80.7625122,57.670578,80.7625122,59.0121918z"/>
</g>
<g>
	<path opacity="0.8" fill="#8B8A8A" enable-background="new    " d="M140.2417603,65.7452164
		c2.4965515-3.8891029,3.9502869-8.5100632,3.9502869-13.474472c0-2.2969971,0.1680908-6.9676437-0.4123993-9.0802116
		c-2.9058533-10.5752296-13.0673218-15.8979588-24.565773-15.8979588c-11.7826157,0-22.0386887,5.5379467-24.6699677,16.5135784
		c-0.449501,1.874958-0.308197,6.4517708-0.308197,8.464592c0,13.7954407,11.182724,24.9781647,24.9781647,24.9781647
		c5.2903824,0,10.1935959-2.6926117,14.2325668-5.498909c0,0,6.8606567,1.8735199,12.3388977-0.5715485L140.2417603,65.7452164z"/>
	<path fill="#D7D7D7" d="M140.2417603,61.2037315c2.4965515-3.8891029,3.9502869-8.5100632,3.9502869-13.4744759
		c0-13.7954407-11.182724-24.9781685-24.9781723-24.9781685c-13.795433,0-24.9781647,11.1827278-24.9781647,24.9781685
		s11.182724,24.9781723,24.9781647,24.9781723c5.2903824,0,10.1935959-1.6498108,14.2325668-4.4561081
		c0,0,7.6967163,3.6140289,12.3388977,2.9271317L140.2417603,61.2037315z"/>
</g>
</svg>
