<?xml version="1.0" encoding="utf-8"?>
<!-- Generator: Adobe Illustrator 17.0.0, SVG Export Plug-In . SVG Version: 6.00 Build 0)  -->
<!DOCTYPE svg PUBLIC "-//W3C//DTD SVG 1.1//EN" "http://www.w3.org/Graphics/SVG/1.1/DTD/svg11.dtd">
<svg version="1.1" id="Layer_1" xmlns="http://www.w3.org/2000/svg" xmlns:xlink="http://www.w3.org/1999/xlink" x="0px" y="0px"
	 width="210px" height="70px" viewBox="0 0 210 70" enable-background="new 0 0 210 70" xml:space="preserve">
<g>
	<g>
		<path opacity="0.8" fill="#8B8A8A" enable-background="new    " d="M66.842,29.818L41.126,55.53c-0.944,0.947-2.251,1.5-3.593,1.5
			c-1.342,0-2.643-0.553-3.553-1.5L8.265,29.818c-0.944-0.91-1.391-2.218-1.497-3.556c-0.126-1.586-0.282-6.817,0.662-7.764
			l30.103,20.403L67.65,18.499c0.91,0.947,0.819,6.032,0.654,7.764C68.177,27.598,67.751,28.908,66.842,29.818z"/>
		<path fill="#D7D7D7" d="M66.842,24.543L41.126,50.256c-0.944,0.947-2.251,1.5-3.593,1.5c-1.342,0-2.643-0.553-3.553-1.5
			L8.265,24.543c-0.944-0.91-1.497-2.214-1.497-3.556c0-1.342,0.553-2.646,1.497-3.593l2.925-2.962
			c0.95-0.91,2.251-1.463,3.593-1.463c1.342,0,2.649,0.553,3.558,1.463l19.191,19.194L56.73,14.432
			c0.91-0.91,2.211-1.463,3.553-1.463c1.342,0,2.649,0.553,3.593,1.463l2.965,2.962c0.91,0.947,1.463,2.251,1.463,3.593
			C68.304,22.329,67.751,23.634,66.842,24.543z"/>
	</g>
	<g opacity="0.8" enable-background="new    ">
		<path fill="#8B8A8A" d="M138.304,49.012c0,1.342-0.553,2.646-1.463,3.593l-2.965,2.962c-0.944,0.91-2.251,1.463-3.593,1.463
			s-2.643-0.553-3.553-1.463l-19.197-19.194L88.342,55.568c-0.91,0.91-2.217,1.463-3.558,1.463c-1.342,0-2.643-0.553-3.593-1.463
			l-2.925-2.962c-0.944-0.947-1.497-2.251-1.497-3.593s-0.4-6.342,0.545-7.252l26.668-22.016c0.91-0.947,6.201-0.947,7.146,0
			l26.49,21.735C138.526,42.389,138.304,47.671,138.304,49.012z"/>
	</g>
	<g>
		<path fill="#D7D7D7" d="M138.304,44.012c0,1.342-0.553,2.646-1.463,3.593l-2.965,2.962c-0.944,0.91-2.251,1.463-3.593,1.463
			s-2.643-0.553-3.553-1.463l-19.197-19.194L88.342,50.568c-0.91,0.91-2.217,1.463-3.558,1.463c-1.342,0-2.643-0.553-3.593-1.463
			l-2.925-2.962c-0.944-0.947-1.497-2.251-1.497-3.593c0-1.342,0.553-2.646,1.497-3.556l25.715-25.712
			c0.91-0.947,2.211-1.5,3.553-1.5c1.342,0,2.649,0.553,3.593,1.5l25.715,25.712C137.751,41.366,138.304,42.671,138.304,44.012z"/>
	</g>
	<g>
		<path opacity="0.8" fill="#8B8A8A" enable-background="new    " d="M196.82,50.028c2.381-3.709,3.576-8.121,3.768-12.852
			c0.169-4.177,0.169-4.177,0.169-4.177c-2.772-10.087-13.026-19.647-23.993-19.647c-11.238,0-21.495,9.179-24.005,19.647
			c0,0,0,0,0.181,4.177C153.509,50.322,163.606,61,176.764,61c5.046,0,9.723-2.568,13.575-5.245c0,0,6.544,1.787,11.769-0.545
			L196.82,50.028z"/>
		<path fill="#D7D7D7" d="M196.961,45.945c2.399-3.737,3.795-8.176,3.795-12.946C200.757,19.744,190.013,9,176.758,9
			c-13.255,0-23.999,10.744-23.999,23.999s10.744,23.999,23.999,23.999c5.083,0,9.794-1.585,13.675-4.281
			c0,0,7.395,3.472,11.855,2.812L196.961,45.945z"/>
	</g>
</g>
</svg>
