<?xml version="1.0" encoding="utf-8"?>
<!-- Generator: Adobe Illustrator 17.0.0, SVG Export Plug-In . SVG Version: 6.00 Build 0)  -->
<!DOCTYPE svg PUBLIC "-//W3C//DTD SVG 1.1//EN" "http://www.w3.org/Graphics/SVG/1.1/DTD/svg11.dtd">
<svg version="1.1" id="Layer_1" xmlns="http://www.w3.org/2000/svg" xmlns:xlink="http://www.w3.org/1999/xlink" x="0px" y="0px"
	 width="240px" height="60px" viewBox="-100 -10 240 60" enable-background="new -100 -10 240 60" xml:space="preserve">
<rect x="47.8450012" y="19.8299999" display="none" fill="#2BB673" width="12" height="20.0000019"/>
<ellipse display="none" fill="#2BB673" cx="53.8450012" cy="40.1730003" rx="5.8240013" ry="1.6559982"/>
<ellipse display="none" fill="#2BB673" cx="53.8450012" cy="19.5699997" rx="5.8240013" ry="5.5190005"/>
<path display="none" fill="#2BB673" d="M56.8450012,4.8319998c0,1.6529999-1.3279991,2.9980001-2.9690018,2.9980001
	c-1.6419983,0-2.9700012-1.3450003-2.9700012-2.9980001c0-1.661,1.3279991-3.0020001,2.9700012-3.0020001
	C55.5169983,1.83,56.8450012,3.171,56.8450012,4.8319998z"/>
<rect x="50.8450012" y="3.8299999" display="none" fill="#2BB673" width="6" height="12"/>
<path display="none" fill="#231F20" d="M23.875,7.5440001c-1.0440006,0-2.0300007-0.296-3.0300007-0.816v2.5700002
	c1,0.6269999,1.9619999,0.9940004,3.0300007,0.9940004c1.0429993,0,1.9699993-0.3529997,2.9699993-0.9539995v-2.578001
	C25.8449993,7.2579999,24.8950005,7.5440001,23.875,7.5440001z"/>
<path display="none" fill="#231F20" d="M23.875,8.7119999c-0.901001,0-2.0300007,0.0089998-3.0300007-0.4619999V7.8740001l0,0
	c0-0.9039998,2.1420002-1.0440001,3.0289993-1.0440001s1.9710007,0.1399999,2.9710007,1.0440001l0,0V8.25
	C25.8449993,8.7209997,24.7749996,8.7119999,23.875,8.7119999z M21.7339993,8.0139999
	C22.2769985,8.2419996,22.914999,8.3359995,23.875,8.3359995c0.9580002,0,1.5960007-0.0939999,2.1389999-0.3219995
	c-0.3320007-0.5360003-1.0510006-0.8080001-2.1399994-0.8080001S22.066,7.4780002,21.7339993,8.0139999z"/>
<path display="none" fill="#231F20" d="M17.8449993,23.5699997c2,1.0760002,3.8110008,1.7390003,6.0030003,1.7390003
	c2.1879997,0,3.9969997-0.6630001,5.9969997-1.7390003v-2.7399998h-0.4659996c0.0030003,0,0.0839996-0.1399994,0.0839996-0.2240009
	c0-1.9109993-1.618-3.5550003-2.618-4.4750004v-5.5609989c-1,0.4980001-1.9500008,0.7840004-2.9699993,0.7840004
	c-1.0440006,0-2.0300007-0.2959995-3.0300007-0.816V16.132c-1,0.9190006-2.618,2.5629997-2.618,4.4750004
	c0,0.0830002,0.0809994,0.2240009,0.0839996,0.2240009h-0.4659996V23.5699997z"/>
<path display="none" fill="#231F20" d="M29.8449993,37.6759987v-4.4119987c-2,1.2280006-3.8859997,1.9459991-5.9969997,1.9459991
	c-2.1140003,0-4.0030003-0.7190018-6.0030003-1.9469986v4.3540001v2.2849998c2,1.243,3.8729992,1.927002,6,1.927002
	c2.1000004,0,4-0.6640015,6-1.8800011V37.6759987z"/>
<rect x="20.8449993" y="9.8299999" display="none" fill="#231F20" width="6" height="3"/>
<rect x="21.8449993" y="1.8300018" display="none" fill="#231F20" width="4" height="6"/>
<rect x="21.8449993" y="6.8300018" display="none" fill="#E6E7E8" width="4" height="1"/>
<rect x="20.9880009" y="5.6390018" display="none" fill="#BCBEC0" width="0.9519997" height="0.9520001"/>
<rect x="25.7490005" y="5.6390018" display="none" fill="#BCBEC0" width="0.9529991" height="0.9520001"/>
<rect x="20.8449993" y="4.8300018" display="none" fill="#BCBEC0" width="1" height="1"/>
<rect x="25.8449993" y="4.8300018" display="none" fill="#BCBEC0" width="1" height="1"/>
<path display="none" fill="#231F20" d="M23.875,7.5440001c-1.0440006,0-2.0300007-0.296-3.0300007-0.816v2.5700002
	c1,0.6269999,1.9619999,0.9940004,3.0300007,0.9940004c1.0429993,0,1.9699993-0.3529997,2.9699993-0.9539995v-2.578001
	C25.8449993,7.2579999,24.8950005,7.5440001,23.875,7.5440001z"/>
<path display="none" fill="#231F20" d="M23.875,8.7119999c-0.901001,0-2.0300007,0.0220003-3.0300007-1.1680002V6.5910001l0,0
	c0-2.2870002,2.1420002-2.641,3.0289993-2.641s1.9710007,0.3539999,2.9710007,2.641l0,0v0.9530001
	C25.8449993,8.7340002,24.7749996,8.7119999,23.875,8.7119999z M21.7339993,6.9460001
	C22.2769985,7.5220003,22.914999,7.7600002,23.875,7.7600002c0.9580002,0,1.5960007-0.2389998,2.1389999-0.8130002
	c-0.3320007-1.3559999-1.0510006-2.0440001-2.1399994-2.0440001S22.066,5.5900002,21.7339993,6.9460001z"/>
<path display="none" fill="#231F20" d="M17.8449993,23.5699997c2,1.0760002,3.8110008,1.7390003,6.0030003,1.7390003
	c2.1879997,0,3.9969997-0.6630001,5.9969997-1.7390003v-2.7399998h-0.4659996c0.0030003,0,0.0839996-0.1399994,0.0839996-0.2240009
	c0-1.9109993-1.618-3.5550003-2.618-4.4750004v-5.5609989c-1,0.4980001-1.9500008,0.7840004-2.9699993,0.7840004
	c-1.0440006,0-2.0300007-0.2959995-3.0300007-0.816V16.132c-1,0.9190006-2.618,2.5629997-2.618,4.4750004
	c0,0.0830002,0.0809994,0.2240009,0.0839996,0.2240009h-0.4659996V23.5699997z"/>
<rect x="20.8449993" y="9.8299999" display="none" fill="#231F20" width="6" height="3"/>
<path display="none" fill="#231F20" d="M29.8449993,37.6759987v-4.4119987c-2,1.2280006-3.8859997,1.9459991-5.9969997,1.9459991
	c-2.1140003,0-4.0030003-0.7190018-6.0030003-1.9469986v4.3540001v2.2849998c2,1.243,3.8729992,1.927002,6,1.927002
	c2.1000004,0,4-0.6640015,6-1.8800011V37.6759987z"/>
<circle display="none" fill="#231F20" cx="9.1079998" cy="8.6720009" r="2.1050003"/>
<circle display="none" fill="#231F20" cx="31.2129993" cy="4.4609985" r="2.105"/>
<circle display="none" fill="#231F20" cx="6.4759998" cy="34.4609985" r="2.632"/>
<path display="none" fill="#231F20" d="M22.7919998,41.3030014c-10.448,0-18.948-8.5-18.948-18.9470005
	c0-10.448,8.5-18.9470005,18.948-18.9470005c10.4469986,0,18.9469986,8.5,18.9469986,18.9470005
	S33.2389984,41.3030014,22.7919998,41.3030014z M22.7919998,5.5139999c-9.2869997,0-16.8419991,7.5559998-16.8419991,16.8419991
	S13.5050011,39.197998,22.7919998,39.197998c9.2859993,0,16.8409996-7.5559998,16.8409996-16.8419991
	C39.6339989,13.0690002,32.0779991,5.5139999,22.7919998,5.5139999z"/>
<path display="none" fill="#231F20" d="M32.9500008,38.3240013c0.4819984,0.5330009,1.1720009,0.8740005,1.9469986,0.8740005
	c1.4529991,0,2.632-1.1780014,2.632-2.632c0-0.6269989-0.2290001-1.1940002-0.5950012-1.6459999
	C35.7709999,36.2299995,34.4329987,37.3759995,32.9500008,38.3240013z"/>
<circle display="none" fill="none" stroke="#231F20" stroke-miterlimit="10" cx="14.8970003" cy="17.6189995" r="2.1049995"/>
<circle display="none" fill="none" stroke="#231F20" stroke-miterlimit="10" cx="29.3180008" cy="15.355999" r="1.5789995"/>
<circle display="none" fill="none" stroke="#231F20" stroke-miterlimit="10" cx="19.5279999" cy="31.882" r="1.5789995"/>
<path display="none" fill="#231F20" d="M41.5929985,24.6089993c-0.2550011,2.1399994-0.875,4.1669998-1.7859993,6.0279999
	c0.2809982,0.0820007,0.5730019,0.1399994,0.8800011,0.1399994c1.7449989,0,3.1580009-1.4130001,3.1580009-3.157999
	C43.8450012,26.1930008,42.8919983,25,41.5929985,24.6089993z"/>
<circle display="none" fill="#231F20" cx="22.7280006" cy="2.1049995" r="2.105"/>
<circle display="none" fill="#231F20" cx="41.3359985" cy="14.7579994" r="2.1059999"/>
<circle display="none" fill="#231F20" cx="2.631" cy="18.4799995" r="2.632"/>
<path display="none" fill="#231F20" d="M9.3310003,34.855999c-7.388-7.3889999-7.388-19.4090004,0-26.7959995
	c7.3879995-7.388,19.4080009-7.388,26.7949982,0c7.3880005,7.3870001,7.3880005,19.4069996,0,26.7950001
	S16.7180004,42.243,9.3310003,34.855999z M34.6380005,9.5480003c-6.5669994-6.5669999-17.2520008-6.566-23.8180008,0
	s-6.5669999,17.2509995,0,23.8180008c6.566,6.5659981,17.2509995,6.5659981,23.8170013,0
	C41.2039986,26.7989998,41.2039986,16.1140003,34.6380005,9.5480003z"/>
<path display="none" fill="#231F20" d="M18.6200008,39.9309998c-0.0359993,0.7179985,0.2099991,1.4459991,0.7590008,1.9949989
	c1.0279999,1.0270004,2.6940002,1.0279999,3.7220001,0c0.4430008-0.4430008,0.6830006-1.0060005,0.743-1.5839996
	C22.0960007,40.4459991,20.3379993,40.3100014,18.6200008,39.9309998z"/>
<circle display="none" fill="none" stroke="#231F20" stroke-miterlimit="10" cx="20.4950008" cy="12.526001" r="2.1050005"/>
<circle display="none" fill="none" stroke="#231F20" stroke-miterlimit="10" cx="32.2919998" cy="21.1229992" r="1.5790005"/>
<circle display="none" fill="none" stroke="#231F20" stroke-miterlimit="10" cx="13.684" cy="25.8859997" r="1.5790005"/>
<path display="none" fill="#231F20" d="M34.4300003,36.3440018c-1.6930008,1.3330002-3.5650005,2.3279991-5.526001,3
	c0.1420002,0.257,0.3069992,0.5040016,0.5230007,0.7210007c1.2339993,1.2340012,3.2320004,1.2340012,4.467001,0
	C34.901001,39.0569992,35.0709991,37.5400009,34.4300003,36.3440018z"/>
<path display="none" fill="#231F20" d="M16.1340008,18.6369991C17.618,11.5259991,22.9730015,6.2279987,29.531002,4.4439993
	c0.9500008-0.3600001,1.934-0.638,2.9480019-0.8109999c-0.7310009-0.2709999-1.4820004-0.5090001-2.269001-0.674
	c-8.5139999-1.778-16.8579998,3.6819999-18.6369991,12.1960001c-1.3280001,6.3599997,1.3859997,12.6239996,6.3920002,16.1280022
	C15.9580002,27.5470009,15.198,23.1140003,16.1340008,18.6369991z"/>
<path display="none" fill="#231F20" d="M19.5359993,18.6040001c3.2940006-6.474,9.8480015-10.1870003,16.6450005-10.1920004
	c1.0110016-0.1000004,2.0330009-0.1120005,3.0579987-0.0129995c-0.6349983-0.4530001-1.2989998-0.8780003-2.0149994-1.243
	c-7.7499981-3.9440002-17.2339993-0.8559999-21.1779995,6.8970003c-2.9460001,5.7909994-1.9650002,12.5449991,1.9510002,17.2389984
	C17.0359993,27.1599998,17.4629993,22.6800003,19.5359993,18.6040001z"/>
<path display="none" fill="#231F20" d="M32.3429985,25.2789993c-1.4839993,7.1110001-6.8390007,12.4080009-13.3969994,14.1920013
	c-0.9500008,0.3590012-1.934,0.6389999-2.948,0.8110008c0.7310009,0.2709999,1.4820004,0.5099983,2.2689991,0.6739998
	c8.5139999,1.7779999,16.8580017-3.6819992,18.637001-12.1949997c1.3279991-6.3600006-1.3860016-12.6240005-6.3920002-16.1289997
	C32.519001,16.368,33.2779999,20.802,32.3429985,25.2789993z"/>
<path display="none" fill="#231F20" d="M28.9400005,25.3120003C25.6459999,31.7859993,19.092001,35.5,12.2950001,35.5040016
	c-1.0109997,0.0999985-2.033,0.1110001-3.0580006,0.0130005c0.6350002,0.4529991,1.2989998,0.8790016,2.0150003,1.243
	c7.749999,3.9430008,17.2330017,0.8549995,21.1780014-6.8959999c2.9459991-5.7910004,1.9650002-12.5450001-1.9510002-17.2390003
	C31.4400005,16.757,31.0139999,21.2350006,28.9400005,25.3120003z"/>
<path display="none" fill="#231F20" d="M16.1340008,18.6369991C17.618,11.5259991,22.9730015,6.2279987,29.531002,4.4439993
	c0.9500008-0.3600001,1.934-0.638,2.9480019-0.8109999c-0.7310009-0.2709999-1.4820004-0.5090001-2.269001-0.674
	c-8.5139999-1.778-16.8579998,3.6819999-18.6369991,12.1960001c-1.3280001,6.3599997,1.3859997,12.6239996,6.3920002,16.1280022
	C15.9580002,27.5470009,15.198,23.1140003,16.1340008,18.6369991z"/>
<path display="none" fill="#231F20" d="M19.5359993,18.6040001c3.2940006-6.474,9.8480015-10.1870003,16.6450005-10.1920004
	c1.0110016-0.1000004,2.0330009-0.1120005,3.0579987-0.0129995c-0.6349983-0.4530001-1.2989998-0.8780003-2.0149994-1.243
	c-7.7499981-3.9440002-17.2339993-0.8559999-21.1779995,6.8970003c-2.9460001,5.7909994-1.9650002,12.5449991,1.9510002,17.2389984
	C17.0359993,27.1599998,17.4629993,22.6800003,19.5359993,18.6040001z"/>
<path display="none" fill="#231F20" d="M32.3429985,25.2789993c-1.4839993,7.1110001-6.8390007,12.4080009-13.3969994,14.1920013
	c-0.9500008,0.3590012-1.934,0.6389999-2.948,0.8110008c0.7310009,0.2709999,1.4820004,0.5099983,2.2689991,0.6739998
	c8.5139999,1.7779999,16.8580017-3.6819992,18.637001-12.1949997c1.3279991-6.3600006-1.3860016-12.6240005-6.3920002-16.1289997
	C32.519001,16.368,33.2779999,20.802,32.3429985,25.2789993z"/>
<path display="none" fill="#231F20" d="M28.9400005,25.3120003C25.6459999,31.7859993,19.092001,35.5,12.2950001,35.5040016
	c-1.0109997,0.0999985-2.033,0.1110001-3.0580006,0.0130005c0.6350002,0.4529991,1.2989998,0.8790016,2.0150003,1.243
	c7.749999,3.9430008,17.2330017,0.8549995,21.1780014-6.8959999c2.9459991-5.7910004,1.9650002-12.5450001-1.9510002-17.2390003
	C31.4400005,16.757,31.0139999,21.2350006,28.9400005,25.3120003z"/>
<polygon display="none" fill="#231F20" points="38.8450012,16.8299999 38.8450012,17.8299999 37.9640007,17.8299999 
	22.8449993,26.4790001 7.7259998,17.8299999 6.8449998,17.8299999 6.8449998,16.8299999 5.8449998,16.8299999 5.8449998,18.1040001 
	22.8449993,27.8299999 39.8450012,18.1040001 39.8450012,16.8299999 "/>
<path display="none" fill="#231F20" d="M35.473999,34.8300018H10.2159996c-2.4110003,0-4.3720002-1.9230003-4.3720002-4.2859993
	V19.1149998c0-2.3630009,1.961-4.2859993,4.3720002-4.2859993h25.257c2.4099998,0,4.3709984,1.9220009,4.3709984,4.2859993
	v11.4279995C39.8450012,32.9070015,37.8839989,34.8300018,35.473999,34.8300018z M10.2159996,15.8299999
	c-1.875,0-3.3719997,1.448-3.3719997,3.2859993v11.4279995c0,1.8380013,1.4969997,3.2859993,3.3719997,3.2859993h25.257
	c1.8740005,0,3.3709984-1.4480019,3.3709984-3.2859993V19.1149998c0-1.8379993-1.4970016-3.2860003-3.3709984-3.2860003h-25.257
	V15.8299999z"/>
<line display="none" fill="none" stroke="#939598" stroke-width="1.2247" stroke-miterlimit="10" x1="16.8449993" y1="23.8299999" x2="11.8450003" y2="29.8299999"/>
<line display="none" fill="none" stroke="#939598" stroke-width="1.2247" stroke-miterlimit="10" x1="29.8449993" y1="23.8299999" x2="34.8450012" y2="29.8299999"/>
<g>
	<polygon fill="#636363" points="64.9869995,19.1100006 64.9869995,19.1100006 50.3700027,10.2290001 35.0130043,19.1100006 
		35.0130043,19.1100006 45.0040054,25.2759991 54.9960022,25.2759991 	"/>
	<polygon fill="#FFA9A9" points="52.864006,2.4579999 40.564003,2.4579999 40.6740036,25.2759991 59.2340012,25.2759991 
		59.2340012,8.2860003 	"/>
	<polygon fill="#DB9E9E" points="54.9960022,23.5939999 45.0040054,23.5939999 40.6540031,20.75 40.6290054,28.1970005 
		59.2340012,28.1970005 59.2340012,20.8439999 	"/>
	<polygon fill="#B7B7B7" points="35.0130043,19.1100006 35.0130043,34.5419998 45.0040054,25.2759991 	"/>
	<polygon fill="#B7B7B7" points="64.9869995,19.1100006 64.9869995,34.5419998 54.9960022,25.2759991 	"/>
	<polyline fill="#CCCCCC" points="54.9960022,25.2759991 45.0040054,25.2759991 35.0130043,34.5419998 64.9869995,34.5419998 
		54.9960022,25.2759991 	"/>
	<path fill="#FFFFFF" d="M54.064003,14.5389996c0,0,0.0400009-0.2749996,0.0400009-0.3889999
		c0-1.191-0.9650002-2.1560001-2.1559982-2.1560001c-0.9660034,0-1.7740021,0.6389999-2.0480042,1.5159998
		c-0.2739983-0.8760004-1.0830002-1.5159998-2.0479965-1.5159998c-1.1910019,0-2.156002,0.9650002-2.156002,2.1560001
		c0,2.2199993,4.2270012,4.960001,4.2270012,4.960001S54.064003,16.427,54.064003,14.5389996z"/>
	<polygon fill="#AF7E7E" points="52.864006,2.4579999 52.864006,8.1940002 59.2340012,8.2860003 	"/>
</g>
<g>
	<path fill="#ABD6ED" d="M-67.5340042,4.0240002L-67.5340042,4.0240002V2.523h-4.9319992v1.5020001l0,0
		c0,16.2849998-4.6199951,11.387001-4.6199951,19.0699997c0,1.8239994,0,7.0289993,0,7.0289993
		c0,4.8589993,2.1749954,5.2989979,4.8590012,5.2989979h4.4539948c2.6840057,0,4.859005-0.4399986,4.859005-5.2989998
		c0,0,0-5.1790009,0-7.0289993C-62.9140015,15.4110003-67.5340042,20.309-67.5340042,4.0240002z"/>
	<g>
		<path fill="#F8C97F" d="M-72.1170044,0.019l0.0979996,0.938c0.0410004-0.013,0.0830002-0.026,0.1290054-0.026
			c0.2339935,0,0.423996,0.1900001,0.423996,0.424s-0.1900024,0.424-0.423996,0.424
			c-0.0149994,0-0.0289993-0.007-0.0440063-0.0089999l0.3150024,3.007h3.237999l0.0419998-0.4000001
			c-0.260994-0.0650001-0.4580002-0.2909999-0.4580002-0.572c0-0.325,0.2590027-0.586,0.5810013-0.5970001l0.3339996-3.1889999
			C-67.8830032,0.019-72.1170044,0.019-72.1170044,0.019z"/>
		<path fill="#DCB47C" d="M-68.7980042,3.8050001c0,0.2809999,0.1970062,0.5070002,0.4580002,0.5719998l0.1220016-1.1690001
			C-68.5390015,3.2190001-68.7980042,3.48-68.7980042,3.8050001z"/>
		<path fill="#DCB47C" d="M-71.4660034,1.355c0-0.234-0.1899948-0.424-0.423996-0.424c-0.0459976,0-0.086998,0.013-0.1289978,0.026
			l0.0849991,0.812C-71.9189987,1.771-71.9059982,1.778-71.8899994,1.778C-71.6559982,1.779-71.4660034,1.589-71.4660034,1.355z"/>
	</g>
	<circle fill="#DCB47C" cx="-70.5480042" cy="3.8909988" r="0.5480001"/>
	<circle fill="#DCB47C" cx="-68.4469986" cy="2.302002" r="0.22"/>
	<circle fill="#DCB47C" cx="-68.7980042" cy="0.6529999" r="0.317"/>
	<circle fill="#DCB47C" cx="-70.090004" cy="1.0940018" r="0.317"/>
	<circle fill="#DCB47C" cx="-70" cy="2.3359985" r="0.4070001"/>
	<polygon opacity="0.4" fill="#5B96B4" enable-background="new    " points="-71.9199982,2.523 -68.0800018,2.523 
		-68.3160019,4.777 -71.6839981,4.777 	"/>
	
		<rect x="-77.0859985" y="21.9070015" opacity="0.4" fill="#4B7A8C" enable-background="new    " width="14.171999" height="1.2269993"/>
	<rect x="-77.0859985" y="23.1340008" fill="#977DAA" width="14.171999" height="6.941"/>
</g>
<g>
	<circle opacity="0.8" fill="#99918F" enable-background="new    " cx="116.3160019" cy="6.973999" r="1.5789998"/>
	<circle opacity="0.8" fill="#99918F" enable-background="new    " cx="99.737999" cy="10.132" r="1.5790005"/>
	<circle opacity="0.8" fill="#7F7978" enable-background="new    " cx="108.026001" cy="34.1399994" r="1.973999"/>
	<circle opacity="0.8" fill="#7F7978" enable-background="new    " cx="122.0530014" cy="27.4489994" r="2.368"/>
	<circle fill="#FDEFBC" cx="110" cy="20.3950005" r="14.5"/>
	<path fill="#E8DAAF" d="M110,30.5960007c-7.276001,0-13.2819977-5.3649998-14.322998-12.3509998
		C95.5719986,18.948,95.5,19.6620007,95.5,20.3950005c0,8.0079994,6.4920044,14.5,14.5,14.5s14.5-6.4920006,14.5-14.5
		c0-0.7320004-0.0719986-1.4459991-0.177002-2.1499996C123.2830048,25.2310009,117.276001,30.5960007,110,30.5960007z"/>
	<circle opacity="0.8" fill="#B7AEAB" enable-background="new    " cx="104.0800018" cy="16.8419991" r="1.5790005"/>
	<circle opacity="0.8" fill="#B7AEAB" enable-background="new    " cx="114.8950043" cy="15.1450005" r="1.184"/>
	<circle opacity="0.8" fill="#B7AEAB" enable-background="new    " cx="105.6580048" cy="24.3980007" r="1.184"/>
</g>
<g>
	<path fill="#A5588E" d="M-0.5140245,19.2241516c-0.5270519-0.9851818-1.2023735-1.911932-2.0332375-2.742794
		c-0.1622982-0.1623001-0.3357296-0.3057423-0.5049782-0.4564571c-0.8352394-0.7437935-1.7488616-1.3467178-2.7161524-1.8081303
		c0.3945484,0.8270025,0.6900578,1.6880474,0.8782272,2.5696201c0.4903049,0.7563419,0.890131,1.5741425,1.1959383,2.4378242
		c0.3576736,1.0102806,0.5773106,2.0826607,0.6419868,3.1992512c0.0131283,0.226202,0.0343647,0.4502792,0.0343647,0.679697
		c0,1.1750889-0.1778736,2.3078957-0.5017624,3.3771877c-0.4945529,1.6324463-1.343693,3.1061325-2.4494078,4.3482761
		c-1.2917595,1.4512272-2.9377842,2.5734158-4.8067913,3.2350941c-1.214922,0.4300728-2.5166578,0.6763535-3.8789492,0.6763535
		c-0.8374271,0-1.6525869-0.0926704-2.4398832-0.2607613c3.8333864,2.484417,8.8044071,2.4843521,12.6377926-0.0000648
		c0.6755793-0.4378586,1.3174384-0.9486923,1.9096148-1.5408707c0.9633026-0.9633007,1.709734-2.0578823,2.2646503-3.2210655
		c0.8535805-1.7894669,1.2240601-3.7468948,1.1113148-5.6863689C0.7321093,22.3706322,0.2906458,20.7281475-0.5140245,19.2241516z"
		/>
	<path fill="#009CC9" d="M-15.5430517,5.5207343c-0.6755781,0.4378586-1.3175001,0.9486933-1.9096785,1.5408707
		c-0.9632378,0.9632373-1.7096691,2.0578198-2.2645855,3.2210021c-0.8536453,1.7894669-1.2240601,3.7468958-1.1113796,5.6864347
		c0.0965309,1.6602459,0.5380573,3.3027306,1.3427296,4.8067265c0.5270519,0.9851189,1.2023735,1.911932,2.0332355,2.7428589
		c0.1622982,0.1622982,0.3357296,0.3056774,0.5049152,0.4563923c0.8353024,0.7437935,1.7489233,1.3467827,2.7161512,1.8081932
		c-0.3944845-0.8269367-0.6899948-1.6879177-0.8780985-2.5693626c-0.4903069-0.7564049-0.8902607-1.5743332-1.196003-2.4380817
		c-0.3577385-1.0102139-0.5773754-2.0826588-0.6420498-3.1991863c-0.0131283-0.2262001-0.0342999-0.4502792-0.0342999-0.6797619
		c0-1.1750231,0.1778069-2.3078957,0.5017605-3.3771868c0.4944887-1.6324453,1.3436279-3.1061316,2.4494076-4.34834
		c1.2917595-1.4511628,2.9377842-2.573288,4.8067265-3.2349668c1.2149239-0.4301362,2.5166588-0.6763511,3.8789501-0.6763511
		c0.8374901,0,1.6526511,0.0927329,2.4399474,0.2608232C-6.7386456,3.0363178-11.7097301,3.0362535-15.5430517,5.5207343z"/>
	<path fill="#E8C21D" d="M-3.0522401,22.4234657c-0.0646763-1.1165905-0.2843132-2.1889706-0.6419868-3.1992512
		c-0.3058074-0.8636818-0.7056334-1.6814823-1.1959383-2.4378242c0.3428726,1.6067696,0.3428726,3.2689457,0,4.8757133
		c-0.1881046,0.8815098-0.4836788,1.7425537-0.8782272,2.5695553c-0.4614124,0.9672279-1.0644016,1.8808498-1.8081932,2.7161522
		c-0.1507168,0.1691856-0.2940941,0.342617-0.4563923,0.5049152c-0.830864,0.830862-1.7576771,1.5061207-2.7428589,2.0332355
		c-1.5039978,0.8046074-3.1464176,1.2461338-4.8066635,1.3426647c-1.9396019,0.1127472-3.8969669-0.2576694-5.6863689-1.1113148
		c0.5549164,1.1631832,1.3012848,2.2577648,2.2645855,3.2210655c0.5921783,0.5921783,1.2341003,1.1030769,1.9096146,1.5409355
		c0.7872963,0.1680908,1.6024561,0.2607613,2.4398832,0.2607613c1.3622913,0,2.6640272-0.2462807,3.8789492-0.6763535
		c1.8690071-0.6616783,3.5150318-1.7838669,4.8067913-3.2350941c1.1057148-1.2421436,1.954855-2.7158298,2.4494078-4.3482761
		c0.3238888-1.0692921,0.5017624-2.2020988,0.5017624-3.3771877C-3.0178754,22.873745-3.0391119,22.6496677-3.0522401,22.4234657z"
		/>
	<path fill="#9AC93C" d="M-0.9957082,7.061605c-0.5921764-0.5921774-1.2340355-1.1029477-1.9096146-1.5408063
		c-0.7872963-0.1680903-1.6024573-0.2608232-2.4399474-0.2608232c-1.3622913,0-2.6640263,0.2462149-3.8789501,0.6763511
		c-1.8689423,0.6616788-3.514967,1.7838039-4.8067265,3.2349668c-1.1057796,1.2422085-1.9549189,2.7158947-2.4494076,4.34834
		c-0.3239536,1.0692911-0.5017605,2.2021637-0.5017605,3.3771868c0,0.2294827,0.0211716,0.4535618,0.0342999,0.6797619
		c0.0646744,1.1165276,0.2843113,2.1889725,0.6420498,3.1991863c0.3057423,0.8637486,0.7056961,1.6816769,1.196003,2.4380817
		c-0.3429375-1.6068974-0.3428736-3.2691383,0-4.8760338c0.1881037-0.8815098,0.483614-1.7424908,0.8780985-2.5694923
		c0.4614763-0.9672918,1.0644007-1.8808479,1.8081942-2.7160873c0.15065-0.1692486,0.294157-0.34268,0.4563923-0.5049791
		c0.830862-0.830863,1.75774-1.5061846,2.742857-2.0332365c1.5039978-0.8046064,3.1464825-1.2461338,4.8067284-1.3427277
		c1.9396021-0.1127462,3.8969023,0.2577343,5.6863689,1.1113787C0.7140257,9.1194887-0.0324705,8.0248423-0.9957082,7.061605z"/>
</g>
</svg>
