<?xml version="1.0" encoding="utf-8"?>
<!-- Generator: Adobe Illustrator 17.0.0, SVG Export Plug-In . SVG Version: 6.00 Build 0)  -->
<!DOCTYPE svg PUBLIC "-//W3C//DTD SVG 1.1//EN" "http://www.w3.org/Graphics/SVG/1.1/DTD/svg11.dtd">
<svg version="1.1" id="Layer_1" xmlns="http://www.w3.org/2000/svg" xmlns:xlink="http://www.w3.org/1999/xlink" x="0px" y="0px"
	 width="210px" height="400px" viewBox="0 0 210 400" enable-background="new 0 0 210 400" xml:space="preserve">
<g id="Layer_2">
</g>
<g id="Layer_3">
	<path fill="#A3A3A2" d="M181.546,2.125H28.454c-11.273,0-20.412,7.098-20.412,18.371v358.342c0,11.273,9.139,20.412,20.412,20.412
		h153.092c11.273,0,20.412-9.139,20.412-20.412V20.496C201.958,9.223,192.819,2.125,181.546,2.125z M191,344.75H19v-305h172V344.75z
		"/>
	<path fill="#D7D7D7" d="M180,6.083H30c-11.046,0-19,6.954-19,18v351.104c0,11.046,7.954,20,19,20h150c11.046,0,19-8.954,19-20
		V24.083C199,13.038,191.046,6.083,180,6.083z M191,344.75H19v-305h172V344.75z"/>
	<circle cx="176.104" cy="21.896" r="6.479"/>
	<circle cx="33.854" cy="23.729" r="2.354"/>
	<circle cx="40.771" cy="23.729" r="2.354"/>
	<g>
		<circle fill="#6D6D6D" cx="50.997" cy="25.378" r="0.706"/>
		<circle fill="#6D6D6D" cx="53.313" cy="25.378" r="0.706"/>
		<circle fill="#6D6D6D" cx="55.628" cy="25.378" r="0.706"/>
		<circle fill="#6D6D6D" cx="57.943" cy="25.378" r="0.706"/>
		<circle fill="#6D6D6D" cx="60.258" cy="25.378" r="0.706"/>
		<circle fill="#6D6D6D" cx="62.573" cy="25.378" r="0.706"/>
		<circle fill="#6D6D6D" cx="64.889" cy="25.378" r="0.706"/>
		<circle fill="#6D6D6D" cx="67.204" cy="25.378" r="0.706"/>
		<circle fill="#6D6D6D" cx="69.519" cy="25.378" r="0.706"/>
		<circle fill="#6D6D6D" cx="71.834" cy="25.378" r="0.706"/>
		<circle fill="#6D6D6D" cx="74.15" cy="25.378" r="0.706"/>
		<circle fill="#6D6D6D" cx="76.465" cy="25.378" r="0.706"/>
		<circle fill="#6D6D6D" cx="78.78" cy="25.378" r="0.706"/>
		<circle fill="#6D6D6D" cx="81.095" cy="25.378" r="0.706"/>
		<circle fill="#6D6D6D" cx="83.41" cy="25.378" r="0.706"/>
		<circle fill="#6D6D6D" cx="85.726" cy="25.378" r="0.706"/>
		<circle fill="#6D6D6D" cx="88.041" cy="25.378" r="0.706"/>
		<circle fill="#6D6D6D" cx="90.356" cy="25.378" r="0.706"/>
		<circle fill="#6D6D6D" cx="92.671" cy="25.378" r="0.706"/>
		<circle fill="#6D6D6D" cx="94.986" cy="25.378" r="0.706"/>
		<circle fill="#6D6D6D" cx="97.302" cy="25.378" r="0.706"/>
		<circle fill="#6D6D6D" cx="99.617" cy="25.378" r="0.706"/>
		<circle fill="#6D6D6D" cx="101.932" cy="25.378" r="0.706"/>
		<circle fill="#6D6D6D" cx="104.247" cy="25.378" r="0.706"/>
		<circle fill="#6D6D6D" cx="106.562" cy="25.378" r="0.706"/>
		<circle fill="#6D6D6D" cx="108.878" cy="25.378" r="0.706"/>
		<circle fill="#6D6D6D" cx="111.193" cy="25.378" r="0.706"/>
		<circle fill="#6D6D6D" cx="113.508" cy="25.378" r="0.706"/>
		<circle fill="#6D6D6D" cx="115.823" cy="25.378" r="0.706"/>
		<circle fill="#6D6D6D" cx="118.139" cy="25.378" r="0.706"/>
		<circle fill="#6D6D6D" cx="120.454" cy="25.378" r="0.706"/>
		<circle fill="#6D6D6D" cx="122.769" cy="25.378" r="0.706"/>
		<circle fill="#6D6D6D" cx="125.084" cy="25.378" r="0.706"/>
		<circle fill="#6D6D6D" cx="127.399" cy="25.378" r="0.706"/>
		<circle fill="#6D6D6D" cx="129.715" cy="25.378" r="0.706"/>
		<circle fill="#6D6D6D" cx="132.03" cy="25.378" r="0.706"/>
		<circle fill="#6D6D6D" cx="134.345" cy="25.378" r="0.706"/>
		<circle fill="#6D6D6D" cx="136.66" cy="25.378" r="0.706"/>
		<circle fill="#6D6D6D" cx="138.975" cy="25.378" r="0.706"/>
		<circle fill="#6D6D6D" cx="141.291" cy="25.378" r="0.706"/>
		<circle fill="#6D6D6D" cx="143.606" cy="25.378" r="0.706"/>
		<circle fill="#6D6D6D" cx="145.921" cy="25.378" r="0.706"/>
		<circle fill="#6D6D6D" cx="148.236" cy="25.378" r="0.706"/>
		<circle fill="#6D6D6D" cx="150.552" cy="25.378" r="0.706"/>
		<circle fill="#6D6D6D" cx="152.867" cy="25.378" r="0.706"/>
		<circle fill="#6D6D6D" cx="155.182" cy="25.378" r="0.706"/>
		<circle fill="#6D6D6D" cx="157.497" cy="25.378" r="0.706"/>
		<circle fill="#6D6D6D" cx="159.812" cy="25.378" r="0.706"/>
		<circle fill="#6D6D6D" cx="162.128" cy="25.378" r="0.706"/>
	</g>
	<g>
		<circle fill="#6D6D6D" cx="50.997" cy="23.084" r="0.706"/>
		<circle fill="#6D6D6D" cx="53.313" cy="23.084" r="0.706"/>
		<circle fill="#6D6D6D" cx="55.628" cy="23.084" r="0.706"/>
		<circle fill="#6D6D6D" cx="57.943" cy="23.084" r="0.706"/>
		<circle fill="#6D6D6D" cx="60.258" cy="23.084" r="0.706"/>
		<circle fill="#6D6D6D" cx="62.573" cy="23.084" r="0.706"/>
		<circle fill="#6D6D6D" cx="64.889" cy="23.084" r="0.706"/>
		<circle fill="#6D6D6D" cx="67.204" cy="23.084" r="0.706"/>
		<circle fill="#6D6D6D" cx="69.519" cy="23.084" r="0.706"/>
		<circle fill="#6D6D6D" cx="71.834" cy="23.084" r="0.706"/>
		<circle fill="#6D6D6D" cx="74.15" cy="23.084" r="0.706"/>
		<circle fill="#6D6D6D" cx="76.465" cy="23.084" r="0.706"/>
		<circle fill="#6D6D6D" cx="78.78" cy="23.084" r="0.706"/>
		<circle fill="#6D6D6D" cx="81.095" cy="23.084" r="0.706"/>
		<circle fill="#6D6D6D" cx="83.41" cy="23.084" r="0.706"/>
		<circle fill="#6D6D6D" cx="85.726" cy="23.084" r="0.706"/>
		<circle fill="#6D6D6D" cx="88.041" cy="23.084" r="0.706"/>
		<circle fill="#6D6D6D" cx="90.356" cy="23.084" r="0.706"/>
		<circle fill="#6D6D6D" cx="92.671" cy="23.084" r="0.706"/>
		<circle fill="#6D6D6D" cx="94.986" cy="23.084" r="0.706"/>
		<circle fill="#6D6D6D" cx="97.302" cy="23.084" r="0.706"/>
		<circle fill="#6D6D6D" cx="99.617" cy="23.084" r="0.706"/>
		<circle fill="#6D6D6D" cx="101.932" cy="23.084" r="0.706"/>
		<circle fill="#6D6D6D" cx="104.247" cy="23.084" r="0.706"/>
		<circle fill="#6D6D6D" cx="106.562" cy="23.084" r="0.706"/>
		<circle fill="#6D6D6D" cx="108.878" cy="23.084" r="0.706"/>
		<circle fill="#6D6D6D" cx="111.193" cy="23.084" r="0.706"/>
		<circle fill="#6D6D6D" cx="113.508" cy="23.084" r="0.706"/>
		<circle fill="#6D6D6D" cx="115.823" cy="23.084" r="0.706"/>
		<circle fill="#6D6D6D" cx="118.139" cy="23.084" r="0.706"/>
		<circle fill="#6D6D6D" cx="120.454" cy="23.084" r="0.706"/>
		<circle fill="#6D6D6D" cx="122.769" cy="23.084" r="0.706"/>
		<circle fill="#6D6D6D" cx="125.084" cy="23.084" r="0.706"/>
		<circle fill="#6D6D6D" cx="127.399" cy="23.084" r="0.706"/>
		<circle fill="#6D6D6D" cx="129.715" cy="23.084" r="0.706"/>
		<circle fill="#6D6D6D" cx="132.03" cy="23.084" r="0.706"/>
		<circle fill="#6D6D6D" cx="134.345" cy="23.084" r="0.706"/>
		<circle fill="#6D6D6D" cx="136.66" cy="23.084" r="0.706"/>
		<circle fill="#6D6D6D" cx="138.975" cy="23.084" r="0.706"/>
		<circle fill="#6D6D6D" cx="141.291" cy="23.084" r="0.706"/>
		<circle fill="#6D6D6D" cx="143.606" cy="23.084" r="0.706"/>
		<circle fill="#6D6D6D" cx="145.921" cy="23.084" r="0.706"/>
		<circle fill="#6D6D6D" cx="148.236" cy="23.084" r="0.706"/>
		<circle fill="#6D6D6D" cx="150.552" cy="23.084" r="0.706"/>
		<circle fill="#6D6D6D" cx="152.867" cy="23.084" r="0.706"/>
		<circle fill="#6D6D6D" cx="155.182" cy="23.084" r="0.706"/>
		<circle fill="#6D6D6D" cx="157.497" cy="23.084" r="0.706"/>
		<circle fill="#6D6D6D" cx="159.812" cy="23.084" r="0.706"/>
		<circle fill="#6D6D6D" cx="162.128" cy="23.084" r="0.706"/>
	</g>
	<g>
		<g>
			<circle fill="#6D6D6D" cx="50.997" cy="20.791" r="0.706"/>
			<circle fill="#6D6D6D" cx="53.313" cy="20.791" r="0.706"/>
			<circle fill="#6D6D6D" cx="55.628" cy="20.791" r="0.706"/>
			<circle fill="#6D6D6D" cx="57.943" cy="20.791" r="0.706"/>
			<circle fill="#6D6D6D" cx="60.258" cy="20.791" r="0.706"/>
			<circle fill="#6D6D6D" cx="62.573" cy="20.791" r="0.706"/>
			<circle fill="#6D6D6D" cx="64.889" cy="20.791" r="0.706"/>
			<circle fill="#6D6D6D" cx="67.204" cy="20.791" r="0.706"/>
			<circle fill="#6D6D6D" cx="69.519" cy="20.791" r="0.706"/>
			<circle fill="#6D6D6D" cx="71.834" cy="20.791" r="0.706"/>
			<circle fill="#6D6D6D" cx="74.15" cy="20.791" r="0.706"/>
			<circle fill="#6D6D6D" cx="76.465" cy="20.791" r="0.706"/>
			<circle fill="#6D6D6D" cx="78.78" cy="20.791" r="0.706"/>
			<circle fill="#6D6D6D" cx="81.095" cy="20.791" r="0.706"/>
			<circle fill="#6D6D6D" cx="83.41" cy="20.791" r="0.706"/>
			<circle fill="#6D6D6D" cx="85.726" cy="20.791" r="0.706"/>
			<circle fill="#6D6D6D" cx="88.041" cy="20.791" r="0.706"/>
			<circle fill="#6D6D6D" cx="90.356" cy="20.791" r="0.706"/>
			<circle fill="#6D6D6D" cx="92.671" cy="20.791" r="0.706"/>
			<circle fill="#6D6D6D" cx="94.986" cy="20.791" r="0.706"/>
			<circle fill="#6D6D6D" cx="97.302" cy="20.791" r="0.706"/>
			<circle fill="#6D6D6D" cx="99.617" cy="20.791" r="0.706"/>
			<circle fill="#6D6D6D" cx="101.932" cy="20.791" r="0.706"/>
			<circle fill="#6D6D6D" cx="104.247" cy="20.791" r="0.706"/>
			<circle fill="#6D6D6D" cx="106.562" cy="20.791" r="0.706"/>
			<circle fill="#6D6D6D" cx="108.878" cy="20.791" r="0.706"/>
			<circle fill="#6D6D6D" cx="111.193" cy="20.791" r="0.706"/>
			<circle fill="#6D6D6D" cx="113.508" cy="20.791" r="0.706"/>
			<circle fill="#6D6D6D" cx="115.823" cy="20.791" r="0.706"/>
			<circle fill="#6D6D6D" cx="118.139" cy="20.791" r="0.706"/>
			<circle fill="#6D6D6D" cx="120.454" cy="20.791" r="0.706"/>
			<circle fill="#6D6D6D" cx="122.769" cy="20.791" r="0.706"/>
			<circle fill="#6D6D6D" cx="125.084" cy="20.791" r="0.706"/>
			<circle fill="#6D6D6D" cx="127.399" cy="20.791" r="0.706"/>
			<circle fill="#6D6D6D" cx="129.715" cy="20.791" r="0.706"/>
			<circle fill="#6D6D6D" cx="132.03" cy="20.791" r="0.706"/>
			<circle fill="#6D6D6D" cx="134.345" cy="20.791" r="0.706"/>
			<circle fill="#6D6D6D" cx="136.66" cy="20.791" r="0.706"/>
			<circle fill="#6D6D6D" cx="138.975" cy="20.791" r="0.706"/>
			<circle fill="#6D6D6D" cx="141.291" cy="20.791" r="0.706"/>
			<circle fill="#6D6D6D" cx="143.606" cy="20.791" r="0.706"/>
			<circle fill="#6D6D6D" cx="145.921" cy="20.791" r="0.706"/>
			<circle fill="#6D6D6D" cx="148.236" cy="20.791" r="0.706"/>
			<circle fill="#6D6D6D" cx="150.552" cy="20.791" r="0.706"/>
			<circle fill="#6D6D6D" cx="152.867" cy="20.791" r="0.706"/>
			<circle fill="#6D6D6D" cx="155.182" cy="20.791" r="0.706"/>
			<circle fill="#6D6D6D" cx="157.497" cy="20.791" r="0.706"/>
			<circle fill="#6D6D6D" cx="159.812" cy="20.791" r="0.706"/>
			<circle fill="#6D6D6D" cx="162.128" cy="20.791" r="0.706"/>
		</g>
		<g>
			<circle fill="#6D6D6D" cx="50.997" cy="18.497" r="0.706"/>
			<circle fill="#6D6D6D" cx="53.313" cy="18.497" r="0.706"/>
			<circle fill="#6D6D6D" cx="55.628" cy="18.497" r="0.706"/>
			<circle fill="#6D6D6D" cx="57.943" cy="18.497" r="0.706"/>
			<circle fill="#6D6D6D" cx="60.258" cy="18.497" r="0.706"/>
			<circle fill="#6D6D6D" cx="62.573" cy="18.497" r="0.706"/>
			<circle fill="#6D6D6D" cx="64.889" cy="18.497" r="0.706"/>
			<circle fill="#6D6D6D" cx="67.204" cy="18.497" r="0.706"/>
			<circle fill="#6D6D6D" cx="69.519" cy="18.497" r="0.706"/>
			<circle fill="#6D6D6D" cx="71.834" cy="18.497" r="0.706"/>
			<circle fill="#6D6D6D" cx="74.15" cy="18.497" r="0.706"/>
			<circle fill="#6D6D6D" cx="76.465" cy="18.497" r="0.706"/>
			<circle fill="#6D6D6D" cx="78.78" cy="18.497" r="0.706"/>
			<circle fill="#6D6D6D" cx="81.095" cy="18.497" r="0.706"/>
			<circle fill="#6D6D6D" cx="83.41" cy="18.497" r="0.706"/>
			<circle fill="#6D6D6D" cx="85.726" cy="18.497" r="0.706"/>
			<circle fill="#6D6D6D" cx="88.041" cy="18.497" r="0.706"/>
			<circle fill="#6D6D6D" cx="90.356" cy="18.497" r="0.706"/>
			<circle fill="#6D6D6D" cx="92.671" cy="18.497" r="0.706"/>
			<circle fill="#6D6D6D" cx="94.986" cy="18.497" r="0.706"/>
			<circle fill="#6D6D6D" cx="97.302" cy="18.497" r="0.706"/>
			<circle fill="#6D6D6D" cx="99.617" cy="18.497" r="0.706"/>
			<circle fill="#6D6D6D" cx="101.932" cy="18.497" r="0.706"/>
			<circle fill="#6D6D6D" cx="104.247" cy="18.497" r="0.706"/>
			<circle fill="#6D6D6D" cx="106.562" cy="18.497" r="0.706"/>
			<circle fill="#6D6D6D" cx="108.878" cy="18.497" r="0.706"/>
			<circle fill="#6D6D6D" cx="111.193" cy="18.497" r="0.706"/>
			<circle fill="#6D6D6D" cx="113.508" cy="18.497" r="0.706"/>
			<circle fill="#6D6D6D" cx="115.823" cy="18.497" r="0.706"/>
			<circle fill="#6D6D6D" cx="118.139" cy="18.497" r="0.706"/>
			<circle fill="#6D6D6D" cx="120.454" cy="18.497" r="0.706"/>
			<circle fill="#6D6D6D" cx="122.769" cy="18.497" r="0.706"/>
			<circle fill="#6D6D6D" cx="125.084" cy="18.497" r="0.706"/>
			<circle fill="#6D6D6D" cx="127.399" cy="18.497" r="0.706"/>
			<circle fill="#6D6D6D" cx="129.715" cy="18.497" r="0.706"/>
			<circle fill="#6D6D6D" cx="132.03" cy="18.497" r="0.706"/>
			<circle fill="#6D6D6D" cx="134.345" cy="18.497" r="0.706"/>
			<circle fill="#6D6D6D" cx="136.66" cy="18.497" r="0.706"/>
			<circle fill="#6D6D6D" cx="138.975" cy="18.497" r="0.706"/>
			<circle fill="#6D6D6D" cx="141.291" cy="18.497" r="0.706"/>
			<circle fill="#6D6D6D" cx="143.606" cy="18.497" r="0.706"/>
			<circle fill="#6D6D6D" cx="145.921" cy="18.497" r="0.706"/>
			<circle fill="#6D6D6D" cx="148.236" cy="18.497" r="0.706"/>
			<circle fill="#6D6D6D" cx="150.552" cy="18.497" r="0.706"/>
			<circle fill="#6D6D6D" cx="152.867" cy="18.497" r="0.706"/>
			<circle fill="#6D6D6D" cx="155.182" cy="18.497" r="0.706"/>
			<circle fill="#6D6D6D" cx="157.497" cy="18.497" r="0.706"/>
			<circle fill="#6D6D6D" cx="159.812" cy="18.497" r="0.706"/>
			<circle fill="#6D6D6D" cx="162.128" cy="18.497" r="0.706"/>
		</g>
		<circle fill="#6D6D6D" cx="162.128" cy="23.084" r="0.706"/>
		<circle fill="#6D6D6D" cx="162.128" cy="25.378" r="0.706"/>
		<g>
			<circle fill="#6D6D6D" cx="50.997" cy="378.582" r="0.706"/>
			<circle fill="#6D6D6D" cx="53.313" cy="378.582" r="0.706"/>
			<circle fill="#6D6D6D" cx="55.628" cy="378.582" r="0.706"/>
			<circle fill="#6D6D6D" cx="57.943" cy="378.582" r="0.706"/>
			<circle fill="#6D6D6D" cx="60.258" cy="378.582" r="0.706"/>
			<circle fill="#6D6D6D" cx="62.573" cy="378.582" r="0.706"/>
			<circle fill="#6D6D6D" cx="64.889" cy="378.582" r="0.706"/>
			<circle fill="#6D6D6D" cx="67.204" cy="378.582" r="0.706"/>
			<circle fill="#6D6D6D" cx="69.519" cy="378.582" r="0.706"/>
			<circle fill="#6D6D6D" cx="71.834" cy="378.582" r="0.706"/>
			<circle fill="#6D6D6D" cx="74.15" cy="378.582" r="0.706"/>
			<circle fill="#6D6D6D" cx="76.465" cy="378.582" r="0.706"/>
			<circle fill="#6D6D6D" cx="78.78" cy="378.582" r="0.706"/>
			<circle fill="#6D6D6D" cx="81.095" cy="378.582" r="0.706"/>
			<circle fill="#6D6D6D" cx="83.41" cy="378.582" r="0.706"/>
			<circle fill="#6D6D6D" cx="85.726" cy="378.582" r="0.706"/>
			<circle fill="#6D6D6D" cx="88.041" cy="378.582" r="0.706"/>
			<circle fill="#6D6D6D" cx="90.356" cy="378.582" r="0.706"/>
			<circle fill="#6D6D6D" cx="92.671" cy="378.582" r="0.706"/>
			<circle fill="#6D6D6D" cx="94.986" cy="378.582" r="0.706"/>
			<circle fill="#6D6D6D" cx="97.302" cy="378.582" r="0.706"/>
			<circle fill="#6D6D6D" cx="99.617" cy="378.582" r="0.706"/>
			<circle fill="#6D6D6D" cx="101.932" cy="378.582" r="0.706"/>
			<circle fill="#6D6D6D" cx="104.247" cy="378.582" r="0.706"/>
			<circle fill="#6D6D6D" cx="106.562" cy="378.582" r="0.706"/>
			<circle fill="#6D6D6D" cx="108.878" cy="378.582" r="0.706"/>
			<circle fill="#6D6D6D" cx="111.193" cy="378.582" r="0.706"/>
			<circle fill="#6D6D6D" cx="113.508" cy="378.582" r="0.706"/>
			<circle fill="#6D6D6D" cx="115.823" cy="378.582" r="0.706"/>
			<circle fill="#6D6D6D" cx="118.139" cy="378.582" r="0.706"/>
			<circle fill="#6D6D6D" cx="120.454" cy="378.582" r="0.706"/>
			<circle fill="#6D6D6D" cx="122.769" cy="378.582" r="0.706"/>
			<circle fill="#6D6D6D" cx="125.084" cy="378.582" r="0.706"/>
			<circle fill="#6D6D6D" cx="127.399" cy="378.582" r="0.706"/>
			<circle fill="#6D6D6D" cx="129.715" cy="378.582" r="0.706"/>
			<circle fill="#6D6D6D" cx="132.03" cy="378.582" r="0.706"/>
			<circle fill="#6D6D6D" cx="134.345" cy="378.582" r="0.706"/>
			<circle fill="#6D6D6D" cx="136.66" cy="378.582" r="0.706"/>
			<circle fill="#6D6D6D" cx="138.975" cy="378.582" r="0.706"/>
			<circle fill="#6D6D6D" cx="141.291" cy="378.582" r="0.706"/>
			<circle fill="#6D6D6D" cx="143.606" cy="378.582" r="0.706"/>
			<circle fill="#6D6D6D" cx="145.921" cy="378.582" r="0.706"/>
			<circle fill="#6D6D6D" cx="148.236" cy="378.582" r="0.706"/>
			<circle fill="#6D6D6D" cx="150.552" cy="378.582" r="0.706"/>
			<circle fill="#6D6D6D" cx="152.867" cy="378.582" r="0.706"/>
			<circle fill="#6D6D6D" cx="155.182" cy="378.582" r="0.706"/>
			<circle fill="#6D6D6D" cx="157.497" cy="378.582" r="0.706"/>
			<circle fill="#6D6D6D" cx="159.812" cy="378.582" r="0.706"/>
			<circle fill="#6D6D6D" cx="162.128" cy="378.582" r="0.706"/>
		</g>
		<g>
			<circle fill="#6D6D6D" cx="50.997" cy="376.289" r="0.706"/>
			<circle fill="#6D6D6D" cx="53.313" cy="376.289" r="0.706"/>
			<circle fill="#6D6D6D" cx="55.628" cy="376.289" r="0.706"/>
			<circle fill="#6D6D6D" cx="57.943" cy="376.289" r="0.706"/>
			<circle fill="#6D6D6D" cx="60.258" cy="376.289" r="0.706"/>
			<circle fill="#6D6D6D" cx="62.573" cy="376.289" r="0.706"/>
			<circle fill="#6D6D6D" cx="64.889" cy="376.289" r="0.706"/>
			<circle fill="#6D6D6D" cx="67.204" cy="376.289" r="0.706"/>
			<circle fill="#6D6D6D" cx="69.519" cy="376.289" r="0.706"/>
			<circle fill="#6D6D6D" cx="71.834" cy="376.289" r="0.706"/>
			<circle fill="#6D6D6D" cx="74.15" cy="376.289" r="0.706"/>
			<circle fill="#6D6D6D" cx="76.465" cy="376.289" r="0.706"/>
			<circle fill="#6D6D6D" cx="78.78" cy="376.289" r="0.706"/>
			<circle fill="#6D6D6D" cx="81.095" cy="376.289" r="0.706"/>
			<circle fill="#6D6D6D" cx="83.41" cy="376.289" r="0.706"/>
			<circle fill="#6D6D6D" cx="85.726" cy="376.289" r="0.706"/>
			<circle fill="#6D6D6D" cx="88.041" cy="376.289" r="0.706"/>
			<circle fill="#6D6D6D" cx="90.356" cy="376.289" r="0.706"/>
			<circle fill="#6D6D6D" cx="92.671" cy="376.289" r="0.706"/>
			<circle fill="#6D6D6D" cx="94.986" cy="376.289" r="0.706"/>
			<circle fill="#6D6D6D" cx="97.302" cy="376.289" r="0.706"/>
			<circle fill="#6D6D6D" cx="99.617" cy="376.289" r="0.706"/>
			<circle fill="#6D6D6D" cx="101.932" cy="376.289" r="0.706"/>
			<circle fill="#6D6D6D" cx="104.247" cy="376.289" r="0.706"/>
			<circle fill="#6D6D6D" cx="106.562" cy="376.289" r="0.706"/>
			<circle fill="#6D6D6D" cx="108.878" cy="376.289" r="0.706"/>
			<circle fill="#6D6D6D" cx="111.193" cy="376.289" r="0.706"/>
			<circle fill="#6D6D6D" cx="113.508" cy="376.289" r="0.706"/>
			<circle fill="#6D6D6D" cx="115.823" cy="376.289" r="0.706"/>
			<circle fill="#6D6D6D" cx="118.139" cy="376.289" r="0.706"/>
			<circle fill="#6D6D6D" cx="120.454" cy="376.289" r="0.706"/>
			<circle fill="#6D6D6D" cx="122.769" cy="376.289" r="0.706"/>
			<circle fill="#6D6D6D" cx="125.084" cy="376.289" r="0.706"/>
			<circle fill="#6D6D6D" cx="127.399" cy="376.289" r="0.706"/>
			<circle fill="#6D6D6D" cx="129.715" cy="376.289" r="0.706"/>
			<circle fill="#6D6D6D" cx="132.03" cy="376.289" r="0.706"/>
			<circle fill="#6D6D6D" cx="134.345" cy="376.289" r="0.706"/>
			<circle fill="#6D6D6D" cx="136.66" cy="376.289" r="0.706"/>
			<circle fill="#6D6D6D" cx="138.975" cy="376.289" r="0.706"/>
			<circle fill="#6D6D6D" cx="141.291" cy="376.289" r="0.706"/>
			<circle fill="#6D6D6D" cx="143.606" cy="376.289" r="0.706"/>
			<circle fill="#6D6D6D" cx="145.921" cy="376.289" r="0.706"/>
			<circle fill="#6D6D6D" cx="148.236" cy="376.289" r="0.706"/>
			<circle fill="#6D6D6D" cx="150.552" cy="376.289" r="0.706"/>
			<circle fill="#6D6D6D" cx="152.867" cy="376.289" r="0.706"/>
			<circle fill="#6D6D6D" cx="155.182" cy="376.289" r="0.706"/>
			<circle fill="#6D6D6D" cx="157.497" cy="376.289" r="0.706"/>
			<circle fill="#6D6D6D" cx="159.812" cy="376.289" r="0.706"/>
			<circle fill="#6D6D6D" cx="162.128" cy="376.289" r="0.706"/>
		</g>
		<g>
			<circle fill="#6D6D6D" cx="50.997" cy="383.169" r="0.706"/>
			<circle fill="#6D6D6D" cx="53.313" cy="383.169" r="0.706"/>
			<circle fill="#6D6D6D" cx="55.628" cy="383.169" r="0.706"/>
			<circle fill="#6D6D6D" cx="57.943" cy="383.169" r="0.706"/>
			<circle fill="#6D6D6D" cx="60.258" cy="383.169" r="0.706"/>
			<circle fill="#6D6D6D" cx="62.573" cy="383.169" r="0.706"/>
			<circle fill="#6D6D6D" cx="64.889" cy="383.169" r="0.706"/>
			<circle fill="#6D6D6D" cx="67.204" cy="383.169" r="0.706"/>
			<circle fill="#6D6D6D" cx="69.519" cy="383.169" r="0.706"/>
			<circle fill="#6D6D6D" cx="71.834" cy="383.169" r="0.706"/>
			<circle fill="#6D6D6D" cx="74.15" cy="383.169" r="0.706"/>
			<circle fill="#6D6D6D" cx="76.465" cy="383.169" r="0.706"/>
			<circle fill="#6D6D6D" cx="78.78" cy="383.169" r="0.706"/>
			<circle fill="#6D6D6D" cx="81.095" cy="383.169" r="0.706"/>
			<circle fill="#6D6D6D" cx="83.41" cy="383.169" r="0.706"/>
			<circle fill="#6D6D6D" cx="85.726" cy="383.169" r="0.706"/>
			<circle fill="#6D6D6D" cx="88.041" cy="383.169" r="0.706"/>
			<circle fill="#6D6D6D" cx="90.356" cy="383.169" r="0.706"/>
			<circle fill="#6D6D6D" cx="92.671" cy="383.169" r="0.706"/>
			<circle fill="#6D6D6D" cx="94.986" cy="383.169" r="0.706"/>
			<circle fill="#6D6D6D" cx="97.302" cy="383.169" r="0.706"/>
			<circle fill="#6D6D6D" cx="99.617" cy="383.169" r="0.706"/>
			<circle fill="#6D6D6D" cx="101.932" cy="383.169" r="0.706"/>
			<circle fill="#6D6D6D" cx="104.247" cy="383.169" r="0.706"/>
			<circle fill="#6D6D6D" cx="106.562" cy="383.169" r="0.706"/>
			<circle fill="#6D6D6D" cx="108.878" cy="383.169" r="0.706"/>
			<circle fill="#6D6D6D" cx="111.193" cy="383.169" r="0.706"/>
			<circle fill="#6D6D6D" cx="113.508" cy="383.169" r="0.706"/>
			<circle fill="#6D6D6D" cx="115.823" cy="383.169" r="0.706"/>
			<circle fill="#6D6D6D" cx="118.139" cy="383.169" r="0.706"/>
			<circle fill="#6D6D6D" cx="120.454" cy="383.169" r="0.706"/>
			<circle fill="#6D6D6D" cx="122.769" cy="383.169" r="0.706"/>
			<circle fill="#6D6D6D" cx="125.084" cy="383.169" r="0.706"/>
			<circle fill="#6D6D6D" cx="127.399" cy="383.169" r="0.706"/>
			<circle fill="#6D6D6D" cx="129.715" cy="383.169" r="0.706"/>
			<circle fill="#6D6D6D" cx="132.03" cy="383.169" r="0.706"/>
			<circle fill="#6D6D6D" cx="134.345" cy="383.169" r="0.706"/>
			<circle fill="#6D6D6D" cx="136.66" cy="383.169" r="0.706"/>
			<circle fill="#6D6D6D" cx="138.975" cy="383.169" r="0.706"/>
			<circle fill="#6D6D6D" cx="141.291" cy="383.169" r="0.706"/>
			<circle fill="#6D6D6D" cx="143.606" cy="383.169" r="0.706"/>
			<circle fill="#6D6D6D" cx="145.921" cy="383.169" r="0.706"/>
			<circle fill="#6D6D6D" cx="148.236" cy="383.169" r="0.706"/>
			<circle fill="#6D6D6D" cx="150.552" cy="383.169" r="0.706"/>
			<circle fill="#6D6D6D" cx="152.867" cy="383.169" r="0.706"/>
			<circle fill="#6D6D6D" cx="155.182" cy="383.169" r="0.706"/>
			<circle fill="#6D6D6D" cx="157.497" cy="383.169" r="0.706"/>
			<circle fill="#6D6D6D" cx="159.812" cy="383.169" r="0.706"/>
			<circle fill="#6D6D6D" cx="162.128" cy="383.169" r="0.706"/>
		</g>
		<g>
			<circle fill="#6D6D6D" cx="50.997" cy="380.876" r="0.706"/>
			<circle fill="#6D6D6D" cx="53.313" cy="380.876" r="0.706"/>
			<circle fill="#6D6D6D" cx="55.628" cy="380.876" r="0.706"/>
			<circle fill="#6D6D6D" cx="57.943" cy="380.876" r="0.706"/>
			<circle fill="#6D6D6D" cx="60.258" cy="380.876" r="0.706"/>
			<circle fill="#6D6D6D" cx="62.573" cy="380.876" r="0.706"/>
			<circle fill="#6D6D6D" cx="64.889" cy="380.876" r="0.706"/>
			<circle fill="#6D6D6D" cx="67.204" cy="380.876" r="0.706"/>
			<circle fill="#6D6D6D" cx="69.519" cy="380.876" r="0.706"/>
			<circle fill="#6D6D6D" cx="71.834" cy="380.876" r="0.706"/>
			<circle fill="#6D6D6D" cx="74.15" cy="380.876" r="0.706"/>
			<circle fill="#6D6D6D" cx="76.465" cy="380.876" r="0.706"/>
			<circle fill="#6D6D6D" cx="78.78" cy="380.876" r="0.706"/>
			<circle fill="#6D6D6D" cx="81.095" cy="380.876" r="0.706"/>
			<circle fill="#6D6D6D" cx="83.41" cy="380.876" r="0.706"/>
			<circle fill="#6D6D6D" cx="85.726" cy="380.876" r="0.706"/>
			<circle fill="#6D6D6D" cx="88.041" cy="380.876" r="0.706"/>
			<circle fill="#6D6D6D" cx="90.356" cy="380.876" r="0.706"/>
			<circle fill="#6D6D6D" cx="92.671" cy="380.876" r="0.706"/>
			<circle fill="#6D6D6D" cx="94.986" cy="380.876" r="0.706"/>
			<circle fill="#6D6D6D" cx="97.302" cy="380.876" r="0.706"/>
			<circle fill="#6D6D6D" cx="99.617" cy="380.876" r="0.706"/>
			<circle fill="#6D6D6D" cx="101.932" cy="380.876" r="0.706"/>
			<circle fill="#6D6D6D" cx="104.247" cy="380.876" r="0.706"/>
			<circle fill="#6D6D6D" cx="106.562" cy="380.876" r="0.706"/>
			<circle fill="#6D6D6D" cx="108.878" cy="380.876" r="0.706"/>
			<circle fill="#6D6D6D" cx="111.193" cy="380.876" r="0.706"/>
			<circle fill="#6D6D6D" cx="113.508" cy="380.876" r="0.706"/>
			<circle fill="#6D6D6D" cx="115.823" cy="380.876" r="0.706"/>
			<circle fill="#6D6D6D" cx="118.139" cy="380.876" r="0.706"/>
			<circle fill="#6D6D6D" cx="120.454" cy="380.876" r="0.706"/>
			<circle fill="#6D6D6D" cx="122.769" cy="380.876" r="0.706"/>
			<circle fill="#6D6D6D" cx="125.084" cy="380.876" r="0.706"/>
			<circle fill="#6D6D6D" cx="127.399" cy="380.876" r="0.706"/>
			<circle fill="#6D6D6D" cx="129.715" cy="380.876" r="0.706"/>
			<circle fill="#6D6D6D" cx="132.03" cy="380.876" r="0.706"/>
			<circle fill="#6D6D6D" cx="134.345" cy="380.876" r="0.706"/>
			<circle fill="#6D6D6D" cx="136.66" cy="380.876" r="0.706"/>
			<circle fill="#6D6D6D" cx="138.975" cy="380.876" r="0.706"/>
			<circle fill="#6D6D6D" cx="141.291" cy="380.876" r="0.706"/>
			<circle fill="#6D6D6D" cx="143.606" cy="380.876" r="0.706"/>
			<circle fill="#6D6D6D" cx="145.921" cy="380.876" r="0.706"/>
			<circle fill="#6D6D6D" cx="148.236" cy="380.876" r="0.706"/>
			<circle fill="#6D6D6D" cx="150.552" cy="380.876" r="0.706"/>
			<circle fill="#6D6D6D" cx="152.867" cy="380.876" r="0.706"/>
			<circle fill="#6D6D6D" cx="155.182" cy="380.876" r="0.706"/>
			<circle fill="#6D6D6D" cx="157.497" cy="380.876" r="0.706"/>
			<circle fill="#6D6D6D" cx="159.812" cy="380.876" r="0.706"/>
			<circle fill="#6D6D6D" cx="162.128" cy="380.876" r="0.706"/>
		</g>
	</g>
	<path d="M8.042,31.5v338.25h193.917V31.5H8.042z M191,342.167H19v-300h172V342.167z"/>
</g>
<g id="Layer_4">
	<g id="htc">
		<polygon fill="#D7D7D7" points="108.743,351.557 100.106,351.557 100.106,353.067 103.67,353.067 103.67,359.062 105.179,359.062 
			105.179,353.067 108.743,353.067 		"/>
		<path fill="#D7D7D7" d="M118.844,351.49c0,0-3.33,0-5.47,0c-2.141,0-3.426,1.522-3.426,3.933c0,2.073,0.778,3.671,3.403,3.671
			c2.625,0,5.369,0,5.369,0v-1.508c0,0-4.141,0-5.301,0c-1.161,0-1.972-0.228-1.972-2.136c0-1.909,1.268-2.462,1.939-2.462
			c0.67,0,5.459,0,5.459,0V351.49z"/>
		<path fill="#D7D7D7" d="M95.199,351.478c-2.276,0-1.977,0.011-2.49,0.011c-0.411,0-1.039,0.167-1.382,0.436v-2.775h-1.483v9.943
			h1.483v-3.728v-0.732c0-0.789,0.548-1.679,1.585-1.679c1.104,0,1.363,0,2.366,0c1.003,0,1.747,0.529,1.747,1.69
			c0,1.161,0,4.44,0,4.44l1.51,0.009c0,0,0-3.615,0-4.573C98.535,352.932,97.475,351.478,95.199,351.478z"/>
	</g>
	<polyline fill="none" stroke="#D7D7D7" stroke-linecap="round" stroke-linejoin="round" stroke-miterlimit="10" points="
		55.093,352.159 49.969,355.487 55.093,358.844 	"/>
	<polygon fill="none" stroke="#D7D7D7" stroke-linecap="round" stroke-linejoin="round" stroke-miterlimit="10" points="
		155.469,352.185 152.562,354.497 152.562,358.435 158.312,358.435 158.312,354.497 	"/>
</g>
</svg>
