<?xml version="1.0" encoding="utf-8"?>
<!-- Generator: Adobe Illustrator 17.0.0, SVG Export Plug-In . SVG Version: 6.00 Build 0)  -->
<!DOCTYPE svg PUBLIC "-//W3C//DTD SVG 1.1//EN" "http://www.w3.org/Graphics/SVG/1.1/DTD/svg11.dtd">
<svg version="1.1" id="Layer_2" xmlns="http://www.w3.org/2000/svg" xmlns:xlink="http://www.w3.org/1999/xlink" x="0px" y="0px"
	 width="800px" height="700px" viewBox="0 0 800 700" enable-background="new 0 0 800 700" xml:space="preserve">
<path fill="#FDEFBC" d="M650.591,643.564l-2.036,9.703l7.875,9.446l9.91-0.257l32.008-26.683l-15.751-18.892L650.591,643.564z
	 M660.55,655.174c-1.271,1.059-3.16,0.888-4.221-0.383c-1.059-1.271-0.888-3.162,0.383-4.221s3.162-0.888,4.221,0.383
	S661.82,654.113,660.55,655.174z"/>
<path fill="#D7D7D7" d="M167.584,683.772c0,0,2.814-256.074,2.814-287.967s-1.563-164.463-1.563-164.463H41.892L10,101.899
	L195.099,37.49c4.377-0.625,101.304-13.132,101.304-13.132l18.76-8.129c0,0,21.261,19.385,83.169,18.447h3.335
	c61.908,0.938,83.169-18.447,83.169-18.447l18.76,8.129c0,0,96.927,12.507,101.304,13.132L790,101.899l-31.892,129.444H631.165
	c0,0-1.563,132.571-1.563,164.463s2.814,287.967,2.814,287.967H167.584V683.772z"/>
<path fill="#CCCCCC" d="M483.041,37.211C470.318,65.44,437.952,85.513,400,85.513s-70.318-20.072-83.042-48.302h-2.735
	c10.182,31.9,44.718,55.387,85.777,55.387s75.595-23.487,85.776-55.387C485.776,37.211,483.041,37.211,483.041,37.211z"/>
<path fill="#B0AFB0" d="M195.099,37.489L10,101.898l31.892,129.444h15.946h110.997C187.751,183.817,199.633,159.429,195.099,37.489z
	"/>
<path fill="#B0AFB0" d="M775.654,96.907v0.002l-170.818-59.42c-4.534,121.94,7.348,146.328,26.264,193.854h111.062h15.946
	L790,101.898L775.654,96.907z"/>
<polygon fill="#CCCCCC" points="632.15,659.382 167.85,659.382 167.584,683.772 632.416,683.772 "/>
<path fill="#B0AFB0" d="M400,112.529c53.435,0,97.085-39.713,99.993-89.734l3.604,1.562l-18.76-8.129c0,0-0.178,0.161-0.531,0.442
	C479.624,59.095,443.674,92.101,400,92.101c-43.673,0-79.624-33.006-84.306-75.432c-0.353-0.281-0.531-0.442-0.531-0.442
	l-18.76,8.129l3.604-1.562C302.915,72.816,346.566,112.529,400,112.529z"/>
<rect x="385.219" y="43.583" fill="#EFEFEF" width="29.562" height="30.25"/>
<path fill="#999999" d="M318.92,32.233c83.439,23.808,115.033,18.544,162.6-1.666c1.284-4.498,2.26-9.127,2.786-13.897
	c-3.6,2.866-26.261,18.86-82.639,18.006h-3.335c-56.377,0.854-79.038-15.14-82.639-18.006
	C316.285,22.024,317.38,27.226,318.92,32.233z"/>
<line fill="none" stroke="#FFFFFF" stroke-width="2" stroke-miterlimit="10" x1="615.581" y1="649.246" x2="626.284" y2="645.653"/>
<line fill="none" stroke="#FFFFFF" stroke-width="2" stroke-miterlimit="10" x1="622.729" y1="652.801" x2="619.136" y2="642.098"/>
<g>
	<path fill="none" d="M659.195,651.127c0.848,0.325,1.338,1.109,1.247,1.997c-0.023,0.229-0.052,0.454-0.088,0.672
		c-0.104,0.646-0.261,1.24-0.467,1.784c0.232-0.107,0.456-0.235,0.661-0.406c1.271-1.059,1.442-2.949,0.383-4.221
		c-1.059-1.271-2.949-1.442-4.221-0.383c-0.549,0.457-0.88,1.072-1.007,1.722C656.976,650.955,658.305,650.786,659.195,651.127z"/>
	<path fill="#999999" d="M659.888,655.579c0.206-0.543,0.362-1.138,0.467-1.784c0.036-0.218,0.065-0.443,0.088-0.672
		c0.091-0.888-0.399-1.671-1.247-1.997c-0.891-0.342-3.218-1.49-4.49-0.152c-0.125,0.634-0.051,1.298,0.244,1.896
		c0.06-0.082,0.124-0.17,0.181-0.248l0.115-0.158c0.912-1.251,2.893-0.273,3.459-0.056c0.263,0.1,0.401,0.31,0.373,0.576
		c-0.115,1.136-0.392,2.082-0.825,2.852C658.804,655.907,659.369,655.821,659.888,655.579z"/>
	<path fill="none" d="M659.077,652.985c0.027-0.266-0.108-0.475-0.373-0.576c-0.567-0.217-1.548,0.124-2.46,1.375l-0.115,0.158
		c-0.058,0.078-0.121,0.166-0.181,0.248c0.103,0.21,0.225,0.413,0.38,0.601c0.505,0.605,1.199,0.954,1.924,1.046
		C658.685,655.066,658.962,654.122,659.077,652.985z"/>
	<path fill="#FDEFBC" d="M650.591,643.564l-2.036,9.703l4.235,5.079c1.282,0.027,2.437-0.145,3.4-0.589
		c0.897-0.413,1.579-1.055,2.064-1.921c-0.725-0.092-1.419-0.44-1.924-1.046c-0.156-0.188-0.277-0.391-0.38-0.601
		c-0.6,0.823-1.295,1.789-1.64,2.407c0.066-0.022,0.14-0.048,0.221-0.08l0.483,1.286c-0.509,0.191-1.566,0.589-2.09-0.102
		c-0.607-0.804,0.159-1.913,2.098-4.568l0.115-0.158c0.187-0.257,0.377-0.482,0.568-0.682c0.128-0.65,0.458-1.265,1.007-1.722
		c1.271-1.059,3.162-0.888,4.221,0.383s0.888,3.162-0.383,4.221c-0.206,0.172-0.43,0.298-0.661,0.406
		c-0.607,1.599-1.652,2.747-3.127,3.425c-0.847,0.39-1.814,0.6-2.865,0.668l2.533,3.04l9.91-0.257l32.008-26.683l-15.751-18.892
		L650.591,643.564z"/>
	<path fill="#999999" d="M621.796,647.138l-0.863,0.299l0.338,1.003c0.814,0.565,22.814,11.878,32.626,11.233l-1.107-1.328
		C643.349,658.145,621.984,647.269,621.796,647.138z"/>
	<path fill="#999999" d="M659.888,655.579c-0.519,0.242-1.084,0.327-1.636,0.257c-0.484,0.865-1.166,1.508-2.064,1.921
		c-0.962,0.442-2.117,0.616-3.4,0.589l1.107,1.328c1.051-0.069,2.019-0.28,2.865-0.668
		C658.236,658.326,659.282,657.178,659.888,655.579z"/>
</g>
<path fill="none" stroke="#999999" stroke-miterlimit="10" stroke-dasharray="2" d="M389.125,50c0,0,14.125,1,21.375,0.375"/>
</svg>
