<?xml version="1.0" encoding="utf-8"?>
<!-- Generator: Adobe Illustrator 17.0.0, SVG Export Plug-In . SVG Version: 6.00 Build 0)  -->
<!DOCTYPE svg PUBLIC "-//W3C//DTD SVG 1.1//EN" "http://www.w3.org/Graphics/SVG/1.1/DTD/svg11.dtd">
<svg version="1.1" id="Layer_1" xmlns="http://www.w3.org/2000/svg" xmlns:xlink="http://www.w3.org/1999/xlink" x="0px" y="0px"
	 width="80px" height="50px" viewBox="0 0 80 50" enable-background="new 0 0 80 50" xml:space="preserve">
<g>
	<polygon fill="none" stroke="#000000" stroke-miterlimit="10" points="68,17.087431 59.2568321,18.4863396 52,24.519125 
		65.9890747,32.9125671 	"/>
	<polyline fill="none" stroke="#000000" stroke-miterlimit="10" points="52,24.519125 61.0054626,22.9453545 68,17.087431 	"/>
	<line fill="none" stroke="#000000" stroke-miterlimit="10" x1="61.0054626" y1="22.9453545" x2="65.9890747" y2="32.9125671"/>
</g>
<g>
	<g>
		<path d="M26.8148804,17H13.1810303C12.5291748,17,12,17.5167847,12,18.152771V31.84552C12,32.482666,12.5291748,33,13.1810303,33
			h13.6338501C27.4673462,33,28,32.482666,28,31.84552V18.152771C28,17.5167847,27.4673462,17,26.8148804,17z
			 M16.7451782,30.6342773h-2.3740845v-7.635437h2.3740845V30.6342773z M15.5582886,21.954895
			c-0.7607422,0-1.3756104-0.6166382-1.3756104-1.3764648c0-0.7589722,0.6148682-1.3755493,1.3756104-1.3755493
			c0.758667,0,1.3753052,0.6165771,1.3753052,1.3755493C16.9335938,21.3382568,16.3169556,21.954895,15.5582886,21.954895z
			 M25.6332397,30.6342773h-2.3703613v-3.7129517c0-0.8859863-0.017395-2.0249023-1.2335205-2.0249023
			c-1.2349854,0-1.4233398,0.9647217-1.4233398,1.9606323v3.7772217h-2.3723755v-7.635437h2.2766113v1.0428467h0.0324097
			c0.3168335-0.6000977,1.0911255-1.2332153,2.2456665-1.2332153c2.4013062,0,2.8449097,1.5809937,2.8449097,3.6377563V30.6342773z"
			/>
	</g>
</g>
</svg>
