<?xml version="1.0" encoding="utf-8"?>
<!-- Generator: Adobe Illustrator 17.0.0, SVG Export Plug-In . SVG Version: 6.00 Build 0)  -->
<!DOCTYPE svg PUBLIC "-//W3C//DTD SVG 1.1//EN" "http://www.w3.org/Graphics/SVG/1.1/DTD/svg11.dtd">
<svg version="1.1" id="Layer_2" xmlns="http://www.w3.org/2000/svg" xmlns:xlink="http://www.w3.org/1999/xlink" x="0px" y="0px"
	 width="600px" height="400px" viewBox="0 0 600 400" enable-background="new 0 0 600 400" xml:space="preserve">
<path fill="#CECECE" d="M570.477478,0H31.6191406C16.2549438,0,3.8008423,12.4550781,3.8008423,27.8184204v344.3631592
	C3.8008423,387.5438843,16.2549438,400,31.6191406,400H570.477478c15.3632812,0,27.819397-12.4561157,27.819397-27.8184204
	V27.8184204C598.296875,12.4550781,585.8407593,0,570.477478,0z M541.6171875,380.5282593H61.4072266V19.2402344h480.2099609
	V380.5282593z"/>
<path fill="#F4F4F4" d="M567.9287109,2.3184204H34.0527344c-15.3641968,0-27.8182983,12.4549561-27.8182983,27.8182983v339.1464844
	c0,15.3651733,12.4541016,27.8192749,27.8182983,27.8192749h533.8759766c15.3632812,0,27.8173828-12.4541016,27.8173828-27.8192749
	V30.1367188C595.7460938,14.7733765,583.2919922,2.3184204,567.9287109,2.3184204z M541.6171875,380.5282593H61.4072266V19.2402344
	h480.2099609V380.5282593z"/>
<circle fill="#EFEFEF" stroke="#B7B7B7" stroke-miterlimit="10" cx="570.1688843" cy="199.5947571" r="15.6093445"/>
<path fill="#CECECE" stroke="#B7B7B7" stroke-miterlimit="10" d="M570.2075195,184.9854126
	c8.4519653,0,15.3178101,6.7219849,15.5841064,15.109314c0.0053101-0.1675415,0.0252686-0.3311768,0.0252686-0.5
	c0-8.6207886-6.9885864-15.609314-15.609375-15.609314s-15.609375,6.9885254-15.609375,15.609314
	c0,0.1688232,0.0199585,0.3324585,0.0252686,0.5C554.8897095,191.7073975,561.7555542,184.9854126,570.2075195,184.9854126z"/>
<circle cx="35.3280945" cy="199.6333008" r="4.2104034"/>
<polyline fill="#A3A3A3" points="3.6953001,97.5849991 1.7031,99.3623047 1.7031,122.5537033 3.6953001,124.3311005 "/>
<path fill="#EFEFEF" stroke="#B7B7B7" stroke-miterlimit="10" d="M572.7196655,194.5713043
	c1.5371094,0,2.781311,1.2460938,2.781311,2.781189v4.9844055c0,1.5361023-1.2442017,2.7832031-2.781311,2.7832031h-5.0223999
	c-1.5370483,0-2.7832031-1.2471008-2.7832031-2.7832031v-4.9844055c0-1.5350952,1.2461548-2.781189,2.7832031-2.781189H572.7196655z
	"/>
<rect x="61.4072266" y="19.2402344" fill="none" stroke="#686868" stroke-width="2" stroke-miterlimit="10" width="480.2099609" height="361.2880249"/>
</svg>
