<?xml version="1.0" encoding="utf-8"?>
<!-- Generator: Adobe Illustrator 17.0.0, SVG Export Plug-In . SVG Version: 6.00 Build 0)  -->
<!DOCTYPE svg PUBLIC "-//W3C//DTD SVG 1.1//EN" "http://www.w3.org/Graphics/SVG/1.1/DTD/svg11.dtd">
<svg version="1.1" id="Layer_2" xmlns="http://www.w3.org/2000/svg" xmlns:xlink="http://www.w3.org/1999/xlink" x="0px" y="0px"
	 width="600px" height="800px" viewBox="0 -200 600 800" enable-background="new 0 -200 600 800" xml:space="preserve">
<g>
	<path fill="#CECECE" d="M570.477-200H31.619c-15.364,0-27.818,12.455-27.818,27.818v344.363C3.801,187.544,16.255,200,31.619,200
		h538.858c15.363,0,27.819-12.456,27.819-27.818v-344.363C598.297-187.545,585.841-200,570.477-200z M541.617,180.528H61.407
		V-180.76h480.21V180.528z"/>
	<path fill="#F4F4F4" d="M567.929-197.682H34.053c-15.364,0-27.818,12.455-27.818,27.818v339.146
		c0,15.365,12.454,27.819,27.818,27.819h533.876c15.363,0,27.817-12.454,27.817-27.819v-339.146
		C595.746-185.227,583.292-197.682,567.929-197.682z M541.617,180.528H61.407V-180.76h480.21V180.528z"/>
	<circle fill="#EFEFEF" stroke="#B7B7B7" stroke-miterlimit="10" cx="570.169" cy="-0.405" r="15.609"/>
	<path fill="#CECECE" stroke="#B7B7B7" stroke-miterlimit="10" d="M570.208-15.015c8.452,0,15.318,6.722,15.584,15.109
		c0.005-0.168,0.025-0.331,0.025-0.5c0-8.621-6.989-15.609-15.609-15.609s-15.609,6.989-15.609,15.609c0,0.169,0.02,0.332,0.025,0.5
		C554.89-8.293,561.756-15.015,570.208-15.015z"/>
	<circle cx="35.328" cy="-0.367" r="4.21"/>
	<polyline fill="#A3A3A3" points="3.695,-102.415 1.703,-100.638 1.703,-77.446 3.695,-75.669 	"/>
	<path fill="#EFEFEF" stroke="#B7B7B7" stroke-miterlimit="10" d="M572.72-5.429c1.537,0,2.781,1.246,2.781,2.781v4.984
		c0,1.536-1.244,2.783-2.781,2.783h-5.022c-1.537,0-2.783-1.247-2.783-2.783v-4.984c0-1.535,1.246-2.781,2.783-2.781H572.72z"/>
	
		<rect x="61.407" y="-180.76" fill="none" stroke="#686868" stroke-width="2" stroke-miterlimit="10" width="480.21" height="361.288"/>
</g>
<g>
	<path fill="none" stroke="#96D7E5" stroke-miterlimit="10" d="M567.929,202.318c15.363,0,27.817,12.455,27.817,27.818v339.146
		c0,15.365-12.454,27.819-27.817,27.819H34.053c-15.364,0-27.818-12.454-27.818-27.819V230.137
		c0-15.363,12.454-27.818,27.818-27.818C34.053,202.318,567.929,202.318,567.929,202.318z"/>
	<circle fill="none" stroke="#96D7E5" stroke-miterlimit="10" cx="570.169" cy="399.595" r="15.609"/>
	<circle fill="#96D7E5" cx="35.328" cy="399.633" r="4.21"/>
	<path fill="none" stroke="#96D7E5" stroke-miterlimit="10" d="M570.477,200H31.619c-15.364,0-27.818,12.455-27.818,27.818v344.363
		C3.801,587.544,16.255,600,31.619,600h538.858c15.363,0,27.819-12.456,27.819-27.818V227.818
		C598.297,212.455,585.841,200,570.477,200z M541.617,580.528H61.407V219.24h480.21V580.528z"/>
	<polyline fill="none" stroke="#96D7E5" stroke-miterlimit="10" points="3.695,297.585 1.703,299.362 1.703,322.554 3.695,324.331 	
		"/>
	<path fill="none" stroke="#96D7E5" stroke-miterlimit="10" d="M572.72,394.571c1.537,0,2.781,1.246,2.781,2.781v4.984
		c0,1.536-1.244,2.783-2.781,2.783h-5.022c-1.537,0-2.783-1.247-2.783-2.783v-4.984c0-1.535,1.246-2.781,2.783-2.781H572.72z"/>
</g>
</svg>
