<?xml version="1.0" encoding="utf-8"?>
<!-- Generator: Adobe Illustrator 17.0.0, SVG Export Plug-In . SVG Version: 6.00 Build 0)  -->
<!DOCTYPE svg PUBLIC "-//W3C//DTD SVG 1.1//EN" "http://www.w3.org/Graphics/SVG/1.1/DTD/svg11.dtd">
<svg version="1.1" id="Layer_2" xmlns="http://www.w3.org/2000/svg" xmlns:xlink="http://www.w3.org/1999/xlink" x="0px" y="0px"
	 width="600px" height="400px" viewBox="0 0 600 400" enable-background="new 0 0 600 400" xml:space="preserve">
<g>
	<path fill="none" stroke="#96D7E5" stroke-miterlimit="10" d="M567.9287109,2.3184054
		c15.3632812,0,27.8173828,12.4549999,27.8173828,27.8183002v339.1464844c0,15.3652039-12.4541016,27.8193054-27.8173828,27.8193054
		H34.0527c-15.3642006,0-27.8183002-12.4541016-27.8183002-27.8193054V30.1367054
		c0-15.3633003,12.4540997-27.8183002,27.8183002-27.8183002H567.9287109z"/>
	<circle fill="none" stroke="#96D7E5" stroke-miterlimit="10" cx="570.1688843" cy="199.5947571" r="15.6093502"/>
	<circle fill="#96D7E5" cx="35.3281021" cy="199.6333008" r="4.2104001"/>
	<path fill="none" stroke="#96D7E5" stroke-miterlimit="10" d="M570.477478,0H31.6191006
		C16.2549,0,3.8008001,12.4551048,3.8008001,27.8184052v344.3632202C3.8008001,387.5439148,16.2549,400,31.6191006,400H570.477478
		c15.3632812,0,27.819397-12.4560852,27.819397-27.8183899V27.8184052C598.296875,12.4551048,585.8407593,0,570.477478,0z
		 M541.6171875,380.5282898H61.4071999V19.2402058h480.2099915V380.5282898z"/>
	<polyline fill="none" stroke="#96D7E5" stroke-miterlimit="10" points="3.6953001,97.5849991 1.7031,99.3623047 
		1.7031,122.5537033 3.6953001,124.3311005 	"/>
	<path fill="none" stroke="#96D7E5" stroke-miterlimit="10" d="M572.7196655,194.5713043
		c1.5371094,0,2.781311,1.2460938,2.781311,2.781189v4.9844055c0,1.5361023-1.2442017,2.7832031-2.781311,2.7832031h-5.0223999
		c-1.5370483,0-2.7832031-1.2471008-2.7832031-2.7832031v-4.9844055c0-1.5350952,1.2461548-2.781189,2.7832031-2.781189H572.7196655
		z"/>
</g>
</svg>
